<?xml version="1.0" encoding="UTF-8" standalone="no"?>
<svg
   xmlns:dc="http://purl.org/dc/elements/1.1/"
   xmlns:cc="http://creativecommons.org/ns#"
   xmlns:rdf="http://www.w3.org/1999/02/22-rdf-syntax-ns#"
   xmlns:svg="http://www.w3.org/2000/svg"
   xmlns="http://www.w3.org/2000/svg"
   xmlns:sodipodi="http://sodipodi.sourceforge.net/DTD/sodipodi-0.dtd"
   xmlns:inkscape="http://www.inkscape.org/namespaces/inkscape"
   width="595.2756"
   height="841.8898"
   version="1.1"
   id="svg40"
   sodipodi:docname="corneilleLogo2.svg"
   inkscape:version="0.92.2 (5c3e80d, 2017-08-06)">
  <metadata
     id="metadata46">
    <rdf:RDF>
      <cc:Work
         rdf:about="">
        <dc:format>image/svg+xml</dc:format>
        <dc:type
           rdf:resource="http://purl.org/dc/dcmitype/StillImage" />
        <dc:title></dc:title>
      </cc:Work>
    </rdf:RDF>
  </metadata>
  <defs
     id="defs44" />
  <sodipodi:namedview
     pagecolor="#ffffff"
     bordercolor="#666666"
     borderopacity="1"
     objecttolerance="10"
     gridtolerance="10"
     guidetolerance="10"
     inkscape:pageopacity="0"
     inkscape:pageshadow="2"
     inkscape:window-width="1920"
     inkscape:window-height="1001"
     id="namedview42"
     showgrid="false"
     inkscape:zoom="0.28032173"
     inkscape:cx="233.42586"
     inkscape:cy="420.94489"
     inkscape:window-x="-9"
     inkscape:window-y="-9"
     inkscape:window-maximized="1"
     inkscape:current-layer="svg40" />
  <path
     style="fill:#9c9e9f;fill-rule:evenodd;stroke:#9c9e9f;stroke-width:0.21600001;opacity:0.491"
     inkscape:connector-curvature="0"
     d="m 55.0345,134.4246 v 480 h 479.9999 v -480 z"
     id="path2"
     inkscape:export-xdpi="89.959541"
     inkscape:export-ydpi="89.959541" />
  <path
     style="fill:#ffffff;fill-rule:evenodd"
     inkscape:connector-curvature="0"
     d="m 210.767,442.3065 c 0.3174,0 0.4756,0.1587 0.4756,0.4756 0.1361,0.1817 0.1588,0.4533 0.0678,0.8159 0,0.2264 -0.0451,0.4076 -0.1355,0.5434 l -0.9516,2.1747 c -0.1361,0.2265 -0.2492,0.4187 -0.3399,0.5774 -0.0904,0.1588 -0.2265,0.4419 -0.4073,0.8496 l -0.612,1.0193 2.5146,-2.5143 1.6307,-1.427 1.7672,-1.3592 0.6114,-0.4076 c 0.0904,0 0.2265,-0.0454 0.4079,-0.1361 l 0.3399,-0.2038 c 0.0904,-0.0454 0.2265,-0.0904 0.4076,-0.1358 0.1809,-0.0456 0.453,-0.068 0.8155,-0.068 v 0.068 c 0,0.0454 0.0678,0.0678 0.2038,0.0678 0.2265,0.1357 0.3736,0.2945 0.4414,0.4756 0.0683,0.1814 0.1477,0.453 0.2381,0.8155 0,0.3626 -0.0453,0.6115 -0.1361,0.7475 -0.0453,0.0905 -0.0677,0.2039 -0.0677,0.3399 0,0.0904 -0.0116,0.1698 -0.0343,0.2381 -0.0224,0.0678 -0.034,0.1242 -0.034,0.1698 -0.0904,0.1812 -0.1698,0.362 -0.2376,0.5434 -0.0683,0.1812 -0.2154,0.4306 -0.4419,0.7475 l -1.4947,2.5146 1.0871,-0.9516 1.4953,-1.3592 1.6307,-1.4269 0.1358,-0.0678 c 0.0907,-0.091 0.1928,-0.1814 0.3062,-0.2721 0.1131,-0.0904 0.2375,-0.1587 0.3736,-0.2038 l 1.0871,-0.4757 c 0.0453,0 0.102,-0.0226 0.1697,-0.0677 0.0681,-0.0457 0.2606,-0.0683 0.5777,-0.0683 0.0454,0 0.1358,0.0226 0.2719,0.0683 0.1361,0.0451 0.2492,0.1131 0.3399,0.2038 0,0.0451 0.0453,0.1131 0.136,0.2038 l 0.1358,0.4757 v 0.4759 c 0,0.1355 -0.0453,0.3169 -0.1358,0.5434 l -0.2721,0.8152 c -0.0904,0.091 -0.1361,0.2041 -0.1361,0.3399 -0.1355,0.0907 -0.2488,0.2719 -0.3396,0.544 -0.1811,0.3169 -0.3055,0.5434 -0.3738,0.6794 -0.0678,0.1355 -0.1698,0.2943 -0.3053,0.4754 v -0.136 l -0.0683,0.3398 -0.7475,1.2235 0.068,-0.0681 -0.2716,0.6117 -0.2043,0.7475 c -0.0905,0.1358 -0.1245,0.2492 -0.1018,0.3396 0.0229,0.0907 0.034,0.1812 0.034,0.2722 0,0.045 0.0227,0.1131 0.0678,0.2038 0.0456,0.0904 0.1814,0.136 0.4079,0.136 0.0907,0 0.1584,0.0111 0.2038,0.0338 0.0456,0.0226 0.136,0.0113 0.2721,-0.0338 0.1355,-0.0456 0.2716,-0.0683 0.4076,-0.0683 0.0904,0 0.1471,-0.0227 0.1698,-0.0677 0.0227,-0.0457 0.0567,-0.0683 0.1018,-0.0683 l 0.5439,-0.1355 h -0.0683 c 0.1361,-0.091 0.2832,-0.1588 0.442,-0.2041 0.1584,-0.0451 0.3282,-0.1358 0.5096,-0.2719 l 0.476,-0.2718 -0.0684,0.068 0.9516,-0.6117 c 0.1355,-0.0451 0.2943,-0.1361 0.4754,-0.2716 0.1814,-0.136 0.3626,-0.2718 0.544,-0.4079 l 0.8152,-0.7475 c 0.2719,-0.1814 0.5891,-0.4303 0.9516,-0.7477 0.3626,-0.317 0.6568,-0.6112 0.8833,-0.8833 h 0.2038 c 0.0453,0 0.0683,-0.0224 0.0683,-0.0678 0.0904,0 0.1698,0.0111 0.2376,0.0338 0.0677,0.0229 0.2154,0.125 0.4419,0.3061 0.045,0.2718 0.045,0.5434 0,0.8155 0,0.0451 -0.1134,0.1809 -0.3399,0.4077 l -0.6795,0.6794 -0.6794,0.5437 -0.5437,0.4757 0.0677,-0.1361 -0.6794,0.5437 c -0.3172,0.3169 -0.7475,0.6117 -1.2915,0.8833 l -0.2038,0.136 c -0.1361,0.1361 -0.2942,0.2605 -0.4757,0.3736 -0.1811,0.1134 -0.3172,0.1701 -0.4076,0.1701 l 0.068,-0.1358 c -0.2264,0.2265 -0.4983,0.4076 -0.8155,0.5437 -0.3169,0.1361 -0.6117,0.2492 -0.8833,0.3399 -0.2264,0.1355 -0.4529,0.2035 -0.6794,0.2035 l -0.5437,0.2038 h -0.2721 c -0.3169,0 -0.6684,-0.0564 -1.0531,-0.1698 -0.3852,-0.1131 -0.6457,-0.3058 -0.7818,-0.5774 -0.0904,-0.2721 -0.1471,-0.5213 -0.1698,-0.7478 -0.0227,-0.2265 -0.0113,-0.498 0.0337,-0.8152 0.091,-0.4983 0.2155,-0.9516 0.3742,-1.3592 0.1585,-0.4079 0.3283,-0.7929 0.5097,-1.1551 l 0.6114,-1.2232 0.2038,-0.3399 c 0.1814,-0.2265 0.3059,-0.4192 0.3742,-0.5774 0.0677,-0.1587 0.1471,-0.3288 0.2375,-0.5097 v 0.0678 c 0,-0.0907 0.0227,-0.1587 0.0678,-0.2038 l 0.1361,-0.1361 0.136,-0.6794 c -0.3172,0.1357 -0.6341,0.3169 -0.9516,0.5434 l -0.3398,0.2721 h 0.0683 l -0.6117,0.4076 -0.6798,0.6117 -0.5434,0.3399 h 0.068 l -2.9902,2.7181 c -0.2265,0.2265 -0.4644,0.4643 -0.7135,0.7135 -0.2492,0.2489 -0.4419,0.4643 -0.5774,0.6455 l -0.3399,0.3396 -0.2041,0.2721 c -0.0907,0.1358 -0.2378,0.2718 -0.4416,0.4076 -0.2039,0.1358 -0.351,0.2718 -0.4417,0.4079 h -0.5437 c -0.1811,-0.0907 -0.2831,-0.2038 -0.3058,-0.3399 -0.0224,-0.136 -0.034,-0.2491 -0.034,-0.3398 v -0.2719 c 0,-0.0904 0.0456,-0.1811 0.136,-0.2715 0,-0.1361 0.0678,-0.3399 0.2038,-0.6118 0.1361,-0.136 0.2038,-0.2721 0.2038,-0.4076 0.7252,-1.3592 1.3819,-2.4919 1.971,-3.3979 l 0.4076,-0.8155 c 0,0 0.0904,-0.1361 0.2718,-0.4076 0.0451,-0.0907 0.1134,-0.2038 0.2039,-0.3399 0.2264,-0.2265 0.4076,-0.487 0.5436,-0.7815 0.1361,-0.2945 0.2943,-0.6231 0.4757,-0.9853 0.0451,-0.0454 0.0677,-0.1358 0.0677,-0.2719 v -0.136 l -0.1357,-0.1361 h -0.2039 c -0.3171,0.091 -0.6567,0.2495 -1.0193,0.4759 -0.3623,0.2265 -0.6571,0.453 -0.8835,0.6795 -0.317,0.2265 -0.6115,0.4646 -0.8833,0.7135 -0.2716,0.2494 -0.5664,0.5097 -0.8833,0.7818 l -1.8351,1.563 -1.359,1.5627 -1.2912,1.427 -1.2911,1.6311 -0.5437,0.8158 -0.2716,0.3393 -0.7478,0.5439 c -0.4529,0 -0.7018,-0.0909 -0.7472,-0.2721 -0.0907,-0.2718 -0.0907,-0.5661 0,-0.8833 0.0904,-0.3169 0.1809,-0.5663 0.2719,-0.7472 0,-0.091 0.0677,-0.2043 0.2038,-0.3398 -0.0454,0 -0.0567,-0.0567 -0.034,-0.1698 0.0224,-0.1134 0.079,-0.2155 0.17,-0.3062 l 0.2716,-0.4079 0.2718,-0.7472 0.4754,-0.8158 c 0.3626,-0.5885 0.6684,-1.1548 0.9179,-1.6985 0.2491,-0.544 0.5547,-1.1104 0.9173,-1.6988 0.0453,-0.2265 0.1471,-0.4873 0.3058,-0.7818 0.1582,-0.2943 0.3059,-0.5774 0.4414,-0.8493 0.2721,-0.6341 0.5439,-1.2231 0.8155,-1.7668 0.2721,-0.5437 0.5437,-0.8606 0.8158,-0.9516 z m 25.0078,0.6795 c 0.1355,0 0.2715,0.0343 0.4076,0.1023 0.1361,0.0677 0.2718,0.1471 0.4076,0.2375 0.1814,0 0.3175,0.0905 0.4079,0.2722 0.1361,0.0904 0.2038,0.1808 0.2038,0.2715 0,0.1361 0.0338,0.2265 0.1021,0.2719 0.0677,0.0456 0.1017,0.136 0.1017,0.2721 v -0.0683 c 0.1815,0.3172 0.2492,0.6003 0.2039,0.8495 -0.0451,0.2492 -0.1134,0.487 -0.2039,0.7135 l -0.4759,0.6117 -0.6111,0.8155 c -0.0457,0.0451 -0.1134,0.1134 -0.2039,0.2038 -0.0909,0.0908 -0.1587,0.1812 -0.2043,0.2716 -0.0451,0.0456 -0.0678,0.091 -0.0678,0.1361 l -0.136,0.136 c 0,0 -0.0451,0.0454 -0.1358,0.1361 -0.1812,0.2716 -0.3623,0.6452 -0.5437,1.1208 -0.1811,0.4759 -0.3172,0.8496 -0.4076,1.1217 l -0.2719,0.8833 c 0,0.0904 -0.0113,0.1471 -0.034,0.1698 -0.0227,0.0229 -0.034,0.0793 -0.034,0.17 0,0.0905 0.023,0.2038 0.068,0.3396 0,0.0907 0.0114,0.1812 0.0343,0.2719 0.0221,0.0907 0.0338,0.1814 0.0338,0.2718 l 0.2038,0.4076 v -0.0677 c 0,-0.0907 0.0677,-0.0678 0.2038,0.0677 h -0.0678 l 0.4757,0.3399 h 0.2715 c 0.0457,0 0.0908,0.0227 0.1361,0.068 0.0451,0.0451 0.0907,0.0678 0.1361,0.0678 0.045,-0.0904 0.0904,-0.1131 0.1355,-0.0678 0.0456,0.0451 0.1134,0.0678 0.2043,0.0678 0.0905,-0.0904 0.2039,-0.1358 0.3396,-0.1358 h 0.3399 c 0.0904,0 0.1471,-0.0224 0.1698,-0.068 0.0224,-0.0454 0.0791,-0.0678 0.1701,-0.0678 l 0.5434,-0.136 0.4076,-0.1358 0.6117,-0.3399 1.2912,-0.8833 0.6795,-0.4076 0.6457,-0.6457 c 0.2038,-0.2038 0.419,-0.3736 0.6457,-0.5097 l 0.6795,-0.6117 2.378,-2.2425 c 0.091,-0.1361 0.1927,-0.2151 0.3061,-0.2378 0.1131,-0.0227 0.2829,-0.0794 0.5097,-0.1698 l 0.3396,0.2715 c 0.1811,0.2265 0.2265,0.3853 0.136,0.4757 -0.0904,0.0907 -0.2038,0.2494 -0.3398,0.4759 -0.7699,0.6795 -1.2912,1.2005 -1.5628,1.5631 -0.2721,0.3622 -0.5663,0.7021 -0.8835,1.0193 0,0 -0.0454,0.0453 -0.1358,0.1358 l -0.1361,0.136 -1.563,1.2232 -0.4756,0.4754 c -0.4984,0.3174 -1.008,0.6573 -1.5293,1.0193 -0.5208,0.3625 -1.0304,0.6117 -1.529,0.7478 -0.0451,0 -0.0905,0.0224 -0.1355,0.0677 -0.0454,0.0457 -0.1134,0.0681 -0.2039,0.0681 -0.2718,0.0907 -0.6117,0.1357 -1.0193,0.1357 -0.1361,0.0457 -0.3625,0.0683 -0.6795,0.0683 0,0.0905 -0.0909,0.1355 -0.2721,0.1355 -0.136,0 -0.2491,-0.0221 -0.3399,-0.0677 -0.0904,-0.0454 -0.3169,-0.0904 -0.6794,-0.1361 l 0.0683,0.0683 c -0.0456,0 -0.091,-0.0226 -0.1361,-0.0683 h -0.0683 l -0.4754,-0.2715 c -0.2718,-0.1814 -0.4983,-0.419 -0.6794,-0.7135 -0.1814,-0.2945 -0.2948,-0.5777 -0.3399,-0.8493 -0.0453,-0.3625 -0.091,-0.714 -0.1361,-1.0539 -0.0453,-0.3393 0.023,-0.7583 0.2039,-1.2569 v -0.0677 l -0.4077,0.2715 -0.5434,0.4757 c -0.1814,0.2265 -0.4192,0.4076 -0.714,0.5437 -0.2942,0.136 -0.5548,0.2718 -0.7812,0.4079 l -0.1361,0.0677 c -0.3623,0.2265 -0.6681,0.3853 -0.917,0.476 -0.2495,0.0904 -0.4646,0.1811 -0.6457,0.2715 -0.0457,0 -0.0908,0.0116 -0.1361,0.0343 -0.0451,0.0224 -0.0904,0.0338 -0.1361,0.0338 -0.0904,0.045 -0.1698,0.045 -0.2375,0 -0.0678,-0.0454 -0.1701,-0.0681 -0.3059,-0.0681 l -0.3398,0.0681 c -0.1361,0 -0.2943,-0.0681 -0.476,-0.2036 -0.1808,-0.0456 -0.2829,-0.0683 -0.3053,-0.0683 -0.0227,0 -0.0567,-0.1134 -0.102,-0.3399 0,-0.0904 -0.034,-0.1471 -0.1018,-0.1698 -0.0683,-0.0226 -0.102,-0.0566 -0.102,-0.1017 l 0.1357,-0.9516 0.2719,-0.5434 -0.1361,0.0677 0.2041,-0.4753 0.3399,-0.6117 0.5434,-0.8159 c 0.0451,-0.045 0.068,-0.1131 0.068,-0.2038 l 0.3396,-0.4756 1.563,-1.9707 -0.136,0.0681 c 0.091,-0.0907 0.1814,-0.1701 0.2721,-0.2379 0.0904,-0.0677 0.1811,-0.1471 0.2718,-0.2375 l 0.8836,-0.7478 0.5434,-0.4759 -0.0677,0.136 1.2231,-0.8832 c 0.2265,-0.1812 0.6231,-0.3626 1.1894,-0.5437 0.5661,-0.1812 1.0304,-0.2721 1.393,-0.2721 z m -7.2034,8.0866 c -0.0905,0.1817 -0.0905,0.2832 0,0.3062 0.0907,0.0226 0.2378,-0.0114 0.4416,-0.1018 0.2041,-0.091 0.4306,-0.2044 0.6795,-0.3399 0.2491,-0.136 0.4419,-0.2491 0.578,-0.3398 0.6794,-0.4079 1.2568,-0.7816 1.7328,-1.1214 0.4756,-0.3399 0.9626,-0.7589 1.4607,-1.2569 l 1.0876,-1.0877 0.1355,-0.1355 c 0.091,-0.1817 0.2044,-0.3398 0.3399,-0.4759 0.1361,-0.1361 0.2492,-0.2948 0.3399,-0.4756 l 0.7477,-0.9514 c -0.0456,-0.0453 -0.0566,-0.102 -0.0343,-0.1698 0.0227,-0.0683 0.0343,-0.1476 0.0343,-0.2381 l -0.2721,-0.2715 h -0.4756 c -0.2716,0 -0.521,0.0904 -0.7475,0.2715 l -0.5437,0.2719 c -0.0904,0.0451 -0.2035,0.1134 -0.3396,0.2038 -0.2721,0.1811 -0.4533,0.2945 -0.5437,0.3399 0,0 -0.0227,0.0453 -0.068,0.136 l -0.8836,0.7472 c -0.0904,0.0908 -0.2148,0.2155 -0.3736,0.3739 -0.1587,0.1588 -0.2832,0.2603 -0.3736,0.3059 -0.0907,0.2718 -0.2721,0.453 -0.5437,0.5434 l -0.136,0.3399 -1.1554,1.3592 -0.5434,0.8155 -0.476,0.6795 z m 18.8234,-9.0377 c 0.1361,0 0.3172,0.0678 0.5437,0.2038 0.0454,0.0905 0.0904,0.1698 0.1361,0.2376 0.0451,0.0683 0.0677,0.1477 0.0677,0.2381 l -0.0677,0.6114 -0.2721,0.6117 -0.2716,0.4077 -0.6117,1.0193 -0.3399,0.5437 -0.6117,1.0193 0.8155,-0.6794 c 0.9967,-0.9513 1.7669,-1.6198 2.3108,-2.0047 0.5434,-0.3852 0.951,-0.6684 1.2232,-0.8493 l 0.5434,-0.2038 c 0.2267,0.0905 0.4643,0.1355 0.7135,0.1355 0.2494,0 0.4643,0.2722 0.6457,0.8156 l -0.068,0.9515 -0.0681,0.4077 c -0.0904,0.0453 -0.1358,0.1587 -0.1358,0.3398 l -0.3398,0.8156 -0.2716,0.4076 c -0.0456,0.1361 -0.102,0.2602 -0.1701,0.3736 -0.068,0.1134 -0.1247,0.2154 -0.1698,0.3059 l -0.4756,0.6797 -0.3399,0.8155 -0.2721,0.6112 -0.2035,0.7478 c 0,0.3172 -0.023,0.5663 -0.0681,0.7475 0,0.0453 -0.0113,0.0793 -0.0337,0.102 -0.0227,0.0224 -0.0343,0.0564 -0.0343,0.1018 v 0.4076 c 0,0.1814 0.0453,0.3625 0.1361,0.544 0,0 0.0453,0.045 0.1357,0.1355 l 0.5437,0.4079 c 0.1361,0.045 0.2381,0.0793 0.3059,0.1017 0.0677,0.0227 0.1471,0.0343 0.2378,0.0343 h 0.2718 c 0.0905,0 0.1928,-0.0116 0.3059,-0.0343 0.1134,-0.0224 0.2152,-0.0337 0.3056,-0.0337 0.2718,0 0.4306,-0.023 0.4756,-0.068 l 1.0194,-0.5434 -0.0678,0.0677 0.8153,-0.5437 -0.1355,0.1361 0.4753,-0.2719 0.4757,-0.3398 0.1361,-0.0678 c 0.0904,-0.0907 0.1811,-0.1587 0.2718,-0.2038 0.0907,-0.0456 0.1811,-0.091 0.2718,-0.1361 l 1.1552,-0.8155 2.5823,-2.0387 0.2038,-0.136 c 0,-0.0451 0.0454,-0.0904 0.1361,-0.1355 0.0904,-0.0457 0.2492,-0.023 0.4757,0.0677 h 0.0677 c 0,0 0.068,0.0678 0.2038,0.2038 0.1361,0.2265 0.0683,0.4079 -0.2038,0.5434 -0.2718,0.1361 -0.4303,0.3172 -0.4757,0.5437 l -0.8832,0.9516 -1.3592,1.1554 -0.1361,0.0678 c 0,0.1811 -0.0904,0.2718 -0.2716,0.2718 -0.0904,0.0451 -0.1814,0.1134 -0.2718,0.2038 l -0.2038,0.2038 c -0.3172,0.2722 -0.6004,0.487 -0.8496,0.6458 -0.2491,0.1584 -0.5096,0.3058 -0.7812,0.4416 l -0.4759,0.3396 -0.5434,0.2721 c -0.1361,0.0904 -0.2948,0.1698 -0.476,0.2376 -0.1811,0.0683 -0.3398,0.125 -0.4756,0.17 l -1.1554,0.3396 c -0.0904,0.0457 -0.2265,0.0683 -0.4076,0.0683 h -0.6115 c -0.2265,0 -0.4306,-0.0226 -0.6117,-0.0683 -0.0453,0 -0.0904,-0.0226 -0.1361,-0.0677 -0.045,0 -0.0904,-0.0227 -0.136,-0.068 -0.0451,0 -0.1015,-0.0114 -0.1698,-0.0341 -0.0678,-0.0226 -0.1245,-0.034 -0.1698,-0.034 -0.5437,-0.3169 -0.9062,-0.6568 -1.0871,-1.0193 h 0.0678 l -0.1358,-0.5434 c 0,-0.0457 -0.0227,-0.1134 -0.0681,-0.2038 -0.045,-0.0907 -0.0677,-0.2265 -0.0677,-0.4079 v -0.9513 c 0,-0.1812 0.0451,-0.3626 0.1358,-0.5437 0.045,-0.2719 0.1244,-0.6001 0.2378,-0.9854 0.1131,-0.3852 0.2375,-0.6908 0.3736,-0.9172 0,0.045 0.0116,0.011 0.034,-0.1021 0.0227,-0.1134 0.1247,-0.3509 0.3059,-0.7135 l 0.4079,-0.9516 c 0.1355,-0.2264 0.2715,-0.4303 0.4076,-0.6114 0.1361,-0.1814 0.2038,-0.3169 0.2038,-0.4079 l 0.5437,-1.0871 v -0.2718 c -0.0907,0.0907 -0.1811,0.1244 -0.2718,0.1017 -0.0905,-0.0226 -0.1815,0.0117 -0.2719,0.1021 l -0.6794,0.4076 0.1357,-0.0677 -1.6988,1.4269 -1.2231,1.0871 -2.2425,2.5146 -0.2721,0.2719 c -0.0451,0.0907 -0.0678,0.1584 -0.0678,0.2038 0,0.045 -0.0227,0.068 -0.0677,0.068 0,0.0454 -0.0117,0.0904 -0.0343,0.1358 -0.0224,0.0456 -0.1018,0.1811 -0.2379,0.4076 l -0.9515,1.6991 -0.8833,1.2231 0.136,-0.068 c -0.0907,0.0907 -0.1698,0.1928 -0.2378,0.3062 -0.068,0.1131 -0.2151,0.1921 -0.4419,0.2375 -0.2716,0 -0.453,-0.1021 -0.5434,-0.3059 -0.0907,-0.2038 -0.1361,-0.3736 -0.1361,-0.5096 l 0.2038,-0.6115 v -0.136 c 0,-0.0905 0.0227,-0.1588 0.0684,-0.2038 0.045,-0.1358 0.1244,-0.2946 0.2375,-0.4757 0.1134,-0.1811 0.2381,-0.3852 0.3736,-0.6117 l 0.4082,-0.7475 0.5434,-0.8833 0.2038,-0.3399 0.2721,-0.4756 c 0.0451,-0.0451 0.0678,-0.0907 0.0678,-0.1361 v -0.0677 c 0,0 0.0677,-0.1134 0.2038,-0.3399 0.2265,-0.3169 0.4986,-0.7702 0.8155,-1.3592 l 0.5437,-0.951 0.3396,-0.7478 0.7475,-1.4947 c 0,-0.1361 0.068,-0.2721 0.2041,-0.4079 0,-0.0907 0.0224,-0.1701 0.0677,-0.2379 0.0457,-0.0683 0.0681,-0.1471 0.0681,-0.2381 0.0907,-0.2715 0.2491,-0.5887 0.4756,-0.951 0.2265,-0.3625 0.4303,-0.5437 0.6117,-0.5437 z m 22.1534,1.9026 c 0.0907,0.0908 0.1474,0.1585 0.1698,0.2039 0.0226,0.0456 0.0343,0.136 0.0343,0.2721 v 0.8152 l -0.3399,0.3396 c -0.2719,0.2721 -0.4757,0.5437 -0.6117,0.8155 l -0.4077,0.3399 -1.1554,1.427 -0.2035,0.2721 c -0.0456,0.0904 -0.0683,0.1585 -0.0683,0.2035 l -0.3399,0.4077 c -0.045,0.0909 -0.0677,0.1587 -0.0677,0.2043 -0.0905,0.1355 -0.2038,0.2943 -0.3399,0.4754 -0.1358,0.1814 -0.2492,0.3852 -0.3396,0.6117 l -0.2716,0.4757 0.1355,-0.1358 -0.2038,0.4073 c 0,0.091 -0.034,0.1928 -0.1017,0.3062 -0.0681,0.1131 -0.1021,0.2151 -0.1021,0.3058 l -0.136,0.2716 v 0.6117 c 0,0.0454 0.0116,0.0904 0.034,0.1361 0.0227,0.045 0.0343,0.0904 0.0343,0.136 h 0.5434 c 0.3172,0 0.7021,-0.1023 1.1551,-0.3061 0.453,-0.2035 0.9059,-0.419 1.3592,-0.6455 l 0.7478,-0.3398 0.2038,-0.1361 c 0.1808,-0.0451 0.4073,-0.1582 0.6795,-0.3399 l 0.5436,-0.4073 c 0.0454,0 0.0794,-0.0113 0.1021,-0.034 0.0224,-0.0227 0.0788,-0.034 0.1698,-0.034 l 0.1355,-0.0681 0.2038,-0.2715 1.2237,-0.8156 0.8153,-0.612 c 0.1814,-0.2264 0.3852,-0.4413 0.6117,-0.6451 0.2265,-0.2041 0.453,-0.4193 0.6794,-0.6458 l 0.4077,-0.2718 0.5436,-0.5437 c 0.0908,-0.0453 0.1925,-0.1134 0.3059,-0.2038 0.1131,-0.0904 0.2154,-0.1361 0.3059,-0.1361 0.0904,0 0.1587,0.023 0.2038,0.0681 0.0453,0.0453 0.1131,0.1131 0.2038,0.2041 0.136,0.0904 0.2038,0.2265 0.2038,0.4076 0,0.1808 -0.0451,0.3396 -0.1358,0.4756 l -0.2038,0.2039 -0.1358,0.136 -0.3398,0.4076 -0.2722,0.1361 c -0.2265,0.2265 -0.4756,0.4303 -0.7472,0.6112 l -0.5437,0.4081 -0.6117,0.4074 -0.3399,0.4759 -0.951,0.8155 v -0.0683 c -0.1814,0.1817 -0.3399,0.3175 -0.4759,0.4082 -0.1358,0.0904 -0.2945,0.1812 -0.4757,0.2716 l 0.0678,-0.0678 -0.3399,0.2038 c -0.0904,0.1358 -0.2259,0.2492 -0.4073,0.3396 -0.1812,0.0907 -0.3399,0.1812 -0.476,0.2722 -0.3169,0.3169 -0.6568,0.5207 -1.0193,0.6114 -0.4981,0.2265 -1.1098,0.4756 -1.8346,0.7478 -0.7251,0.2715 -1.4046,0.4073 -2.0387,0.4073 h -0.3399 c -0.1357,0 -0.2491,-0.0227 -0.3395,-0.068 -0.0457,0 -0.0794,-0.0224 -0.1024,-0.0678 -0.0221,-0.045 -0.0788,-0.0907 -0.1698,-0.136 -0.1355,-0.0905 -0.2942,-0.2716 -0.4753,-0.5437 -0.0454,0 -0.0681,-0.0451 -0.0681,-0.1358 v -0.1358 c -0.045,-0.091 -0.068,-0.2945 -0.068,-0.6117 0,-0.3169 0.0451,-0.6568 0.1361,-1.0193 0,-0.0905 0.034,-0.2038 0.1017,-0.3399 0.0681,-0.1361 0.1471,-0.3169 0.2381,-0.5434 l -0.6797,0.6795 c -0.0907,0.0904 -0.1814,0.1698 -0.2719,0.2378 -0.0904,0.068 -0.2491,0.1471 -0.4759,0.2378 l -0.2715,0.1358 -0.2039,0.2718 c -0.0907,0.0907 -0.2264,0.1812 -0.4079,0.2722 -0.1811,0.0904 -0.3169,0.1811 -0.4076,0.2715 -0.2718,0.1814 -0.4983,0.2948 -0.6795,0.3399 -0.0907,0.0453 -0.1814,0.0904 -0.2721,0.1358 -0.0904,0.0456 -0.1131,0.0229 -0.0677,-0.0678 l -0.3399,0.2038 c -0.0904,0.0451 -0.1925,0.0907 -0.3059,0.1361 -0.1131,0.0451 -0.1924,0.0677 -0.2375,0.0677 0,0.0454 -0.1361,0.0678 -0.4079,0.0678 h -0.4076 c -0.1361,0 -0.2945,-0.0678 -0.476,-0.2038 -0.3625,-0.1809 -0.5663,-0.453 -0.6114,-0.8155 v -0.9511 c 0,-0.0907 0.0113,-0.1814 0.034,-0.2721 0.0227,-0.0904 0.034,-0.2489 0.034,-0.4754 0.1358,-0.4986 0.2832,-0.9516 0.4417,-1.3592 0.1584,-0.4079 0.3512,-0.7928 0.5777,-1.1551 0.0453,0 0.0904,-0.023 0.1357,-0.068 0.0908,-0.0907 0.1585,-0.2041 0.2039,-0.3396 0.136,-0.2265 0.3509,-0.5553 0.6457,-0.9856 0.2942,-0.4303 0.5321,-0.7589 0.7135,-0.9853 l 0.8155,-1.1554 0.2716,-0.2039 0.2721,-0.3398 0.3399,-0.3396 0.4756,-0.3399 c 0.1355,0 0.2716,0.0337 0.4076,0.102 0.1361,0.0678 0.2038,0.1472 0.2038,0.2379 0.0454,0.0904 0.0678,0.2945 0.0678,0.6117 0,0.1358 -0.0224,0.2492 -0.0678,0.3396 0,0.0907 -0.034,0.1927 -0.102,0.3061 -0.0677,0.1131 -0.1471,0.2376 -0.2378,0.3736 l -0.2038,0.2038 -0.6118,0.8156 -1.8345,2.2425 -0.6795,0.8832 c -0.0456,0.0451 -0.0683,0.1361 -0.0683,0.2716 -0.0904,0.0456 -0.1355,0.1587 -0.1355,0.3399 -0.0454,0.091 -0.091,0.1477 -0.1361,0.1698 -0.0453,0.0229 -0.068,0.0567 -0.068,0.1023 -0.0451,0.0453 -0.068,0.0904 -0.068,0.1358 v 0.068 c 0,0.0454 -0.0111,0.0904 -0.0338,0.1358 -0.0226,0.0456 -0.034,0.0907 -0.034,0.136 v 0.4077 c 0,0.0453 0.0224,0.0904 0.0678,0.136 0.0907,0.0905 0.1587,0.1358 0.2038,0.1358 0.136,-0.0907 0.2721,-0.1358 0.4082,-0.1358 0.1355,0 0.2715,-0.0456 0.4073,-0.136 l 0.4076,-0.2038 0.7478,-0.4077 c 0.0451,0 0.1358,-0.068 0.2716,-0.2041 l 0.4081,-0.2038 h -0.0683 l 0.476,-0.4076 c 0.0904,-0.0453 0.1808,-0.0904 0.2718,-0.1361 0.0904,-0.0453 0.1811,-0.1131 0.2716,-0.2038 0.2265,-0.0904 0.3625,-0.2038 0.4076,-0.3396 l 0.544,-0.4081 -0.0681,0.0683 0.4079,-0.3399 1.3592,-1.2232 c 0.4981,-0.4529 0.9621,-0.9289 1.393,-1.4272 0.4303,-0.498 0.8716,-0.974 1.3249,-1.427 l 0.2719,-0.4759 0.3398,-0.2716 z"
     id="path4" />
  <path
     style="fill:#ffffff;fill-rule:evenodd"
     inkscape:connector-curvature="0"
     d="m 294.08,425.1818 0.2038,0.2038 0.3399,0.4077 c 0.0454,0.136 0.0683,0.3625 0.0683,0.6797 -0.0456,0.1358 -0.0683,0.3852 -0.0683,0.7478 l -0.2038,0.2715 c 0,0.2719 -0.0227,0.4303 -0.0677,0.4757 l -0.3399,0.8833 -0.2038,0.5437 c -0.0907,0.136 -0.1698,0.2491 -0.2381,0.3398 -0.0678,0.0905 -0.1698,0.2492 -0.3059,0.4757 l -0.5434,1.1554 -0.1361,0.3399 c -0.0904,0.0904 -0.1355,0.1811 -0.1355,0.2715 -0.0456,0.0454 -0.0683,0.091 -0.0683,0.1361 -0.045,0.0453 -0.0677,0.0794 -0.0677,0.102 0,0.0227 -0.0227,0.0567 -0.0683,0.1018 l -0.1355,0.1358 -0.8833,1.4269 -0.4759,0.7478 c -0.0905,0.0907 -0.1361,0.1812 -0.1361,0.2716 -0.0454,0.0456 -0.0904,0.0683 -0.1358,0.0683 -0.0451,0 -0.068,0.0227 -0.068,0.0677 0,0.1361 -0.0454,0.2722 -0.1358,0.4077 -0.0907,0.136 -0.1587,0.2491 -0.2038,0.3398 -0.0907,0.0454 -0.1361,0.0907 -0.1361,0.1358 l -0.3398,0.4082 -0.2719,0.3396 -0.2038,0.4754 -0.7475,0.8158 -0.4756,0.4756 -0.476,0.6795 c -0.1355,0.1361 -0.2942,0.2832 -0.4754,0.4416 -0.1814,0.1588 -0.3174,0.3512 -0.4079,0.578 l -1.4269,1.4267 -0.3399,0.4076 -0.8155,0.8155 -2.7182,3.0583 -0.8152,0.8156 -0.4079,0.3398 -0.6798,0.6112 -0.6794,0.5437 -0.4754,0.3399 c -0.0907,0.0907 -0.2265,0.1814 -0.4079,0.2718 -0.1811,0.0907 -0.2489,0.1361 -0.2038,0.1361 -0.3172,0.2264 -0.6114,0.4076 -0.8836,0.5436 -0.2718,0.1358 -0.5207,0.2716 -0.7472,0.4074 -0.0456,0.0907 -0.102,0.2038 -0.1701,0.3399 -0.068,0.136 -0.102,0.2264 -0.102,0.2721 l -0.3396,0.6794 c -0.0907,0.0905 -0.1244,0.1585 -0.1018,0.2039 0.0224,0.0453 0.0338,0.0904 0.0338,0.136 l -0.4079,1.0871 c -0.0451,0.0454 -0.0678,0.0794 -0.0678,0.1021 0,0.0223 -0.0227,0.0566 -0.0677,0.1017 -0.0457,0.0454 -0.091,0.1134 -0.1361,0.2038 -0.0904,0.091 -0.1698,0.2155 -0.2381,0.3742 -0.0678,0.1582 -0.1244,0.2829 -0.1698,0.3736 -0.2265,0.2716 -0.3739,0.5321 -0.4416,0.7812 -0.0681,0.2492 -0.1472,0.5324 -0.2382,0.8496 -0.0904,0.0904 -0.1354,0.1814 -0.1354,0.2718 -0.091,0.1812 -0.1928,0.3399 -0.3059,0.476 -0.1134,0.1355 -0.2154,0.3846 -0.3059,0.7472 -0.1811,0.2265 -0.2945,0.4416 -0.3398,0.6457 -0.0451,0.2038 -0.0905,0.3736 -0.1361,0.5097 -0.0451,0.1811 -0.1015,0.3736 -0.1698,0.5774 -0.0677,0.2038 -0.1471,0.3739 -0.2378,0.5097 l -0.2719,0.5436 c -0.0904,0.0905 -0.1471,0.1928 -0.1698,0.3059 -0.0224,0.1134 -0.034,0.1928 -0.034,0.2378 -0.045,0.1358 -0.0677,0.2492 -0.0677,0.3396 l -0.2722,0.476 c 0,0.0453 -0.011,0.0677 -0.0337,0.0677 -0.0229,0 -0.034,0.0454 -0.034,0.1361 l -0.4079,1.6988 v 0.3398 c 0,0.1361 -0.0224,0.2265 -0.0678,0.2719 0,0.1358 -0.034,0.2489 -0.1023,0.3399 -0.0677,0.0904 -0.1244,0.1811 -0.1698,0.2715 v 0.5437 c 0,0.2265 -0.045,0.4079 -0.1355,0.5434 -0.0456,0.2268 -0.0683,0.4309 -0.0683,0.612 v 1.7666 c 0.0456,0.0456 0.0683,0.1133 0.0683,0.2043 0.0905,0 0.1471,0.0221 0.1698,0.0678 0.0224,0.0451 0.0567,0.0677 0.1018,0.0677 0.0904,0.0454 0.2265,0.0683 0.4079,0.0683 0.0451,0 0.1018,-0.0116 0.1698,-0.0343 0.068,-0.0223 0.1925,-0.034 0.3739,-0.034 h 0.0677 c 0,0 0.0227,-0.045 0.0683,-0.1355 l 0.5434,-0.2043 0.8833,-0.6112 1.0874,-1.1554 c 0.0904,-0.1361 0.2038,-0.2494 0.3396,-0.3399 0.136,-0.0904 0.2721,-0.2038 0.4082,-0.3398 0.045,-0.0454 0.0677,-0.1131 0.0677,-0.2039 l 0.2719,-0.2718 0.2718,-0.4076 v -0.0678 c 0,-0.0456 0.0113,-0.0683 0.0337,-0.0683 0.0227,0 0.0343,-0.0227 0.0343,-0.0677 0.0905,-0.0905 0.1922,-0.1928 0.3056,-0.3059 0.1131,-0.1134 0.1925,-0.2154 0.2381,-0.3058 l 1.0871,-1.4948 c 0,0 0.0227,-0.0456 0.0677,-0.136 l 0.408,-0.7478 v 0.0683 c 0,-0.0907 0.0229,-0.136 0.068,-0.136 0.0453,0 0.068,-0.0227 0.068,-0.0678 0,-0.091 0.0224,-0.1587 0.0678,-0.2044 0.0456,-0.045 0.1134,-0.1131 0.2038,-0.2038 l 0.2721,-0.3396 0.2038,-0.4076 0.3396,-0.7475 -0.068,0.0678 0.2041,-0.6118 v 0.0684 c 0,-0.0457 0.0224,-0.0908 0.0677,-0.1361 0.0457,-0.0454 0.068,-0.0904 0.068,-0.1361 0,-0.0904 0.0227,-0.1811 0.0681,-0.2715 0.045,-0.091 0.0907,-0.1814 0.136,-0.2719 0.1355,-0.3172 0.2605,-0.612 0.3736,-0.8835 0.1134,-0.2719 0.1928,-0.5434 0.2379,-0.8156 l 0.2038,-0.5434 c 0,-0.1811 0.0113,-0.3625 0.0343,-0.5436 0.0221,-0.1815 0.0337,-0.3172 0.0337,-0.4079 0.0451,-0.0908 0.0567,-0.1245 0.034,-0.1018 -0.0226,0.0227 -0.034,-0.0567 -0.034,-0.2381 v -0.1355 c 0,0 0.0451,-0.0457 0.1361,-0.1361 0.0904,-0.1811 0.1355,-0.3172 0.1355,-0.4076 0,-0.0454 -0.0111,-0.1247 -0.0338,-0.2381 -0.0226,-0.1134 -0.0566,-0.1928 -0.1017,-0.2378 -0.091,-0.0905 -0.1588,-0.1358 -0.2041,-0.1358 h -0.068 c -0.0454,0 -0.0905,-0.0227 -0.1358,-0.0678 -0.4533,-0.2267 -0.6798,-0.4759 -0.6798,-0.7477 -0.045,0 -0.0677,-0.0908 -0.0677,-0.2719 -0.0904,-0.0453 -0.1471,-0.1358 -0.1698,-0.2718 -0.0227,-0.1361 -0.034,-0.2716 -0.034,-0.4077 v -0.5436 c 0,-0.0454 0.0113,-0.0907 0.034,-0.1358 0.0227,-0.0457 0.0337,-0.0907 0.0337,-0.1361 v -0.136 c 0,-0.0451 0.068,-0.1131 0.2038,-0.2039 0.0457,0 0.0907,-0.0226 0.1361,-0.0677 0.0904,-0.091 0.2265,-0.1361 0.4076,-0.1361 0.091,0 0.1814,0.0114 0.2719,0.034 0.0907,0.0227 0.2038,0.1021 0.3398,0.2376 l 0.2038,0.2044 c 0,0 0.0227,0.0224 0.0684,0.0677 0.1355,0.0904 0.2375,0.2038 0.3052,0.3399 0.0684,0.1358 0.1474,0.2942 0.2382,0.4756 l 0.2715,0.6115 c 0,0.0904 0.0116,0.136 0.034,0.136 0.0227,0 0.0343,0.0227 0.0343,0.0678 v 0.068 h 0.3399 c 0.0904,0.0451 0.2038,0.0907 0.3396,0.1361 0.1358,0.0451 0.2489,0.0677 0.3399,0.0677 h 0.3398 c 0.0905,0 0.1698,0.023 0.2376,0.0681 0.0677,0.0453 0.2154,0.0453 0.4419,0 0.1358,0 0.2716,-0.0451 0.4076,-0.1358 0.0451,0 0.1585,-0.0454 0.3399,-0.1361 0.0904,0 0.2038,-0.0227 0.3396,-0.068 0.1361,-0.0451 0.2718,-0.0907 0.4076,-0.1358 l 0.6798,-0.1358 0.3396,-0.136 c 0.136,-0.0454 0.2948,-0.0905 0.4759,-0.1361 0.1811,-0.0451 0.2492,-0.0677 0.2038,-0.0677 l 1.427,-0.7475 c 0.0453,0 0.1247,-0.0227 0.2381,-0.0681 0.1131,-0.045 0.2148,-0.0907 0.3058,-0.136 l 0.9511,-0.4077 0.4759,-0.2718 0.4076,-0.2038 c 0.0904,-0.0451 0.1588,-0.0678 0.2038,-0.0678 h 0.0681 l 0.136,-0.136 0.8153,-0.5437 0.4079,-0.3396 0.5434,-0.4759 0.8835,-0.5437 h 0.2038 c 0.0454,0 0.2039,0.0907 0.4757,0.2721 0.0456,0.1355 0.0456,0.2832 0,0.4414 -0.0454,0.1587 -0.1361,0.2831 -0.2718,0.3739 -0.2265,0.2718 -0.4754,0.4983 -0.7475,0.6794 l -0.8156,0.6117 c -0.2715,0.2716 -0.4643,0.4303 -0.5774,0.476 -0.1134,0.045 -0.3509,0.1808 -0.7135,0.4076 -0.1814,0.1358 -0.3852,0.2718 -0.6117,0.4073 -0.2268,0.1361 -0.4303,0.2495 -0.6114,0.3399 -0.4082,0.0907 -0.7024,0.2038 -0.8836,0.3399 -0.1358,0.0453 -0.2608,0.102 -0.3739,0.1698 -0.1134,0.0683 -0.1471,0.102 -0.1017,0.102 l -1.6988,0.6798 c -0.0907,0 -0.2722,0.045 -0.5437,0.136 -0.0904,0.0451 -0.1698,0.0905 -0.2381,0.1355 -0.0678,0.0454 -0.1471,0.0681 -0.2379,0.0681 l -1.087,0.3398 c -0.3626,0.1361 -0.7816,0.2265 -1.2575,0.2716 -0.4754,0.0456 -0.8716,0.0683 -1.1891,0.0683 -0.1812,0.0904 -0.2832,0.1131 -0.3056,0.0678 -0.0227,-0.0451 -0.0794,-0.0905 -0.1698,-0.1361 0,0.3625 -0.0227,0.589 -0.0683,0.6797 v 0.2382 c 0,0.0221 -0.0227,0.1014 -0.0678,0.2375 0,0.1361 -0.0226,0.2942 -0.0683,0.4759 -0.045,0.1809 -0.0677,0.3169 -0.0677,0.4074 -0.0454,0.0456 -0.0678,0.0907 -0.0678,0.136 v 0.0678 c 0,0.0456 -0.0116,0.091 -0.0343,0.136 -0.0224,0.0457 -0.034,0.1134 -0.034,0.2039 l -0.2038,0.8155 -0.2716,0.8155 -0.3395,0.8158 -0.4082,0.5434 0.136,-0.136 -0.2038,0.4759 c -0.136,0.1355 -0.2038,0.3169 -0.2038,0.5434 l -0.6117,0.8836 -0.2719,0.5434 c -0.0907,0.0907 -0.1357,0.1817 -0.1357,0.2721 l -0.3396,0.4756 -0.3399,0.4077 -0.2721,0.4759 h 0.136 l -0.8155,1.1548 c -0.2715,0.2722 -0.4303,0.453 -0.4759,0.544 l -0.6795,0.9513 c -0.0904,0.0904 -0.2149,0.2492 -0.3736,0.4757 -0.1585,0.2264 -0.2832,0.3849 -0.3736,0.4759 l -1.6991,1.5627 -1.0193,0.8153 -0.4076,0.3399 -0.7473,0.4079 h -1.2237 c -0.2262,0 -0.3849,-0.0454 -0.4753,-0.1361 v -0.1361 l -0.4757,-0.2035 c -0.1811,-0.1811 -0.2832,-0.2832 -0.3059,-0.3061 -0.0229,-0.0227 -0.034,-0.0564 -0.034,-0.1015 h -0.0677 c -0.1361,-0.1361 -0.2155,-0.2381 -0.2381,-0.3059 -0.0227,-0.0683 -0.034,-0.125 -0.034,-0.1701 0,-0.0453 -0.0111,-0.068 -0.0338,-0.068 -0.0229,0 -0.034,-0.0451 -0.034,-0.1358 v -0.2718 c -0.091,-0.453 -0.1361,-0.8606 -0.1361,-1.2232 -0.0453,-0.3625 -0.0564,-0.7134 -0.0337,-1.0533 0.0221,-0.3399 0.0788,-0.6911 0.1698,-1.0534 v -0.5777 c 0,-0.2038 0.0224,-0.4416 0.0678,-0.7134 v -0.4077 l 0.3398,-1.1554 c 0.0904,-0.1811 0.1361,-0.4076 0.1361,-0.6794 0,-0.1812 0.0227,-0.3172 0.0677,-0.4077 0,-0.0456 0.0454,-0.1471 0.1361,-0.3058 0.0904,-0.1588 0.1587,-0.2832 0.2038,-0.3739 0,-0.3169 0.0227,-0.4983 0.068,-0.5434 0.1355,0 0.2039,-0.0683 0.2039,-0.2038 l 0.2038,-0.6795 c 0,-0.2268 0.0904,-0.3855 0.2715,-0.4759 0.0454,-0.1361 0.091,-0.2948 0.1361,-0.4757 0.0453,-0.1811 0.1131,-0.3398 0.2038,-0.4759 0.0454,-0.0451 0.068,-0.1361 0.068,-0.2716 0.1361,-0.136 0.2038,-0.2718 0.2038,-0.4079 l 0.2038,-0.6114 c 0.0908,-0.1361 0.1361,-0.2605 0.1361,-0.3736 0,-0.1134 0.1811,-0.4876 0.5437,-1.1217 l 0.6117,-1.1551 v 0.068 l 0.2038,-0.5434 0.3396,-0.7477 v 0.068 c 0.0907,-0.091 0.1361,-0.2041 0.1361,-0.3399 l 0.8835,-1.631 c 0,-0.0451 0.0338,-0.1131 0.1015,-0.2039 0.0683,-0.0904 0.1021,-0.1587 0.1021,-0.2038 0.0907,-0.2265 0.17,-0.4189 0.2378,-0.5777 0.0683,-0.1584 0.2154,-0.3509 0.4419,-0.5777 l 0.2038,-0.5434 c 0.0454,-0.0907 0.0794,-0.1927 0.1021,-0.3058 0.0226,-0.1134 0.0793,-0.2152 0.1698,-0.3059 l 1.6991,-2.9222 c 0,0 0.0788,-0.1355 0.2375,-0.4076 0.1587,-0.2719 0.3509,-0.5664 0.5777,-0.8833 0.2265,-0.3172 0.4416,-0.6341 0.6454,-0.9516 0.2039,-0.3169 0.351,-0.5207 0.442,-0.6114 0.3622,-0.453 0.6454,-0.8266 0.8495,-1.1214 0.2038,-0.2943 0.4187,-0.6001 0.6452,-0.9173 l 0.3399,-0.5437 c 0.0909,-0.0904 0.1814,-0.2035 0.2721,-0.3396 0.0904,-0.1361 0.1808,-0.2948 0.2715,-0.4759 0.0907,-0.2265 0.2265,-0.453 0.4079,-0.6795 0.1812,-0.2265 0.385,-0.453 0.6115,-0.6795 0.091,-0.0907 0.1587,-0.2038 0.2041,-0.3398 0.045,-0.1361 0.1134,-0.2265 0.2038,-0.2716 l 0.4076,-0.6117 c 0.3626,-0.4076 0.6908,-0.8379 0.9853,-1.2912 0.2945,-0.453 0.6231,-0.8609 0.9856,-1.2234 l 0.6795,-0.9513 0.7475,-0.7472 0.6795,-0.9516 1.2231,-1.3593 0.9513,-1.0193 c 0.0454,-0.0904 0.068,-0.1582 0.068,-0.2038 l 0.5437,-0.5437 c 0.0905,-0.0904 0.1925,-0.1471 0.3059,-0.1698 0.1134,-0.0227 0.1698,-0.0794 0.1698,-0.1698 0.3172,-0.3172 0.6004,-0.5774 0.8495,-0.7818 0.2492,-0.2038 0.7586,-0.5096 1.529,-0.9173 0.1358,0 0.2489,-0.0226 0.3399,-0.0677 0.0904,0 0.1811,-0.0227 0.2716,-0.068 l -0.2038,-0.0681 z m -13.0473,16.5133 c -0.1358,0.1811 -0.4076,0.5547 -0.8152,1.1211 -0.4079,0.5663 -0.8496,1.178 -1.3252,1.8348 -0.476,0.6568 -0.9289,1.2915 -1.3592,1.9029 -0.4303,0.6117 -0.7362,1.0761 -0.9173,1.393 l 0.0677,-0.0678 0.4076,-0.3399 2.1748,-1.9026 2.1064,-2.0386 1.1554,-1.1554 0.1361,-0.2716 0.2038,-0.2721 0.3399,-0.4077 c 0.1808,-0.2264 0.3962,-0.4646 0.6454,-0.7137 0.2489,-0.2489 0.4643,-0.4643 0.6455,-0.6452 l 1.9709,-2.1747 0.8155,-1.0194 0.6795,-0.8158 0.4754,-0.6111 0.0683,-0.0683 c 0.0904,-0.0905 0.1134,-0.1355 0.0677,-0.1355 -0.0451,0 -0.0451,-0.023 0,-0.0684 0,-0.0904 0.034,-0.1581 0.1021,-0.2038 0.068,-0.045 0.17,-0.136 0.3058,-0.2715 l 0.5437,-0.8839 c 0,0 0.0224,-0.045 0.0678,-0.1355 l 0.2038,-0.3398 0.2721,-0.4079 0.951,-1.4947 0.2044,-0.3399 0.5434,-1.1554 c 0.0451,-0.0454 0.1358,-0.2492 0.2716,-0.6117 v 0.0683 c 0,-0.0907 0.0226,-0.1588 0.0683,-0.2038 0.045,-0.0457 0.0677,-0.091 0.0677,-0.1361 0,-0.0454 0.034,-0.102 0.1021,-0.1698 0.0677,-0.0683 0.1244,-0.1474 0.17,-0.2381 l 0.5434,-1.3592 v -0.1355 c -0.2718,0.0904 -0.4983,0.2035 -0.6794,0.3396 -0.1814,0.1358 -0.3399,0.2715 -0.476,0.4076 l -1.2231,1.2231 -0.3396,0.408 -0.612,0.6791 c -0.1808,0.1361 -0.3169,0.2611 -0.4073,0.3742 -0.0907,0.1134 -0.1812,0.2378 -0.2719,0.3736 -0.0453,0.0907 -0.1131,0.1701 -0.2041,0.2378 -0.0904,0.0681 -0.1581,0.1472 -0.2038,0.2382 -0.2265,0.1811 -0.4076,0.3619 -0.5434,0.5434 -0.136,0.1811 -0.2494,0.3398 -0.3399,0.4753 l -0.3398,0.476 -0.8156,1.0193 -0.6794,1.0193 -1.2912,1.5631 -0.7478,1.0193 c -0.2259,0.2265 -0.4187,0.487 -0.5774,0.7815 -0.1582,0.2945 -0.3509,0.5548 -0.5774,0.7815 v 0.2038 c -0.1361,0.1358 -0.2038,0.2265 -0.2038,0.2719 l -0.4757,0.5437 c -0.0907,0.0904 -0.136,0.2038 -0.136,0.3396 l -0.6118,0.8158 0.0681,-0.1361 z m 7.6791,8.6303 c 0,0.0454 -0.0227,0.0678 -0.0678,0.0678 z m 10.8728,-7.3394 c 0.1355,0 0.2716,0.0343 0.4077,0.1023 0.1357,0.0677 0.2718,0.1471 0.4073,0.2375 0.1817,0 0.3175,0.0905 0.4082,0.2722 0.1358,0.0904 0.2038,0.1808 0.2038,0.2715 0,0.1361 0.0337,0.2265 0.102,0.2719 0.0678,0.0456 0.1018,0.136 0.1018,0.2721 v -0.0683 c 0.1814,0.3172 0.2492,0.6003 0.2038,0.8495 -0.0451,0.2492 -0.1134,0.487 -0.2038,0.7135 l -0.4759,0.6117 -0.6115,0.8155 c -0.0453,0.0451 -0.1131,0.1134 -0.2038,0.2038 -0.0907,0.0908 -0.1587,0.1812 -0.2041,0.2716 -0.045,0.0456 -0.0677,0.091 -0.0677,0.1361 -0.0904,0.0904 -0.1361,0.136 -0.1361,0.136 0,0 -0.0451,0.0454 -0.136,0.1361 -0.1809,0.2716 -0.362,0.6452 -0.5434,1.1208 -0.1812,0.4759 -0.3172,0.8496 -0.4077,1.1217 l -0.2721,0.8833 c 0,0.0904 -0.0111,0.1471 -0.0337,0.1698 -0.0227,0.0229 -0.034,0.0793 -0.034,0.17 0,0.0905 0.0226,0.2038 0.0677,0.3396 0,0.0907 0.0116,0.1812 0.0343,0.2719 0.0224,0.0907 0.034,0.1814 0.034,0.2718 l 0.2038,0.4076 v -0.0677 c 0,-0.0907 0.0678,-0.0678 0.2038,0.0677 h -0.0677 l 0.4756,0.3399 h 0.2716 c 0.0456,0 0.0907,0.0227 0.1361,0.068 0.045,0.0451 0.0904,0.0678 0.136,0.0678 0.0451,-0.0904 0.0905,-0.1131 0.1355,-0.0678 0.0454,0.0451 0.1134,0.0678 0.2041,0.0678 0.0907,-0.0904 0.2038,-0.1358 0.3399,-0.1358 h 0.3399 c 0.0904,0 0.1471,-0.0224 0.1698,-0.068 0.0224,-0.0454 0.0791,-0.0678 0.1698,-0.0678 l 0.5436,-0.136 0.4077,-0.1358 0.6117,-0.3399 1.2909,-0.8833 0.6797,-0.4076 c 0.2265,-0.2265 0.4419,-0.4419 0.6458,-0.6457 0.2038,-0.2038 0.4189,-0.3736 0.6454,-0.5097 l 0.6798,-0.6117 2.3779,-2.2425 c 0.091,-0.1361 0.1928,-0.2151 0.3059,-0.2378 0.1134,-0.0227 0.2832,-0.0794 0.5097,-0.1698 l 0.3398,0.2715 c 0.1812,0.2265 0.2265,0.3853 0.1361,0.4757 -0.0907,0.0907 -0.2038,0.2494 -0.3399,0.4759 -0.7701,0.6795 -1.2911,1.2005 -1.563,1.5631 -0.2718,0.3622 -0.5661,0.7021 -0.8833,1.0193 0,0 -0.0453,0.0453 -0.136,0.1358 l -0.1358,0.136 -1.563,1.2232 -0.476,0.4754 c -0.498,0.3174 -1.0077,0.6573 -1.529,1.0193 -0.5207,0.3625 -1.0304,0.6117 -1.529,0.7478 -0.0451,0 -0.0904,0.0224 -0.1355,0.0677 -0.0456,0.0457 -0.1134,0.0681 -0.2038,0.0681 -0.2721,0.0907 -0.6117,0.1357 -1.0193,0.1357 -0.1361,0.0457 -0.3626,0.0683 -0.6798,0.0683 0,0.0905 -0.0907,0.1355 -0.2718,0.1355 -0.1361,0 -0.2492,-0.0221 -0.3399,-0.0677 -0.0904,-0.0454 -0.3169,-0.0904 -0.6795,-0.1361 l 0.0681,0.0683 c -0.0454,0 -0.0907,-0.0226 -0.1358,-0.0683 h -0.0683 l -0.4754,-0.2715 c -0.2721,-0.1814 -0.4986,-0.419 -0.6795,-0.7135 -0.1817,-0.2945 -0.2948,-0.5777 -0.3398,-0.8493 -0.0454,-0.3625 -0.091,-0.714 -0.1361,-1.0539 -0.0453,-0.3393 0.0227,-0.7583 0.2038,-1.2569 v -0.0677 l -0.4076,0.2715 -0.5434,0.4757 c -0.1817,0.2265 -0.4193,0.4076 -0.7141,0.5437 -0.2942,0.136 -0.5547,0.2718 -0.7812,0.4079 l -0.136,0.0677 c -0.3626,0.2265 -0.6685,0.3853 -0.9173,0.476 -0.2492,0.0904 -0.4646,0.1811 -0.6455,0.2715 -0.0456,0 -0.0907,0.0116 -0.136,0.0343 -0.0451,0.0224 -0.0908,0.0338 -0.1361,0.0338 -0.0904,0.045 -0.1698,0.045 -0.2376,0 -0.068,-0.0454 -0.17,-0.0681 -0.3061,-0.0681 l -0.3396,0.0681 c -0.1361,0 -0.2945,-0.0681 -0.4759,-0.2036 -0.1809,-0.0456 -0.2832,-0.0683 -0.3053,-0.0683 -0.023,0 -0.0567,-0.1134 -0.1023,-0.3399 0,-0.0904 -0.0338,-0.1471 -0.1015,-0.1698 -0.0683,-0.0226 -0.1021,-0.0566 -0.1021,-0.1017 l 0.1358,-0.9516 0.2716,-0.5434 -0.1358,0.0677 0.2041,-0.4753 0.3399,-0.6117 0.5434,-0.8159 c 0.045,-0.045 0.0677,-0.1131 0.0677,-0.2038 l 0.3399,-0.4756 1.563,-1.9707 -0.1361,0.0681 c 0.091,-0.0907 0.1815,-0.1701 0.2722,-0.2379 0.0904,-0.0677 0.1808,-0.1471 0.2718,-0.2375 l 0.8833,-0.7478 0.5437,-0.4759 -0.0678,0.136 1.2232,-0.8832 c 0.2265,-0.1812 0.623,-0.3626 1.1891,-0.5437 0.5664,-0.1812 1.0307,-0.2721 1.3932,-0.2721 z m -7.2034,8.0866 c -0.0904,0.1817 -0.0904,0.2832 0,0.3062 0.0905,0.0226 0.2376,-0.0114 0.4414,-0.1018 0.2044,-0.091 0.4308,-0.2044 0.6797,-0.3399 0.2492,-0.136 0.442,-0.2491 0.5777,-0.3398 0.6798,-0.4079 1.2572,-0.7816 1.7329,-1.1214 0.4759,-0.3399 0.9629,-0.7589 1.4609,-1.2569 l 1.0877,-1.0877 0.1355,-0.1355 c 0.091,-0.1817 0.2041,-0.3398 0.3399,-0.4759 0.136,-0.1361 0.2491,-0.2948 0.3395,-0.4756 l 0.7478,-0.9514 c -0.0453,-0.0453 -0.0564,-0.102 -0.0343,-0.1698 0.023,-0.0683 0.0343,-0.1476 0.0343,-0.2381 l -0.2718,-0.2715 h -0.476 c -0.2715,0 -0.5207,0.0904 -0.7472,0.2715 l -0.5437,0.2719 c -0.0904,0.0451 -0.2038,0.1134 -0.3395,0.2038 -0.2722,0.1811 -0.4533,0.2945 -0.5437,0.3399 0,0 -0.0227,0.0453 -0.0683,0.136 l -0.8833,0.7472 c -0.0904,0.0908 -0.2149,0.2155 -0.3736,0.3739 -0.1588,0.1588 -0.2832,0.2603 -0.3739,0.3059 -0.0904,0.2718 -0.2719,0.453 -0.5434,0.5434 l -0.1361,0.3399 -1.1554,1.3592 -0.5434,0.8155 -0.4759,0.6795 z"
     id="path6" />
  <path
     style="fill:#ffffff;fill-rule:evenodd"
     inkscape:connector-curvature="0"
     d="m 325.4754,423.6191 c 0.1355,0.0904 0.2038,0.1582 0.2038,0.2038 0.0451,0.0904 0.0678,0.2375 0.0678,0.4416 v 0.4417 c 0,0.0904 -0.0111,0.2154 -0.034,0.3736 -0.0227,0.1587 -0.0564,0.2832 -0.1021,0.3739 0,0.0453 -0.0224,0.102 -0.0677,0.1698 -0.0454,0.068 -0.0678,0.1247 -0.0678,0.1698 -0.0456,0.091 -0.0683,0.2043 -0.0683,0.3398 l -0.2038,0.6795 -1.2909,2.9222 -0.2041,0.4757 c -0.0907,0.0907 -0.1358,0.1587 -0.1358,0.2038 l -0.1357,0.1361 c -0.0908,0.0904 -0.1361,0.1811 -0.1361,0.2718 l -0.2038,0.6798 c -0.1361,0.0904 -0.2038,0.1811 -0.2038,0.2715 l -0.2722,0.4757 v 0.2715 c -0.1808,0.1817 -0.2715,0.3175 -0.2715,0.4082 l -1.7671,2.7862 v -0.1361 c -0.0905,0.1361 -0.1809,0.2602 -0.2716,0.3736 -0.091,0.1134 -0.1587,0.2381 -0.2041,0.3742 -0.0904,0.0904 -0.1584,0.1471 -0.2038,0.1698 -0.0451,0.0224 -0.1134,0.2149 -0.2038,0.5774 l -0.4757,0.6798 c -0.0907,0.0904 -0.1924,0.2148 -0.3055,0.3736 -0.1134,0.1587 -0.1698,0.2832 -0.1698,0.3736 l -0.8158,0.9516 c 0.0907,-0.0454 0.0793,0 -0.0338,0.136 -0.1134,0.1355 -0.2154,0.2489 -0.3058,0.3399 l -0.2038,0.3396 -0.8836,1.1551 -0.9513,1.0874 -0.6798,0.8152 -0.0677,0.2038 -0.9516,1.1554 -0.4076,0.4079 h 0.0677 l -1.2909,1.359 -1.2911,1.3589 -0.8159,0.8155 -0.3396,0.4077 -0.2715,0.4081 0.0677,-0.0683 -0.2715,0.7478 -0.2721,0.5437 -0.4757,1.3589 c -0.0907,0.1361 -0.1358,0.3172 -0.1358,0.5437 l 0.0681,-0.0677 c 0.0453,0 0.1131,-0.0457 0.2035,-0.1361 0.0907,-0.0904 0.1817,-0.1814 0.2721,-0.2718 0.0904,-0.0908 0.2038,-0.1812 0.3399,-0.2719 0.2265,-0.1814 0.453,-0.3963 0.6794,-0.6454 0.2265,-0.2495 0.4303,-0.4644 0.6115,-0.6458 l 1.9026,-2.1064 c 0.3172,-0.2721 0.6117,-0.5664 0.8835,-0.8836 0.2719,-0.3169 0.544,-0.6567 0.8156,-1.0193 l 1.2231,-1.2912 1.0194,-1.0873 0.3398,-0.2719 0.6118,-0.5437 0.2715,-0.4753 0.7478,-0.544 -0.1361,0.1361 0.476,-0.3399 0.2715,-0.2716 c 0.0454,0 0.0905,-0.0227 0.1358,-0.0683 0.0907,-0.0904 0.1587,-0.1358 0.2038,-0.1358 l 0.4082,-0.3399 0.2716,-0.2038 -0.0678,0.0684 0.4754,-0.2722 -0.068,0.1361 c -0.0905,0.1361 -0.0338,0.0904 0.17,-0.1361 0.2038,-0.2265 0.3736,-0.3849 0.5097,-0.4756 0.0904,0 0.1587,-0.0224 0.2038,-0.0681 0.0454,-0.0453 0.1131,-0.0904 0.2038,-0.1357 h 0.0681 c 0,0 0.0907,-0.0451 0.2715,-0.1361 0.0457,-0.0451 0.1588,-0.0677 0.3399,-0.0677 0.091,0 0.1477,-0.0114 0.1698,-0.0341 0.0229,-0.0226 0.0567,-0.0337 0.1023,-0.0337 h 0.5434 c 0,0.0451 0.0227,0.0678 0.0678,0.0678 h 0.136 c 0.0457,0 0.0905,0.0226 0.1361,0.0677 l 0.2038,0.2041 c 0.0454,0.1358 0.068,0.2489 0.068,0.3396 0.0907,0.1358 0.1358,0.2718 0.1358,0.4079 v 0.6795 c -0.0907,0.136 -0.1358,0.3398 -0.1358,0.6114 l -0.2718,0.6117 c -0.0904,0.2265 -0.2038,0.5097 -0.3399,0.8495 -0.136,0.3399 -0.2942,0.6231 -0.4756,0.8496 l -0.4754,0.6795 -0.2721,0.3398 -0.2038,0.2038 -0.3396,0.6115 -0.1361,0.068 c -0.1811,0.2716 -0.3399,0.4303 -0.4759,0.4759 0.0456,0 0.034,0.0338 -0.0338,0.1015 -0.0677,0.0683 -0.1244,0.125 -0.17,0.1701 -0.1358,0.0904 -0.2603,0.1814 -0.3736,0.2718 -0.1132,0.0908 -0.2376,0.2039 -0.3737,0.3399 l -0.7477,0.6795 v 0.0677 c 0,0.0457 0.0116,0.0683 0.0343,0.0683 0.0224,0 0.0337,0.0451 0.0337,0.1355 0.0907,0.1817 0.1361,0.3853 0.1361,0.612 0,0.0905 0.0224,0.1809 0.0677,0.2716 0.0456,0.0907 0.068,0.1814 0.068,0.2718 0.0454,0.5437 0.2265,1.1101 0.544,1.6991 0.0451,0.1358 0.0788,0.2265 0.1015,0.2716 0.0229,0.0453 0.0567,0.1131 0.1023,0.2041 l 0.3396,0.3399 0.4754,0.3398 c 0.2265,0.0451 0.4308,0.0905 0.6117,0.1355 0.1811,0.0454 0.3399,0.0681 0.4759,0.0681 0.2265,0 0.4643,-0.0227 0.7135,-0.0681 0.2492,-0.045 0.487,-0.1134 0.7135,-0.2038 0.2718,-0.0904 0.5664,-0.1811 0.8833,-0.2715 0.3172,-0.091 0.6346,-0.2492 0.9516,-0.476 l 0.8152,-0.3396 0.544,-0.4076 c 0.362,-0.1814 0.6794,-0.3625 0.951,-0.544 0.2721,-0.1811 0.5664,-0.4303 0.8836,-0.7475 0.2718,-0.1811 0.555,-0.3736 0.8492,-0.5774 0.2948,-0.2041 0.5553,-0.4192 0.7818,-0.6457 l 0.4757,-0.4757 h 0.2038 c 0.045,0 0.1584,0.1361 0.3398,0.4079 v 0.2716 c -0.136,0.1361 -0.2264,0.2942 -0.2718,0.4759 -0.1361,0.2716 -0.2945,0.4981 -0.4759,0.6795 -0.0905,0.0904 -0.2716,0.2265 -0.5437,0.4076 -0.2716,0.1814 -0.453,0.3399 -0.5434,0.4757 -0.0457,0 -0.0678,0.0229 -0.0678,0.0677 l -0.5439,0.3399 -0.3396,0.3399 -0.4757,0.2038 -0.6794,0.6117 -0.5437,0.3399 -0.476,0.1358 c -0.2718,0.136 -0.4756,0.2718 -0.6117,0.4076 -0.0451,0 -0.0677,0.0116 -0.0677,0.034 0,0.0227 -0.0227,0.0343 -0.0678,0.0343 h -0.0683 l -0.8833,0.4076 c -0.0904,0 -0.1698,0.0227 -0.2378,0.0678 -0.068,0.0453 -0.1474,0.0683 -0.2378,0.0683 -0.4984,0.1808 -1.1778,0.2715 -2.039,0.2715 h -0.4413 c -0.1588,0 -0.3515,-0.0229 -0.578,-0.068 -0.0904,-0.0904 -0.2376,-0.1584 -0.4414,-0.2035 -0.2038,-0.0457 -0.3509,-0.1361 -0.4419,-0.2721 -0.1811,-0.0905 -0.3623,-0.2265 -0.5437,-0.4077 -0.1808,-0.1814 -0.3169,-0.3398 -0.4076,-0.4756 l -0.2035,-0.3399 c 0,-0.0904 -0.0683,-0.2038 -0.2044,-0.3399 l -0.3399,-1.1554 c 0,-0.3169 -0.0451,-0.6568 -0.1355,-1.0193 0,-0.0451 -0.068,-0.1355 -0.2041,-0.2716 v -0.2718 c 0,-0.0907 -0.0224,-0.1811 -0.0677,-0.2716 l -0.1361,-0.2043 c -0.0451,0.0909 -0.0907,0.136 -0.136,0.136 -0.0451,0 -0.0678,0.0116 -0.0678,0.034 0,0.0227 -0.0454,0.0343 -0.1361,0.0343 0,0.0905 -0.1131,0.1355 -0.3398,0.1355 l 0.0683,-0.0677 c -0.1361,0.0904 -0.3399,0.136 -0.6117,0.136 l -0.0678,-0.0683 c -0.0456,0 -0.1134,-0.045 -0.2038,-0.1355 l -0.4082,-0.3398 v -0.5437 c 0,-0.0907 0.0116,-0.2041 0.034,-0.3396 0.0227,-0.1361 0.1021,-0.2948 0.2381,-0.476 0,-0.0453 0.0227,-0.0904 0.0678,-0.136 0.0456,-0.0454 0.0907,-0.1131 0.1361,-0.2035 l 0.3398,-0.3399 0.4757,-0.1361 c 0.0451,0 0.1017,-0.011 0.1698,-0.034 0.068,-0.0227 0.1474,-0.0337 0.2378,-0.0337 l 0.4757,0.2715 c 0.0907,0 0.136,0.0116 0.136,0.034 0,0.0227 0.0224,0.0343 0.0678,0.0343 0.0907,-0.0456 0.1927,-0.0793 0.3058,-0.1023 0.1134,-0.0227 0.2152,-0.0794 0.3062,-0.1698 0.1355,-0.136 0.2829,-0.2718 0.4413,-0.4076 0.1588,-0.1361 0.3059,-0.2948 0.4419,-0.4757 l 0.5434,-0.5436 0.4077,-0.4757 0.4759,-0.4759 0.3396,-0.4077 c 0,0 0.023,-0.0453 0.068,-0.1357 l 0.6117,-1.0197 0.3399,-0.5434 -0.068,0.0678 0.2715,-0.6114 c -0.1357,0 -0.2602,0.034 -0.3736,0.1017 -0.1131,0.0683 -0.2375,0.1247 -0.3736,0.1698 -0.2265,0.091 -0.4646,0.2265 -0.7134,0.4082 -0.2492,0.1809 -0.4873,0.3626 -0.7138,0.5434 l -0.4076,0.2038 -0.1361,0.1361 -0.6114,0.5437 c -0.0905,0.0904 -0.2038,0.1808 -0.3399,0.2718 -0.1358,0.0904 -0.2265,0.1811 -0.2718,0.2716 l -0.6115,0.6117 -1.0876,0.9513 -0.2716,0.2718 c -0.1358,0.1812 -0.3059,0.3399 -0.5097,0.476 -0.2038,0.1355 -0.3512,0.3169 -0.4419,0.5437 -0.3169,0.3169 -0.589,0.6111 -0.8155,0.8832 -0.2265,0.2719 -0.4754,0.5434 -0.7472,0.8156 l -0.8156,0.8152 h 0.0681 c -0.2265,0.1814 -0.4303,0.3852 -0.6117,0.6117 -0.1812,0.2265 -0.3626,0.4076 -0.5437,0.5437 v -0.068 c -0.2265,0.4983 -0.6341,0.9966 -1.2232,1.495 l -1.5627,1.6988 c -0.4533,0.4529 -0.7475,0.7024 -0.8836,0.7477 v -0.0683 c -0.2265,0.1361 -0.3852,0.2038 -0.4756,0.2038 -0.0457,0 -0.0794,0.0227 -0.1021,0.0684 -0.0224,0.045 -0.1244,0.0677 -0.3055,0.0677 -0.091,0 -0.1698,-0.034 -0.2382,-0.1018 -0.0677,-0.068 -0.1698,-0.1474 -0.3058,-0.2381 -0.0451,-0.045 -0.0678,-0.0904 -0.0678,-0.1357 -0.0456,-0.0451 -0.0677,-0.1585 -0.0677,-0.3399 0,-0.0904 -0.0116,-0.1585 -0.0343,-0.2038 -0.0224,-0.0451 -0.034,-0.1585 -0.034,-0.3399 v -0.3396 c 0,-0.0907 0.0116,-0.1358 0.034,-0.1358 0.0227,0 0.0343,-0.0453 0.0343,-0.136 0,-0.1815 0.0221,-0.317 0.0677,-0.4079 0,-0.1355 0.0227,-0.2832 0.0678,-0.4414 0.0453,-0.1587 0.0683,-0.2832 0.0683,-0.3739 l 0.3396,-1.0193 c 0,0.045 0.0227,0.0229 0.0677,-0.0681 0.0457,-0.0907 0.0684,-0.1584 0.0684,-0.2038 0,-0.3625 0.0904,-0.8155 0.2715,-1.3592 0.1814,-0.5437 0.3852,-1.0193 0.6117,-1.4269 l 0.6798,-1.5631 c 0,-0.0904 0.0677,-0.2038 0.2038,-0.3396 0.1358,-0.3625 0.2375,-0.6117 0.3058,-0.7475 0.0678,-0.136 0.1472,-0.2948 0.2376,-0.4756 v 0.0677 l 1.4953,-3.058 1.6988,-2.8539 0.3398,-0.5437 0.4754,-0.9516 c 0,-0.0904 0.0343,-0.1581 0.1021,-0.2038 0.0677,-0.0453 0.102,-0.0904 0.102,-0.1358 l 0.4754,-0.6114 -0.1355,0.0678 0.4076,-0.6118 c 0.0451,-0.0907 0.0794,-0.1922 0.1018,-0.3055 0.0226,-0.1134 0.102,-0.2382 0.2381,-0.3736 l 0.4073,-0.6798 c 0.0907,-0.1814 0.2038,-0.3739 0.3399,-0.5777 0.1361,-0.2038 0.3625,-0.6004 0.6797,-1.1894 0.3623,-0.5885 0.7699,-1.1548 1.2232,-1.6988 0.453,-0.5437 0.8833,-1.1101 1.2912,-1.6985 l 1.2909,-1.6991 0.2038,-0.3396 c 0.3625,-0.2721 0.6117,-0.612 0.7478,-1.0196 l 0.4759,-0.4757 0.6795,-0.8833 0.2715,-0.2721 0.6117,-0.7472 h 0.0681 c 0.0453,0 0.1357,-0.068 0.2718,-0.2038 l 0.3399,-0.1361 0.4076,-0.2038 c 0.0454,0 0.0794,0.0111 0.1021,0.034 0.0223,0.0227 0.0566,0.0338 0.1017,0.0338 l 0.068,0.0683 z m -15.2223,23.2407 0.6117,-0.7478 1.9707,-2.2425 0.5436,-0.6114 c 0.0454,-0.0904 0.1021,-0.1698 0.1698,-0.2378 0.0684,-0.0681 0.1248,-0.1474 0.1698,-0.2382 l 1.0194,-1.2231 c 0.0907,-0.0904 0.1927,-0.2152 0.3058,-0.3736 0.1134,-0.1588 0.2155,-0.3512 0.3062,-0.5777 l 0.4073,-0.4076 c 0,-0.0907 0.1474,-0.3283 0.4419,-0.7135 0.2946,-0.3852 0.5097,-0.6684 0.6458,-0.8496 l -0.0681,0.1361 0.3396,-0.4759 0.6798,-0.8833 0.0677,-0.1361 c -0.0907,0.0907 -0.0677,0.034 0.0681,-0.1698 0.136,-0.2038 0.2494,-0.3736 0.3398,-0.5096 l 0.476,-0.5437 c 0,-0.0904 0.0904,-0.2038 0.2715,-0.3396 l 0.1358,-0.3399 c 0,-0.0907 0.034,-0.1587 0.1023,-0.2038 0.0678,-0.0456 0.1015,-0.0904 0.1015,-0.1361 l 0.2721,-0.3398 c 0.1361,-0.1809 0.2605,-0.3847 0.3737,-0.6112 0.1133,-0.2268 0.2605,-0.4986 0.4416,-0.8158 l 0.7478,-1.0871 0.1357,-0.4079 c 0.1358,-0.2715 0.2832,-0.5097 0.4417,-0.7135 0.1587,-0.2038 0.2602,-0.3965 0.3058,-0.5774 0,-0.091 0.0454,-0.2044 0.1361,-0.3399 0.0451,-0.091 0.1015,-0.1924 0.1698,-0.3058 0.0677,-0.1134 0.1471,-0.2155 0.2375,-0.3059 v 0.0681 c 0,-0.0908 0.0117,-0.1698 0.0341,-0.2382 0.0226,-0.0677 0.0343,-0.1471 0.0343,-0.2375 l 0.4076,-0.7478 0.3399,-0.7475 c 0.0904,-0.2718 0.1924,-0.6001 0.3058,-0.9853 0.1131,-0.3849 0.2149,-0.6908 0.3053,-0.9173 -0.0451,0.0454 -0.0677,0.0678 -0.0677,0.0678 l -0.4757,0.5439 c -0.0451,0.0907 -0.0907,0.1701 -0.1361,0.2379 -0.045,0.0677 -0.1133,0.1471 -0.2038,0.2375 l -0.8152,1.0193 -1.2912,1.5631 c -0.2265,0.2721 -0.4986,0.6117 -0.8155,1.0193 -0.3172,0.4079 -0.7022,0.9743 -1.1551,1.6991 l -0.4757,0.7472 c -0.1361,0.2265 -0.2832,0.4873 -0.4419,0.7818 -0.1585,0.2942 -0.4193,0.6684 -0.7812,1.1214 l -0.8836,1.4947 c -0.0907,0.0907 -0.2041,0.2492 -0.3396,0.4759 -0.1361,0.2265 -0.2948,0.4984 -0.4759,0.8156 v -0.0684 l -0.5434,1.0194 -0.2722,0.5437 -0.3398,0.5439 0.0683,-0.136 -0.6795,1.1551 -0.8158,1.3589 -0.8155,1.4275 v -0.0683 z m 58.102,-16.5132 h 0.8839 c 0.2715,0 0.5658,0.0226 0.8832,0.0677 0.3172,0.0456 0.6115,0.0683 0.8836,0.0683 h 0.8833 c 0.0904,0 0.2265,0.0788 0.4076,0.2376 0.1814,0.1587 0.2718,0.2831 0.2718,0.3738 v 0.408 c -0.0904,0.1354 -0.2381,0.2831 -0.4419,0.4413 -0.2038,0.1587 -0.3963,0.2381 -0.5774,0.2381 -0.453,-0.0453 -0.8949,-0.0794 -1.3252,-0.102 -0.4303,-0.0227 -0.8719,-0.034 -1.3249,-0.034 -0.6795,-0.0454 -1.2458,-0.0681 -1.6988,-0.0681 H 364.21 c -0.5887,0 -1.3592,0.0227 -2.3105,0.0681 -0.7699,0.0907 -1.5063,0.17 -2.2085,0.2378 -0.7024,0.0683 -1.3929,0.1247 -2.0727,0.1698 -0.0904,0 -0.2038,0.0229 -0.3398,0.0677 -0.2265,0 -0.4074,0.023 -0.5434,0.0683 -0.0908,0 -0.1815,0.0111 -0.2722,0.0341 -0.0904,0.0226 -0.2038,0.0337 -0.3396,0.0337 -0.2718,0.0456 -0.5663,0.0907 -0.8835,0.1361 -0.3169,0.0453 -0.5891,0.0677 -0.8155,0.0677 -0.2265,0.091 -0.5208,0.1477 -0.8833,0.1701 -0.3623,0.0227 -0.7248,0.0793 -1.0871,0.1698 -0.1361,0.0453 -0.2605,0.0567 -0.3739,0.0343 -0.1131,-0.0227 -0.3512,0.011 -0.7135,0.1017 l -1.9709,0.4757 c -0.0904,0 -0.1698,0.011 -0.2376,0.034 -0.0683,0.0227 -0.1471,0.0337 -0.2381,0.0337 -0.0907,0.091 -0.2715,0.1361 -0.5436,0.1361 -0.0905,0 -0.1582,0.0116 -0.2039,0.034 -0.0453,0.0227 -0.1131,0.0343 -0.2038,0.0343 l -3.058,0.6795 -0.7472,0.8152 -1.6991,2.1748 c -0.2265,0.4076 -0.487,0.7812 -0.7815,1.1211 -0.2945,0.3396 -0.5777,0.6911 -0.8495,1.0536 l -1.8346,2.0381 c -0.3626,0.4986 -0.7251,0.9289 -1.0877,1.2915 l -1.0187,1.1554 -0.7478,0.951 -0.8156,0.8155 c -0.4983,0.3626 -0.9286,0.7365 -1.2911,1.1211 -0.3626,0.3853 -0.7249,0.7592 -1.0871,1.1217 l -0.6795,0.951 -0.544,0.9516 c -0.0907,0.0904 -0.1357,0.1361 -0.1357,0.1361 -0.0454,0.0451 -0.0681,0.0904 -0.0681,0.1358 0,0.1357 -0.0226,0.2267 -0.0677,0.2718 -0.1361,0.2265 -0.2038,0.3852 -0.2038,0.4757 -0.0457,0.0904 -0.0683,0.2715 -0.0683,0.5436 0,0.0454 -0.0111,0.1021 -0.0341,0.1698 -0.0226,0.0678 -0.0337,0.1472 -0.0337,0.2379 0,0.0453 -0.0227,0.102 -0.0677,0.1698 -0.0457,0.068 -0.0684,0.1698 -0.0684,0.3058 0,0.0454 0.0227,0.1021 0.0684,0.1698 0.045,0.0683 0.0677,0.125 0.0677,0.1701 l -0.0677,0.068 h 0.0677 c 0,0.0907 0.0111,0.1585 0.0337,0.2038 0.023,0.0451 0.0567,0.1134 0.1024,0.2038 0.045,0.2722 0.2489,0.4077 0.6111,0.4077 0.1361,0.1814 0.4986,0.2718 1.0877,0.2718 0.2715,0.0451 0.6341,-0.0453 1.0871,-0.2718 l 0.7475,-0.2716 c 0.136,-0.0907 0.3398,-0.1814 0.6117,-0.2721 0.2715,-0.0904 0.453,-0.1358 0.5437,-0.1358 0.0453,0 0.0904,-0.0224 0.1357,-0.068 0.0451,0 0.0681,-0.0111 0.0681,-0.0338 0,-0.0226 0.0226,-0.034 0.068,-0.034 l 0.3399,-0.136 h 0.2038 l 0.3399,-0.2719 0.5434,-0.4076 c 0.045,0 0.0907,-0.0116 0.136,-0.0337 0.0451,-0.023 0.1812,-0.0794 0.4076,-0.1701 l 0.6118,-0.3399 h -0.0683 l 0.6797,-0.4079 -0.0677,0.0683 0.4076,-0.2721 c 0.0904,-0.1361 0.2035,-0.2492 0.3396,-0.3396 0.136,-0.0907 0.2721,-0.1811 0.4076,-0.2718 0.091,0 0.1927,-0.0454 0.3058,-0.1358 0.1134,-0.0907 0.1928,-0.1588 0.2382,-0.2038 l 0.5436,-0.2722 -0.2038,0.0678 c 0.0905,-0.1355 0.2149,-0.2376 0.3736,-0.3053 0.1585,-0.0683 0.2832,-0.1477 0.3736,-0.2381 0.0457,0 0.0907,-0.034 0.1361,-0.1018 0.0451,-0.0683 0.0907,-0.102 0.1358,-0.102 0.3172,-0.4076 0.6344,-0.7248 0.9513,-0.9513 l 0.5437,-0.4757 v 0.1361 c 0.1814,-0.1814 0.3398,-0.2721 0.4756,-0.2721 0.0457,0 0.0794,-0.0227 0.1024,-0.0678 0.0221,-0.0453 0.1014,-0.0683 0.2375,-0.0683 0.3172,0 0.4759,0.1817 0.4759,0.5437 l -0.2721,0.2721 c 0,0.1358 -0.0677,0.2718 -0.2038,0.4073 l -0.9516,0.8836 -0.8149,0.8155 -0.6798,0.4079 -0.4756,0.4754 c -0.0908,0 -0.1928,0.0456 -0.3059,0.1361 -0.1134,0.0904 -0.1928,0.1811 -0.2378,0.2718 l -1.0877,0.9513 v -0.136 c -0.1808,0.1814 -0.3169,0.2721 -0.4073,0.2721 l -0.0681,0.1358 c -0.0904,0.0907 -0.2038,0.136 -0.3395,0.136 -0.0908,0.0907 -0.1928,0.1585 -0.3059,0.2038 -0.1134,0.0451 -0.2154,0.1134 -0.3061,0.2038 -0.2716,0.1812 -0.4303,0.2722 -0.4757,0.2722 -0.1355,0.045 -0.2265,0.0677 -0.2716,0.0677 l -0.3398,0.1361 h 0.0677 l -0.5434,0.4073 c -0.0907,0 -0.1811,0.0114 -0.2715,0.034 -0.091,0.0227 -0.2044,0.0341 -0.3399,0.0341 -0.091,0.1814 -0.2265,0.2718 -0.4079,0.2718 -0.0907,0 -0.1471,0.0113 -0.1701,0.034 -0.0227,0.0227 -0.0564,0.0337 -0.1015,0.0337 -0.136,0.1361 -0.3175,0.2044 -0.544,0.2044 l -1.0196,0.2716 -0.6111,0.2038 c -0.0457,0 -0.0794,0.0113 -0.1024,0.0343 -0.0221,0.0221 -0.0564,0.0337 -0.1014,0.0337 -0.1815,0.0907 -0.4082,0.0907 -0.6798,0 -0.0904,0 -0.1587,0.0114 -0.2038,0.034 -0.0454,0.0227 -0.1131,0.0338 -0.2041,0.0338 l -0.5437,-0.0678 c -0.5884,-0.1358 -0.985,-0.2602 -1.1891,-0.3736 -0.2038,-0.1134 -0.4187,-0.2832 -0.6452,-0.5097 -0.3175,-0.3174 -0.4759,-0.6117 -0.4759,-0.8832 v -0.4082 c 0,-0.0451 -0.0116,-0.0794 -0.0337,-0.1015 -0.023,-0.023 -0.0343,-0.0794 -0.0343,-0.1701 v -0.136 c -0.0451,-0.1815 -0.0224,-0.4303 0.068,-0.7475 v -0.8153 l 0.2715,-1.1554 1.3593,-3.3296 0.5436,-1.0876 0.8156,-1.6991 0.3396,-0.5434 c 0,-0.1811 0.0907,-0.3623 0.2721,-0.5437 l -0.1361,0.1361 0.3399,-0.5437 c 0.0904,-0.0904 0.1698,-0.2038 0.2375,-0.3396 0.0684,-0.1361 0.1477,-0.3172 0.2382,-0.5437 l 1.3592,-2.3785 c 0.1357,-0.1361 0.2715,-0.2832 0.4076,-0.442 0.1361,-0.1581 0.2038,-0.2831 0.2038,-0.3736 0.0904,-0.2264 0.2154,-0.4756 0.3736,-0.7475 0.1587,-0.2718 0.3059,-0.521 0.4419,-0.7477 0.0905,-0.0905 0.1471,-0.1809 0.1698,-0.2716 0.023,-0.0904 0.0794,-0.1814 0.1701,-0.2718 h -0.0677 l -2.5147,0.5434 c -0.3625,0.136 -0.7818,0.2381 -1.2571,0.3061 -0.4757,0.068 -0.9176,0.1021 -1.3252,0.1021 -0.3626,0.0904 -0.7589,0.1697 -1.1892,0.2375 -0.4303,0.0683 -0.8495,0.1244 -1.2571,0.1701 h -0.9516 c -0.1358,-0.0457 -0.3396,-0.0681 -0.6114,-0.0681 -0.1358,-0.0904 -0.2946,-0.1471 -0.4757,-0.1698 -0.1814,-0.0226 -0.3169,-0.0793 -0.4079,-0.1697 -0.0907,0 -0.2265,-0.1361 -0.4076,-0.4082 l 0.0677,-0.5434 c 0,-0.1812 0.2041,-0.2716 0.6117,-0.2716 h 0.6118 c 0.045,0 0.068,0.0111 0.068,0.0337 0,0.0227 0.0227,0.0341 0.0677,0.0341 h 1.495 l 2.4463,-0.3399 c 0.9516,-0.0454 1.8805,-0.2265 2.7862,-0.5434 l 2.6507,-0.476 1.0871,-0.2038 c 0.0904,-0.1811 0.1924,-0.3852 0.3058,-0.6117 0.1131,-0.2265 0.2376,-0.3849 0.3736,-0.4754 l 0.2722,-0.4079 0.6111,-0.8158 0.4759,-0.6111 v 0.0677 c 0,-0.1811 0.0905,-0.3172 0.2719,-0.4076 0.0451,-0.0454 0.068,-0.1134 0.068,-0.2038 l 0.6117,-0.5437 0.4754,-0.6117 0.8155,-0.8155 c 0.0454,-0.0451 0.0678,-0.0905 0.0678,-0.1355 l 1.0193,-1.0194 1.3592,-1.0193 0.2722,-0.1361 c 0.1808,-0.0907 0.3846,-0.2154 0.6111,-0.3736 0.2268,-0.1587 0.2948,-0.2381 0.2044,-0.2381 l 0.6794,-0.4076 0.4077,-0.2721 c 0.136,-0.0451 0.3625,-0.0678 0.6794,-0.0678 0.0451,0 0.1585,0.0454 0.3399,0.1361 0.1811,0.0904 0.2942,0.1581 0.3399,0.2038 l 0.2715,0.2718 c 0,0.1812 0.0454,0.3172 0.1361,0.4077 v 0.6794 c -0.0907,0.0907 -0.1361,0.1928 -0.1361,0.3062 v 0.3052 c 0,0.091 -0.0113,0.1928 -0.034,0.3059 -0.0227,0.1134 -0.0337,0.2154 -0.0337,0.3061 l -0.2038,0.6118 c -0.0907,0.1808 -0.1361,0.3396 -0.1361,0.4753 l -0.8833,1.2912 c -0.0907,0.0907 -0.1927,0.2378 -0.3058,0.4417 -0.1134,0.204 -0.1474,0.2831 -0.1018,0.2381 l -0.8155,1.0193 -0.0683,0.1355 0.8838,-0.2038 c 0.2265,0 0.4187,-0.0111 0.5774,-0.0337 0.1585,-0.023 0.351,-0.0567 0.5775,-0.1024 l 1.8348,-0.4073 0.9513,-0.2038 1.0877,-0.2722 c 0.3625,-0.0904 0.7245,-0.1354 1.0871,-0.1354 0.3625,-0.091 0.7928,-0.1588 1.2911,-0.2044 0.4984,-0.0448 0.9287,-0.0678 1.2912,-0.0678 0.1358,-0.0904 0.3169,-0.1471 0.5434,-0.1698 0.2265,-0.0226 0.4082,-0.034 0.5437,-0.034 0.1361,-0.0453 0.2492,-0.068 0.3399,-0.068 l 2.0387,-0.2038 2.1064,-0.2716 c 0.091,0 0.1587,-0.0116 0.2041,-0.0343 0.0451,-0.0224 0.1584,-0.034 0.3399,-0.034 h 1.7668 c 0.4076,0 0.7928,-0.0111 1.1554,-0.0337 0.362,-0.023 0.7928,-0.034 1.2909,-0.034 z m -35.0645,15.9695 c 0.0904,-0.1361 0.2148,-0.3059 0.3736,-0.5097 0.1584,-0.2038 0.2831,-0.3512 0.3736,-0.4419 l 1.6991,-1.8349 0.7472,-0.8152 c 0.136,-0.1358 0.2605,-0.2602 0.3739,-0.3736 0.1131,-0.1134 0.2151,-0.2832 0.3058,-0.5097 l 1.6988,-1.8348 1.563,-1.7669 0.8156,-1.0876 0.9513,-1.0871 c 0.0907,-0.1361 0.1924,-0.2832 0.3058,-0.4419 0.1131,-0.1582 0.2152,-0.3053 0.3059,-0.4414 -0.6798,0.1361 -1.3592,0.3169 -2.0387,0.5437 l -1.4269,0.2718 v 0.0678 l -1.1555,1.9029 -1.0193,1.4269 c -0.3172,0.453 -0.6341,0.9627 -0.9513,1.529 -0.3175,0.5661 -0.6117,1.1665 -0.8836,1.8009 l -0.2718,0.4076 c -0.4079,0.6798 -0.7699,1.3139 -1.0871,1.9029 -0.136,0.0904 -0.2041,0.1814 -0.2041,0.2719 z m 7.2711,-11.9602 0.4757,-0.2038 1.9706,-0.4077 c 0.2265,-0.0453 0.4419,-0.091 0.6457,-0.136 0.2036,-0.0454 0.419,-0.1131 0.6455,-0.2038 l 0.1358,-0.1361 0.8155,-1.2231 1.0193,-1.5628 v 0.0678 l 0.4076,-0.6118 c 0,-0.045 0.0227,-0.0907 0.0681,-0.1357 0.0907,-0.0905 0.136,-0.1358 0.136,-0.1358 0,-0.1361 0.0678,-0.3172 0.2039,-0.5437 l 0.3398,-0.5437 c 0.0905,-0.3175 0.0794,-0.5323 -0.034,-0.6454 -0.1131,-0.1134 -0.4419,-0.0117 -0.9853,0.3058 -0.5437,0.3169 -1.0423,0.7472 -1.4953,1.2909 l -0.2715,0.2038 -0.2722,0.3396 -0.2718,0.2722 c -0.0904,0.0904 -0.1922,0.1927 -0.3056,0.3058 -0.1131,0.1134 -0.1474,0.1245 -0.102,0.034 -0.1361,0.1809 -0.2943,0.3169 -0.4757,0.4076 l -0.7475,0.7478 -0.3399,0.5434 -0.7472,0.8153 -0.5439,0.6794 z m 6.6597,-2.6501 v -0.0684 l 0.0678,-0.0677 z m 6.5911,12.2317 c 0.091,0.0908 0.1474,0.1585 0.1698,0.2039 0.0227,0.0456 0.0343,0.136 0.0343,0.2721 v 0.8152 l -0.3396,0.3396 c -0.2721,0.2721 -0.4759,0.5437 -0.612,0.8155 l -0.4076,0.3399 -1.1551,1.427 -0.2038,0.2721 c -0.0456,0.0904 -0.0683,0.1585 -0.0683,0.2035 l -0.3399,0.4077 c -0.0451,0.0909 -0.0677,0.1587 -0.0677,0.2043 -0.0905,0.1355 -0.2039,0.2943 -0.3396,0.4754 -0.1361,0.1814 -0.2495,0.3852 -0.3399,0.6117 l -0.2716,0.4757 0.1355,-0.1358 -0.2038,0.4073 c 0,0.091 -0.0337,0.1928 -0.1018,0.3062 -0.068,0.1131 -0.102,0.2151 -0.102,0.3058 l -0.1361,0.2716 v 0.6117 c 0,0.0454 0.0117,0.0904 0.0341,0.1361 0.0226,0.045 0.0343,0.0904 0.0343,0.136 h 0.5436 c 0.317,0 0.7019,-0.1023 1.1549,-0.3061 0.4529,-0.2035 0.9062,-0.419 1.3592,-0.6455 l 0.7478,-0.3398 0.2038,-0.1361 c 0.1811,-0.0451 0.4076,-0.1582 0.6794,-0.3399 l 0.5437,-0.4073 c 0.0454,0 0.0794,-0.0113 0.1021,-0.034 0.0224,-0.0227 0.0791,-0.034 0.1698,-0.034 l 0.1357,-0.0681 0.2039,-0.2715 1.2234,-0.8156 0.8152,-0.612 c 0.1815,-0.2264 0.3853,-0.4413 0.6118,-0.6451 0.2264,-0.2041 0.4529,-0.4193 0.6794,-0.6458 l 0.4076,-0.2718 0.5437,-0.5437 c 0.091,-0.0453 0.1925,-0.1134 0.3059,-0.2038 0.1134,-0.0904 0.2154,-0.1361 0.3058,-0.1361 0.0905,0 0.1588,0.023 0.2039,0.0681 0.0453,0.0453 0.1133,0.1131 0.2038,0.2041 0.136,0.0904 0.2038,0.2265 0.2038,0.4076 0,0.1808 -0.0451,0.3396 -0.1355,0.4756 l -0.2038,0.2039 -0.1361,0.136 -0.3399,0.4076 -0.2718,0.1361 c -0.2265,0.2265 -0.4759,0.4303 -0.7475,0.6112 l -0.5437,0.4081 -0.6117,0.4074 -0.3396,0.4759 -0.9513,0.8155 v -0.0683 c -0.1814,0.1817 -0.3399,0.3175 -0.4757,0.4082 -0.136,0.0904 -0.2948,0.1812 -0.4759,0.2716 l 0.0677,-0.0678 -0.3395,0.2038 c -0.0907,0.1358 -0.2262,0.2492 -0.4077,0.3396 -0.1811,0.0907 -0.3398,0.1812 -0.4759,0.2722 -0.3169,0.3169 -0.6568,0.5207 -1.0193,0.6114 -0.4981,0.2265 -1.1098,0.4756 -1.8346,0.7478 -0.7248,0.2715 -1.4046,0.4073 -2.0387,0.4073 h -0.3396 c -0.1361,0 -0.2494,-0.0227 -0.3399,-0.068 -0.0456,0 -0.0793,-0.0224 -0.102,-0.0678 -0.0224,-0.045 -0.0791,-0.0907 -0.1701,-0.136 -0.1355,-0.0905 -0.2942,-0.2716 -0.4754,-0.5437 -0.0453,0 -0.068,-0.0451 -0.068,-0.1358 v -0.1358 c -0.0451,-0.091 -0.0677,-0.2945 -0.0677,-0.6117 0,-0.3169 0.045,-0.6568 0.1357,-1.0193 0,-0.0905 0.0341,-0.2038 0.1018,-0.3399 0.0683,-0.1361 0.1471,-0.3169 0.2381,-0.5434 l -0.6794,0.6795 c -0.091,0.0904 -0.1818,0.1698 -0.2722,0.2378 -0.0904,0.068 -0.2491,0.1471 -0.4756,0.2378 l -0.2716,0.1358 -0.2038,0.2718 c -0.091,0.0907 -0.2268,0.1812 -0.4082,0.2722 -0.1808,0.0904 -0.3169,0.1811 -0.4076,0.2715 -0.2719,0.1814 -0.4983,0.2948 -0.6795,0.3399 -0.0904,0.0453 -0.1814,0.0904 -0.2718,0.1358 -0.0907,0.0456 -0.1134,0.0229 -0.068,-0.0678 l -0.3396,0.2038 c -0.0907,0.0451 -0.1928,0.0907 -0.3059,0.1361 -0.1134,0.0451 -0.1928,0.0677 -0.2378,0.0677 0,0.0454 -0.1361,0.0678 -0.4079,0.0678 h -0.4077 c -0.136,0 -0.2942,-0.0678 -0.4759,-0.2038 -0.3623,-0.1809 -0.5661,-0.453 -0.6111,-0.8155 v -0.9511 c 0,-0.0907 0.011,-0.1814 0.0337,-0.2721 0.0227,-0.0904 0.034,-0.2489 0.034,-0.4754 0.1361,-0.4986 0.2832,-0.9516 0.4419,-1.3592 0.1582,-0.4079 0.351,-0.7928 0.5774,-1.1551 0.0454,0 0.0905,-0.023 0.1361,-0.068 0.0904,-0.0907 0.1582,-0.2041 0.2038,-0.3396 0.1358,-0.2265 0.351,-0.5553 0.6455,-0.9856 0.2945,-0.4303 0.532,-0.7589 0.7135,-0.9853 l 0.8158,-1.1554 0.2715,-0.2039 0.2719,-0.3398 0.3398,-0.3396 0.4757,-0.3399 c 0.1358,0 0.2716,0.0337 0.4076,0.102 0.1361,0.0678 0.2038,0.1472 0.2038,0.2379 0.0454,0.0904 0.0678,0.2945 0.0678,0.6117 0,0.1358 -0.0224,0.2492 -0.0678,0.3396 0,0.0907 -0.034,0.1927 -0.102,0.3061 -0.0678,0.1131 -0.1471,0.2376 -0.2378,0.3736 -0.1358,0.1361 -0.2039,0.2038 -0.2039,0.2038 l -0.6117,0.8156 -1.8346,2.2425 -0.6794,0.8832 c -0.0454,0.0451 -0.0683,0.1361 -0.0683,0.2716 -0.0905,0.0456 -0.1355,0.1587 -0.1355,0.3399 -0.0454,0.091 -0.091,0.1477 -0.1361,0.1698 -0.0454,0.0229 -0.068,0.0567 -0.068,0.1023 -0.0451,0.0453 -0.0678,0.0904 -0.0678,0.1358 v 0.068 c 0,0.0454 -0.0113,0.0904 -0.034,0.1358 -0.0227,0.0456 -0.034,0.0907 -0.034,0.136 v 0.4077 c 0,0.0453 0.0224,0.0904 0.068,0.136 0.0904,0.0905 0.1588,0.1358 0.2038,0.1358 0.1358,-0.0907 0.2719,-0.1358 0.4079,-0.1358 0.1355,0 0.2716,-0.0456 0.4077,-0.136 l 0.4076,-0.2038 0.7478,-0.4077 c 0.0447,0 0.1355,-0.068 0.2715,-0.2041 l 0.4079,-0.2038 h -0.0683 l 0.4759,-0.4076 c 0.0905,-0.0453 0.1812,-0.0904 0.2719,-0.1361 0.0907,-0.0453 0.1811,-0.1131 0.2716,-0.2038 0.2267,-0.0904 0.3625,-0.2038 0.4076,-0.3396 l 0.5439,-0.4081 -0.068,0.0683 0.4079,-0.3399 1.3592,-1.2232 c 0.4981,-0.4529 0.9624,-0.9289 1.393,-1.4272 0.4303,-0.498 0.8719,-0.974 1.3249,-1.427 l 0.2718,-0.4759 0.3399,-0.2716 z"
     id="path8" />
  <path
     style="fill:#ffffff;fill-rule:evenodd"
     inkscape:connector-curvature="0"
     d="m 363.0546,442.7821 c 0.0454,0.0908 0.1021,0.1701 0.1698,0.2382 0.0683,0.068 0.1021,0.2151 0.1021,0.4416 0,0.2718 -0.0794,0.5207 -0.2382,0.7472 -0.1581,0.2268 -0.3052,0.4533 -0.4413,0.6798 l -0.5437,0.8838 -0.3396,0.4073 0.1358,-0.068 -0.4079,0.6117 -0.4076,0.3399 0.9513,-0.3399 1.2912,-0.5437 0.6797,-0.2038 c 0.0451,0 0.0794,-0.0113 0.1018,-0.0337 0.0226,-0.0227 0.0564,-0.0343 0.102,-0.0343 0.0904,-0.0904 0.2038,-0.1245 0.3396,-0.1018 0.1361,0.0227 0.3172,0.034 0.5437,0.034 0.1361,0 0.2378,0.0794 0.3058,0.2376 0.0678,0.1587 0.1472,0.2832 0.2379,0.3739 v 0.2718 c 0.0453,0.1812 0.0227,0.3626 -0.0681,0.5437 -0.0904,0.1814 -0.1357,0.3852 -0.1357,0.6117 l -0.1361,0.1361 -0.3399,0.5434 -0.4753,0.5437 -1.0194,1.0871 -1.8348,2.3108 c -0.0905,0.0904 -0.2039,0.2488 -0.3399,0.4753 -0.1361,0.2265 -0.2492,0.4079 -0.3399,0.544 l -0.2718,0.8833 v 0.1358 c 0,0.0453 0.0226,0.0907 0.0683,0.1357 0.045,0.0457 0.0904,0.0683 0.1358,0.0683 l 0.5436,0.0678 h 0.2376 c 0.0683,0 0.2154,-0.0454 0.4419,-0.1361 0.1361,-0.0904 0.2152,-0.1581 0.2378,-0.2038 0.0227,-0.0453 0.1698,-0.0677 0.442,-0.0677 0.045,-0.0454 0.1355,-0.1131 0.2715,-0.2041 0.1361,-0.0904 0.2492,-0.1355 0.3399,-0.1355 l 0.5434,-0.2038 c 0.1361,-0.1361 0.3058,-0.2722 0.5097,-0.4082 0.2043,-0.1358 0.2607,-0.1582 0.17,-0.0678 l 1.0874,-0.6794 c 0.4981,-0.2722 0.985,-0.5891 1.461,-0.9516 0.4756,-0.3623 0.9626,-0.7246 1.4612,-1.0871 l 2.0382,-1.6991 c 0.2267,-0.1811 0.3965,-0.3169 0.5096,-0.4076 0.1134,-0.0904 0.2155,-0.1814 0.3062,-0.2719 l 0.1357,-0.136 0.4077,-0.3399 c 0.091,-0.1355 0.2043,-0.2716 0.3398,-0.4076 0.1361,-0.1358 0.3175,-0.2035 0.544,-0.2035 0.4981,0 0.6452,0.2035 0.4414,0.6111 -0.2038,0.4082 -0.419,0.7478 -0.6455,1.0193 l -0.5437,0.4082 c -0.0904,0.0451 -0.1698,0.1131 -0.2378,0.2038 -0.068,0.0905 -0.1247,0.1809 -0.1698,0.2716 l -0.4079,0.2718 c -0.1811,0.1812 -0.3623,0.3739 -0.5437,0.5775 -0.1811,0.2043 -0.3846,0.3515 -0.6114,0.4419 -0.2265,0.0907 -0.3852,0.1927 -0.4757,0.3058 -0.0904,0.1134 -0.1587,0.1925 -0.2038,0.2379 l -0.8155,0.6794 c -0.9513,0.7702 -1.7785,1.3366 -2.4803,1.6991 -0.7022,0.3626 -1.2799,0.6795 -1.7328,0.951 -0.2719,0.1815 -0.544,0.3626 -0.8156,0.544 -0.2718,0.1811 -0.5213,0.2945 -0.7477,0.3399 l -0.9511,0.3399 -1.0196,0.1355 -0.2718,-0.1355 c -0.1812,0 -0.2943,-0.0227 -0.3399,-0.0684 -0.1355,0 -0.2942,-0.0904 -0.4754,-0.2715 -0.136,-0.091 -0.2491,-0.1698 -0.3396,-0.2381 -0.0907,-0.0678 -0.136,-0.1925 -0.136,-0.3736 l -0.1361,-0.4077 0.2721,-1.1554 c 0,-0.136 0.0678,-0.2718 0.2036,-0.4076 0.2267,-0.4983 0.4983,-0.9516 0.8158,-1.3592 0.0904,-0.1358 0.2038,-0.2945 0.3396,-0.4756 0.1811,-0.2722 0.4532,-0.6118 0.8152,-1.0194 l 0.544,-0.6794 c 0.3172,-0.2268 0.521,-0.4533 0.6114,-0.6798 l 0.3399,-0.4076 -0.0681,0.136 0.4754,-0.7477 -0.4754,0.2038 c -0.1814,0.091 -0.3738,0.1698 -0.5777,0.2381 -0.2038,0.0677 -0.4186,0.1244 -0.6454,0.1698 l -0.7478,0.2038 c -0.1358,0.0451 -0.2715,0.0907 -0.4073,0.1361 -0.1361,0.045 -0.2948,0.0677 -0.476,0.0677 l -1.087,-0.1361 c -0.3626,-0.2715 -0.5437,-0.6111 -0.5437,-1.0193 -0.0454,-0.0451 -0.0681,-0.0904 -0.0681,-0.1355 v -0.1361 c 0.1358,-0.7701 0.3396,-1.4045 0.6118,-1.9026 l 0.8832,-1.2914 1.6308,-1.5631 c 0.0454,0 0.2492,-0.1357 0.6117,-0.4073 h 0.3399 z m -1.3592,1.4953 c -0.1811,0.1812 -0.4187,0.4757 -0.7135,0.8833 -0.2942,0.4076 -0.487,0.7024 -0.5774,0.8836 -0.2721,0.5434 -0.4079,0.8832 -0.4079,1.0193 0,0.0453 0.1131,-0.1134 0.3396,-0.4759 0.2265,-0.3626 0.3852,-0.6342 0.4759,-0.815 0,-0.0456 0.0227,-0.091 0.0681,-0.1361 l 0.2038,-0.2038 z m 16.8534,-1.2914 c 0.1355,0 0.2715,0.0343 0.4076,0.1023 0.1361,0.0677 0.2719,0.1471 0.4076,0.2375 0.1814,0 0.3175,0.0905 0.4079,0.2722 0.1361,0.0904 0.2038,0.1808 0.2038,0.2715 0,0.1361 0.0341,0.2265 0.1021,0.2719 0.0677,0.0456 0.1018,0.136 0.1018,0.2721 v -0.0683 c 0.1814,0.3172 0.2491,0.6003 0.2038,0.8495 -0.0451,0.2492 -0.1134,0.487 -0.2038,0.7135 l -0.476,0.6117 -0.6111,0.8155 c -0.0457,0.0451 -0.1134,0.1134 -0.2038,0.2038 -0.091,0.0908 -0.1588,0.1812 -0.2044,0.2716 -0.0451,0.0456 -0.0678,0.091 -0.0678,0.1361 l -0.136,0.136 c 0,0 -0.0451,0.0454 -0.1358,0.1361 -0.1811,0.2716 -0.3623,0.6452 -0.5437,1.1208 -0.1811,0.4759 -0.3169,0.8496 -0.4076,1.1217 l -0.2719,0.8833 c 0,0.0904 -0.0113,0.1471 -0.034,0.1698 -0.0226,0.0229 -0.034,0.0793 -0.034,0.17 0,0.0905 0.023,0.2038 0.068,0.3396 0,0.0907 0.0114,0.1812 0.0343,0.2719 0.0222,0.0907 0.0338,0.1814 0.0338,0.2718 l 0.2038,0.4076 v -0.0677 c 0,-0.0907 0.0677,-0.0678 0.2038,0.0677 h -0.0678 l 0.4757,0.3399 h 0.2716 c 0.0456,0 0.0907,0.0227 0.136,0.068 0.0451,0.0451 0.0907,0.0678 0.1361,0.0678 0.0451,-0.0904 0.0904,-0.1131 0.1355,-0.0678 0.0456,0.0451 0.1134,0.0678 0.2044,0.0678 0.0904,-0.0904 0.2038,-0.1358 0.3396,-0.1358 h 0.3398 c 0.0905,0 0.1471,-0.0224 0.1698,-0.068 0.0224,-0.0454 0.0791,-0.0678 0.1701,-0.0678 l 0.5434,-0.136 0.4076,-0.1358 0.6117,-0.3399 1.2912,-0.8833 0.6795,-0.4076 0.6457,-0.6457 c 0.2038,-0.2038 0.4193,-0.3736 0.6458,-0.5097 l 0.6794,-0.6117 2.378,-2.2425 c 0.091,-0.1361 0.1928,-0.2151 0.3061,-0.2378 0.1131,-0.0227 0.2832,-0.0794 0.5097,-0.1698 l 0.3396,0.2715 c 0.1811,0.2265 0.2265,0.3853 0.1361,0.4757 -0.0905,0.0907 -0.2038,0.2494 -0.3399,0.4759 -0.7699,0.6795 -1.2912,1.2005 -1.5628,1.5631 -0.2721,0.3622 -0.5663,0.7021 -0.8835,1.0193 0,0 -0.0454,0.0453 -0.1358,0.1358 l -0.1361,0.136 -1.563,1.2232 -0.4756,0.4754 c -0.4984,0.3174 -1.008,0.6573 -1.529,1.0193 -0.521,0.3625 -1.0307,0.6117 -1.5293,0.7478 -0.0451,0 -0.0905,0.0224 -0.1355,0.0677 -0.0454,0.0457 -0.1131,0.0681 -0.2038,0.0681 -0.2719,0.0907 -0.6118,0.1357 -1.0194,0.1357 -0.136,0.0457 -0.3625,0.0683 -0.6794,0.0683 0,0.0905 -0.091,0.1355 -0.2722,0.1355 -0.136,0 -0.2491,-0.0221 -0.3398,-0.0677 -0.0905,-0.0454 -0.317,-0.0904 -0.6795,-0.1361 l 0.0683,0.0683 c -0.0456,0 -0.091,-0.0226 -0.1361,-0.0683 h -0.0683 l -0.4753,-0.2715 c -0.2719,-0.1814 -0.4984,-0.419 -0.6795,-0.7135 -0.1814,-0.2945 -0.2948,-0.5777 -0.3399,-0.8493 -0.0453,-0.3625 -0.091,-0.714 -0.136,-1.0539 -0.0454,-0.3393 0.0229,-0.7583 0.2038,-1.2569 v -0.0677 l -0.4074,0.2715 -0.5437,0.4757 c -0.1814,0.2265 -0.4192,0.4076 -0.714,0.5437 -0.2942,0.136 -0.5547,0.2718 -0.7812,0.4079 l -0.1358,0.0677 c -0.3626,0.2265 -0.6684,0.3853 -0.9173,0.476 -0.2494,0.0904 -0.4646,0.1811 -0.6457,0.2715 -0.0457,0 -0.0905,0.0116 -0.1361,0.0343 -0.0451,0.0224 -0.0904,0.0338 -0.1361,0.0338 -0.0904,0.045 -0.1698,0.045 -0.2375,0 -0.0677,-0.0454 -0.1701,-0.0681 -0.3059,-0.0681 l -0.3398,0.0681 c -0.1361,0 -0.2943,-0.0681 -0.4757,-0.2036 -0.1811,-0.0456 -0.2832,-0.0683 -0.3056,-0.0683 -0.0226,0 -0.0567,-0.1134 -0.102,-0.3399 0,-0.0904 -0.034,-0.1471 -0.1018,-0.1698 -0.0683,-0.0226 -0.102,-0.0566 -0.102,-0.1017 l 0.136,-0.9516 0.2716,-0.5434 -0.1361,0.0677 0.2041,-0.4753 0.3399,-0.6117 0.5437,-0.8159 c 0.0451,-0.045 0.0677,-0.1131 0.0677,-0.2038 l 0.3396,-0.4756 1.5631,-1.9707 -0.1361,0.0681 c 0.091,-0.0907 0.1817,-0.1701 0.2721,-0.2379 0.0904,-0.0677 0.1812,-0.1471 0.2719,-0.2375 l 0.8835,-0.7478 0.5434,-0.4759 -0.0677,0.136 1.2231,-0.8832 c 0.2265,-0.1812 0.6231,-0.3626 1.1894,-0.5437 0.5661,-0.1812 1.0304,-0.2721 1.393,-0.2721 z m -7.2034,8.0866 c -0.0904,0.1817 -0.0904,0.2832 0,0.3062 0.0907,0.0226 0.2378,-0.0114 0.4416,-0.1018 0.2041,-0.091 0.4306,-0.2044 0.6795,-0.3399 0.2492,-0.136 0.4419,-0.2491 0.578,-0.3398 0.6794,-0.4079 1.2569,-0.7816 1.7328,-1.1214 0.4756,-0.3399 0.9626,-0.7589 1.4607,-1.2569 l 1.0876,-1.0877 c 0.0905,-0.0904 0.1355,-0.1355 0.1355,-0.1355 0.091,-0.1817 0.2044,-0.3398 0.3399,-0.4759 0.1361,-0.1361 0.2492,-0.2948 0.3399,-0.4756 l 0.7478,-0.9514 c -0.0457,-0.0453 -0.0567,-0.102 -0.0343,-0.1698 0.0226,-0.0683 0.0343,-0.1476 0.0343,-0.2381 l -0.2722,-0.2715 h -0.4756 c -0.2716,0 -0.521,0.0904 -0.7475,0.2715 l -0.5434,0.2719 c -0.0907,0.0451 -0.2038,0.1134 -0.3399,0.2038 -0.2721,0.1811 -0.453,0.2945 -0.5437,0.3399 0,0 -0.0227,0.0453 -0.068,0.136 l -0.8836,0.7472 c -0.0904,0.0908 -0.2148,0.2155 -0.3736,0.3739 -0.1587,0.1588 -0.2832,0.2603 -0.3736,0.3059 -0.0907,0.2718 -0.2721,0.453 -0.5437,0.5434 l -0.136,0.3399 -1.1551,1.3592 -0.5437,0.8155 -0.476,0.6795 z"
     id="path10" />
  <path
     style="fill:#ffffff;fill-rule:evenodd;stroke:#ffffff;stroke-width:0.1"
     inkscape:connector-curvature="0"
     d="m 136.1039,417.6473 v -1.3017 c 0,-0.8678 0,-0.8678 -2.3762,-0.8678 v 0.8678 h -3.5644 v -0.8678 c 0.5941,-0.2479 0.5941,-0.2479 -1.1881,-0.8678 v -1.6736 c 0.8487,0.1859 1.6973,0.3719 2.6308,0.5579 0.2546,-0.4959 0.5941,-0.9918 0.9336,-1.4257 h -2.3763 v -0.8678 h 3.5644 c 0.3394,0.2479 0.7638,0.5578 1.1881,0.8678 0.7638,-0.31 1.5276,-0.6199 2.2914,-0.8678 h 2.3762 c 0.9335,0.4339 1.9519,0.8678 2.9703,1.3017 0.5941,-0.3099 1.1881,-0.6199 1.7822,-0.8678 -1.1881,-0.186 -2.3763,-0.31 -3.5644,-0.4339 v -0.8678 h 4.7525 v 0.8678 c 1.5276,0.1239 3.0552,0.2479 4.6676,0.4339 0.3395,-0.4339 0.7638,-0.8678 1.1881,-1.3017 h 1.1881 c 0.3395,-0.31 0.7638,-0.6199 1.1882,-0.8678 h 1.1881 c 0.3394,0.2479 0.7638,0.5578 1.1881,0.8678 h 9.4201 c 0,-0.8678 0,-0.8678 -2.3763,-0.8678 v -0.8678 h 3.5644 c 4.2433,0.2479 8.5714,0.5578 12.8996,0.8678 8.9957,-0.6199 18.0763,-1.1778 27.1569,-1.7357 1.1882,-0.3099 2.3763,-0.6198 3.5644,-0.8678 h 24.6959 v 0.8678 h 24.7807 v -0.8678 h 2.3763 v 0.8678 h 96.6619 v -0.8678 h 7.0438 v 0.8678 c -2.3762,0 -2.3762,0 -2.3762,0.8679 h 9.4201 c 4.6676,-0.31 9.42,-0.6199 14.1725,-0.8679 h 14.1726 v 0.8679 c 3.4795,0.4339 7.0438,0.8678 10.6082,1.3017 -0.4244,0.4339 -0.8487,0.8678 -1.1882,1.3017 h -9.42 v -0.8678 h -4.7525 v 0.8678 h -4.7525 v -0.8678 h -3.4795 v 0.8678 h -34.2008 v -0.4339 c 0.1697,-0.186 0.3395,-0.31 0.5941,-0.4339 h 5.2616 v -0.8678 c -1.9519,0.1239 -3.9038,0.2479 -5.8557,0.4339 -0.2546,0.1239 -0.4243,0.2479 -0.5941,0.4339 -1.0183,0.2479 -2.0367,0.5578 -2.9703,0.8678 H 338.7629 V 410.333 H 322.299 v 0.8678 h -2.3762 c 0.2546,-0.3719 0.5092,-0.7439 0.8486,-1.1158 -2.0367,-0.1859 -4.3281,0.6819 -17.3126,1.9836 h -24.7807 v 0.8678 h 7.0438 v 0.8058 h -54.1442 v -0.8058 h -28.3451 c 0,0.8058 0,0.8058 3.5643,0.8058 v 0.8678 h -5.9405 v -0.8678 c -2.3763,-0.186 -4.7525,-0.3099 -7.0439,-0.4339 1.1881,0.4339 2.3762,0.8678 3.5644,1.3017 h -1.1882 c -0.8486,0.248 -1.6124,0.5579 -2.3762,0.8678 h -5.8557 V 414.61 h -15.3607 v 0.8678 c -0.4243,0.248 -0.8486,0.5579 -1.1881,0.8678 h -5.8557 v -0.8678 h -10.6082 c 0,0.8678 0,0.8678 2.3762,0.8678 v 1.3017 h -3.5643 v -1.3017 h -14.1726 v 1.3017 z"
     id="path12" />
  <path
     style="fill:#ffffff;fill-rule:evenodd;stroke:#ffffff;stroke-width:0.1"
     inkscape:connector-curvature="0"
     d="m 139.5834,417.6473 v -1.3017 h 14.1726 v 1.3017 z m -11.7963,-2.1695 h 1.1881 v 0.8678 c -0.4243,-0.3099 -0.8487,-0.6198 -1.1881,-0.8678 z m 1.1881,0.8678 v -0.8678 h 1.1881 v 0.8678 z m 4.7525,0 v -0.8678 c 2.3762,0 2.3762,0 2.3762,0.8678 z m 31.8246,0 h -8.232 c -2.3762,0 -2.3762,0 -2.3762,-0.8678 h 10.6082 z m 5.8557,0 c 0.3395,-0.3099 0.7638,-0.6198 1.1881,-0.8678 h 2.3762 v 0.8678 z m 3.5643,0 v -0.8678 h 3.5644 v 0.8678 z m 3.5644,0 v -0.8678 h 2.2914 v 0.8678 z m 2.2914,0 v -0.8678 h 3.5643 v 0.8678 z m 3.5643,0 v -0.8678 h 2.3763 v 0.8678 z m 2.3763,0 v -0.8678 h 1.1881 v 0.8678 z m 1.1881,0 v -0.8678 h 2.2914 v 0.8678 z m 2.2914,0 v -0.8678 h 1.1881 c -0.4244,0.248 -0.8487,0.5579 -1.1881,0.8678 z m -63.6492,-1.3017 c 0.3394,-0.1859 0.7638,-0.3099 1.1881,-0.4339 v 0.8678 c -0.4243,-0.1859 -0.8487,-0.3099 -1.1881,-0.4339 z"
     id="path14" />
  <path
     style="fill:#ffffff;fill-rule:evenodd;stroke:#ffffff;stroke-width:0.1"
     inkscape:connector-curvature="0"
     d="M 127.7871,415.4778 V 414.61 h 1.1881 v 0.8678 z m 1.1881,0 V 414.61 c 1.7822,0.6199 1.7822,0.6199 1.1881,0.8678 z m 43.6209,0 V 414.61 h 15.3607 v 0.8678 z m 21.2164,0 c 0.7638,-0.3099 1.5276,-0.6198 2.3762,-0.8678 v 0.8678 z m 2.3762,0 V 414.61 h 1.1882 v 0.8678 z m 1.1882,0 V 414.61 h 1.1881 v 0.8678 z m 1.1881,0 V 414.61 h 1.1881 v 0.8678 z m 1.1881,0 V 414.61 h 1.1033 v 0.8678 z m 1.1033,0 V 414.61 h 2.3762 v 0.8678 z m 2.3762,0 V 414.61 h 2.3762 v 0.8678 z m 2.3762,0 V 414.61 h 2.3763 c -0.8487,0.248 -1.6125,0.5579 -2.3763,0.8678 z M 127.7871,414.61 v -2.5414 h 4.7525 c -0.3395,0.4339 -0.679,0.9298 -0.9336,1.4257 -0.9335,-0.186 -1.7821,-0.372 -2.6308,-0.5579 v 1.6736 z m 9.4201,0 v -0.8678 h 1.1881 v 0.8678 z m 60.1697,0 c -1.1882,-0.4339 -2.3763,-0.8678 -3.5644,-1.3017 2.2914,0.124 4.6676,0.2479 7.0439,0.4339 v 0.8678 z m 9.42,0 v -0.8678 h 3.5644 v 0.8678 z m 3.5644,0 v -0.8678 h 11.7114 v 0.8678 z m 11.7114,0 v -0.8678 h 3.5644 v 0.8678 z m 3.5644,0 v -0.8678 h 2.3762 v 0.8678 z"
     id="path16" />
  <path
     style="fill:#ffffff;fill-rule:evenodd;stroke:#ffffff;stroke-width:0.1"
     inkscape:connector-curvature="0"
     d="m 228.0133,414.61 v -0.8678 h 3.5644 v 0.8678 z m 3.5644,0 v -0.8678 h 37.6803 v 0.8678 z m 37.6803,0 v -0.8678 h 5.8557 v 0.8678 z m 5.8557,0 v -0.8678 h 5.9406 c -2.0367,0.248 -3.9887,0.5579 -5.9406,0.8678 z m 12.9845,-0.8678 h 4.7524 v 0.8678 h -4.7524 z m -154.3705,0 v -0.8058 h 2.3762 v 0.8058 z m 12.9844,0 v -0.8058 h 2.2914 v 0.8058 z m 84.8656,-0.8058 v 0.8058 h -24.7808 c -3.5643,0 -3.5643,0 -3.5643,-0.8058 z m 54.1442,0.8058 v -0.8058 h 8.3169 v 0.8058 z m 8.3169,0 v -0.8058 h 3.4795 v 0.8058 z m 3.4795,0 v -0.8058 h 3.5643 v 0.8058 z m 3.5643,0 v -0.8058 h 2.3762 v 0.8058 z m 2.3762,0 v -0.8058 h 3.4795 v 0.8058 z m 3.4795,0 v -0.8058 h 2.3763 v 0.8058 z m 2.3763,0 v -0.8058 h 2.3762 v 0.8058 z m 2.3762,0 v -0.8058 h 1.1881 v 0.8058 z m 1.1881,0 v -0.8058 h 1.1881 c -0.4243,0.2479 -0.8486,0.4959 -1.1881,0.8058 z m -173.2955,-2.5414 h 1.1881 c 1.1881,0.1239 2.3763,0.2479 3.5644,0.4339 -0.5941,0.2479 -1.1881,0.5579 -1.7822,0.8678 -1.0184,-0.4339 -2.0368,-0.8678 -2.9703,-1.3017 z m 91.9943,1.7356 v -0.8678 h 28.2602 v 0.8678 z m 65.9406,-0.8678 v 0.8678 h -18.8402 v -0.8678 z m 0,0.8678 v -0.8678 h 5.9405 v 0.8678 z m 5.9405,0 v -0.8678 c 12.9845,-1.3017 15.2759,-2.1695 17.3126,-1.9836 -0.3394,0.3719 -0.594,0.7439 -0.8486,1.1158 h -1.1881 c -0.4244,0.2479 -0.8487,0.5578 -1.1882,0.8678 h -5.8557 c -1.6124,0.2479 -3.2249,0.5579 -4.7525,0.8678 z"
     id="path18" />
  <path
     style="fill:#ffffff;fill-rule:evenodd;stroke:#ffffff;stroke-width:0.1"
     inkscape:connector-curvature="0"
     d="m 306.9383,412.9364 c 1.5276,-0.3099 3.1401,-0.6199 4.7525,-0.8678 v 0.8678 z m 4.7525,0 v -0.8678 h 1.1881 v 0.8678 z"
     id="path20" />
  <path
     style="fill:#ffffff;fill-rule:evenodd;stroke:#ffffff;stroke-width:0.1"
     inkscape:connector-curvature="0"
     d="m 312.8789,412.9364 v -0.8678 h 1.1881 v 0.8678 z m 1.1881,0 v -0.8678 h 1.1882 v 0.8678 z m 1.1882,0 v -0.8678 h 1.1881 v 0.8678 z m 1.1881,0 v -0.8678 h 1.1032 v 0.8678 z"
     id="path22" />
  <path
     style="fill:#ffffff;fill-rule:evenodd;stroke:#ffffff;stroke-width:0.1"
     inkscape:connector-curvature="0"
     d="m 317.5465,412.9364 v -0.8678 h 1.1882 c -0.4244,0.2479 -0.8487,0.5579 -1.1882,0.8678 z m -189.7594,-0.8678 v -0.8678 h 2.3762 v 0.8678 z m 5.9406,-0.8678 h 1.1881 v 0.8678 c -0.4243,-0.31 -0.8487,-0.6199 -1.1881,-0.8678 z m 1.1881,0.8678 v -0.8678 h 2.2914 c -0.7638,0.2479 -1.5276,0.5578 -2.2914,0.8678 z m 10.6082,-1.7356 h 5.8557 c -0.4243,0.4339 -0.8486,0.8678 -1.1881,1.3017 -1.6124,-0.186 -3.14,-0.31 -4.6676,-0.4339 z m 48.2885,1.7356 v -0.8678 h 2.3762 v 0.8678 z m 9.4201,0 v -0.8678 h 1.1881 v 0.8678 z m 18.8401,0 v -0.8678 h 4.7525 v 0.8678 z m 95.4738,0 c 0.3395,-0.31 0.7638,-0.6199 1.1882,-0.8678 v 0.8678 z m 1.1882,0 v -0.8678 h 7.1287 v 0.8678 z m 7.1287,0 v -0.8678 h 7.0438 v 0.8678 z m 7.0438,0 v -0.8678 h 2.3762 v 0.8678 z m 2.3762,0 v -0.8678 h 2.3763 v 0.8678 z m 2.3763,0 v -0.8678 h 1.1032 v 0.8678 z m 1.1032,0 v -0.8678 h 1.1881 v 0.8678 z m 1.1881,0 v -0.8678 h 1.1882 v 0.8678 z m 1.1882,0 v -0.8678 h 1.1881 c -0.4243,0.2479 -0.8487,0.5578 -1.1881,0.8678 z m 3.5643,-0.8678 h 2.3763 v 0.8678 c -0.8487,-0.31 -1.6125,-0.6199 -2.3763,-0.8678 z m 2.3763,0.8678 v -0.8678 h 2.2913 v 0.8678 z m 2.2913,0 v -0.8678 h 7.1287 v 0.8678 z m 7.1287,0 v -0.8678 h 1.1882 v 0.8678 z m 1.1882,0 v -0.8678 h 2.2913 v 0.8678 z m 2.2913,0 v -0.8678 h 2.3763 c -0.8487,0.2479 -1.6125,0.5578 -2.3763,0.8678 z m 3.5644,-0.8678 h 22.4045 v 0.8678 c -7.4682,-0.31 -14.9363,-0.6199 -22.4045,-0.8678 z m 22.4045,0.8678 v -0.8678 h 5.8557 v 0.8678 z m 5.8557,0 v -0.8678 h 9.505 v 0.8678 z m 9.505,0 v -0.8678 h 17.652 v 0.8678 z m 17.652,0 v -0.8678 h 1.1881 v 0.8678 z m 1.1881,0 v -0.8678 h 7.0439 v 0.8678 z m 7.0439,0 v -0.8678 h 8.2319 v 0.8678 z m 8.2319,0 v -0.8678 h 5.9406 v 0.8678 z m 5.9406,0 v -0.8678 h 2.3763 v 0.8678 z m 2.3763,0 v -0.8678 h 2.2913 c -0.7638,0.2479 -1.5275,0.5578 -2.2913,0.8678 z m -314.7665,-0.8678 v -0.8678 h 1.1881 v 0.8678 z m 1.1881,0 v -0.8678 h 1.1881 v 0.8678 z m 1.1881,0 v -0.8678 h 1.1882 v 0.8678 z m 1.1882,0 v -0.8678 h 2.3762 v 0.8678 z m 2.3762,0 v -0.8678 h 1.1881 v 0.8678 z m 1.1881,0 v -0.8678 h 1.1033 v 0.8678 z m 1.1033,0 v -0.8678 h 3.5643 v 0.8678 z m 150.891,0 v -0.8678 h 1.1881 v 0.8678 z m 34.2008,0 v -0.8678 h 16.4639 v 0.8678 z m 28.2602,0 c 0.9336,-0.31 1.952,-0.6199 2.9703,-0.8678 0.1698,0.1239 0.3395,0.2479 0.5941,0.4339 v 0.4339 z m 37.7652,0 v -0.8678 h 3.4795 v 0.8678 z m 8.232,0 v -0.8678 h 4.7525 v 0.8678 z m 14.1725,0 c 0.3395,-0.4339 0.7638,-0.8678 1.1882,-1.3017 -3.5644,-0.4339 -7.1287,-0.8678 -10.6082,-1.3017 h 27.0721 c 1.1881,0.2479 2.3762,0.5578 3.5643,0.8678 h 11.7964 v 0.8678 c -0.4244,0.2479 -0.8487,0.5578 -1.1882,0.8678 h -12.9844 v -0.8678 h -3.5643 v 0.8678 h -5.8558 c 0,-0.8678 0,-0.8678 -2.3762,-0.8678 v 0.8678 z"
     id="path24" />
  <path
     style="fill:#ffffff;fill-rule:evenodd;stroke:#ffffff;stroke-width:0.1"
     inkscape:connector-curvature="0"
     d="m 417.7728,411.2008 v -0.8678 c 2.3762,0 2.3762,0 2.3762,0.8678 z m 8.232,0 v -0.8678 h 3.5643 v 0.8678 z m 16.5487,0 c 0.3395,-0.31 0.7638,-0.6199 1.1882,-0.8678 h 1.1032 v 0.8678 z m 2.2914,0 v -0.8678 h 1.1881 v 0.8678 z m 1.1881,0 v -0.8678 h 2.3763 v 0.8678 z"
     id="path26" />
  <path
     style="fill:#ffffff;fill-rule:evenodd;stroke:#ffffff;stroke-width:0.1"
     inkscape:connector-curvature="0"
     d="m 448.4093,411.2008 v -0.8678 h 3.5643 v 0.8678 z m 3.5643,0 v -0.8678 h 5.8557 v 0.8678 z m 5.8557,0 v -0.8678 h 3.5644 v 0.8678 z m 3.5644,0 v -0.8678 h 3.5644 v 0.8678 z m 3.5644,0 v -0.8678 c 0.7637,-0.31 1.5275,-0.6199 2.2913,-0.8678 h 4.7525 v 0.8678 c -0.4243,0.2479 -0.8487,0.5578 -1.1881,0.8678 z"
     id="path28" />
  <path
     style="fill:#ffffff;fill-rule:evenodd;stroke:#ffffff;stroke-width:0.1"
     inkscape:connector-curvature="0"
     d="m 470.8138,411.2008 c 0.3394,-0.31 0.7638,-0.6199 1.1881,-0.8678 h 5.8557 v 0.8678 z m 11.7963,0 v -0.8678 h 1.1881 v 0.8678 z m 1.1881,0 v -0.8678 h 1.1881 v 0.8678 z m -129.6746,-0.4339 c -0.2546,-0.186 -0.4243,-0.31 -0.5941,-0.4339 0.1698,-0.186 0.3395,-0.31 0.5941,-0.4339 0.1697,0.1239 0.3395,0.2479 0.5941,0.4339 -0.2546,0.1239 -0.4244,0.2479 -0.5941,0.4339 z M 139.5834,410.333 c 0.7638,-0.31 1.5276,-0.6199 2.3762,-0.8678 v 0.8678 z"
     id="path30" />
  <path
     style="fill:#ffffff;fill-rule:evenodd;stroke:#ffffff;stroke-width:0.1"
     inkscape:connector-curvature="0"
     d="m 141.9596,410.333 v -0.8678 h 1.1882 v 0.8678 z m 1.1882,0 v -0.8678 h 1.1881 v 0.8678 z m 1.1881,0 v -0.8678 h 1.1881 v 0.8678 z m 1.1881,0 v -0.8678 h 1.1881 v 0.8678 z m 1.1881,0 v -0.8678 h 1.1033 v 0.8678 z m 1.1033,0 v -0.8678 h 1.1881 v 0.8678 z m 1.1881,0 v -0.8678 h 1.1881 v 0.8678 z m 1.1881,0 v -0.8678 h 2.3762 v 0.8678 z m 2.3762,0 v -0.8678 h 1.1882 c -0.4244,0.2479 -0.8487,0.5578 -1.1882,0.8678 z m 2.3763,-0.8678 h 1.1881 v 0.8678 c -0.4243,-0.31 -0.8487,-0.6199 -1.1881,-0.8678 z m 1.1881,0.8678 v -0.8678 h 7.0438 c 2.3763,0 2.3763,0 2.3763,0.8678 z m 65.9405,0 v -0.8678 h 3.5644 v 0.8678 z m 120.2546,0 v -0.8678 h 7.0438 v 0.8678 z m 12.3904,0 c -0.2546,-0.186 -0.4244,-0.31 -0.5941,-0.4339 1.9519,-0.186 3.9038,-0.31 5.8557,-0.4339 v 0.8678 z m 11.2022,0 v -0.8678 h 4.6676 v 0.8678 z m 10.6082,0 v -0.8678 h 5.8557 v 0.8678 z m 67.2136,0 v -0.8678 h 14.0876 v 0.8678 z m 14.0876,0 v -0.8678 h 2.3763 v 0.8678 z m 2.3763,0 v -0.8678 h 4.7525 v 0.8678 z m 4.7525,0 v -0.8678 h 2.2913 c -0.7638,0.2479 -1.5276,0.5578 -2.2913,0.8678 z m 7.0438,0 v -0.8678 h 2.3762 v 0.8678 z m 2.3762,0 v -0.8678 h 2.2914 v 0.8678 z m 2.2914,0 v -0.8678 h 1.1881 v 0.8678 z m 1.1881,0 v -0.8678 h 1.1881 v 0.8678 z m 1.1881,0 v -0.8678 h 1.1882 v 0.8678 z m 1.1882,0 v -0.8678 h 3.5643 v 0.8678 z m 3.5643,0 v -0.8678 h 1.1881 v 0.8678 z m -331.2304,-0.8678 v -0.8678 h 1.1882 v 0.8678 z m 1.1882,0 v -0.8678 h 1.1881 v 0.8678 z m 1.1881,0 v -0.8678 h 1.1881 v 0.8678 z m 1.1881,0 v -0.8678 h 1.1881 v 0.8678 z m 1.1881,0 v -0.8678 h 1.1033 v 0.8678 z m 1.1033,0 v -0.8678 h 1.1881 v 0.8678 z m 1.1881,0 v -0.8678 h 1.1881 v 0.8678 z m 1.1881,0 v -0.8678 h 1.1881 v 0.8678 z m 1.1881,0 v -0.8678 h 1.1881 v 0.8678 z m 4.7525,-0.8678 H 179.64 v 0.8678 c -4.3282,-0.31 -8.6563,-0.6199 -12.8996,-0.8678 z m 12.8996,0.8678 v -1.7357 h 27.1569 c -9.0806,0.5579 -18.1612,1.1158 -27.1569,1.7357 z m 248.741,-0.8678 h 3.5643 v 0.8678 c -1.1881,-0.31 -2.3762,-0.6199 -3.5643,-0.8678 z m 3.5643,0.8678 v -0.8678 h 2.2914 v 0.8678 z m 2.2914,0 v -0.8678 h 3.5644 v 0.8678 z m 3.5644,0 v -0.8678 h 1.1881 v 0.8678 z m 1.1881,0 v -0.8678 h 1.1881 v 0.8678 z m 1.1881,0 v -0.8678 h 1.1881 v 0.8678 z m 1.1881,0 v -0.8678 h 2.3763 v 0.8678 z"
     id="path32" />
  <path
     style="fill:#ffffff;fill-rule:evenodd;stroke:#ffffff;stroke-width:0.1"
     inkscape:connector-curvature="0"
     d="m 443.7417,409.4652 v -0.8678 h 2.2913 v 0.8678 z m 2.2913,0 v -0.8678 h 2.3763 v 0.8678 z m 2.3763,0 v -0.8678 h 1.1881 v 0.8678 z m 1.1881,0 v -0.8678 h 3.5643 v 0.8678 z m 3.5643,0 v -0.8678 h 1.1882 v 0.8678 z m 1.1882,0 v -0.8678 h 2.2913 v 0.8678 z m 2.2913,0 v -0.8678 h 1.1881 v 0.8678 z m 1.1881,0 v -0.8678 h 3.5644 v 0.8678 z m 3.5644,0 v -0.8678 c 1.1881,0.2479 2.3762,0.5578 3.5644,0.8678 z m -300.5939,-0.8678 c 0.7638,-0.31 1.5276,-0.6199 2.3762,-0.8679 v 0.8679 z m 2.3762,0 v -0.8679 h 2.3763 v 0.8679 z m 2.3763,0 v -0.8679 h 2.3762 v 0.8679 z m 2.3762,0 v -0.8679 h 1.1033 v 0.8679 z m 1.1033,0 v -0.8679 h 1.1881 v 0.8679 z m 1.1881,0 v -0.8679 h 1.1881 v 0.8679 z m 1.1881,0 v -0.8679 h 1.1881 v 0.8679 z m 1.1881,0 v -0.8679 h 2.3762 v 0.8679 z m 2.3762,0 v -0.8679 h 3.5644 v 0.8679 z m 3.5644,0 v -0.8679 h 1.1033 v 0.8679 z m 32.9279,0 v -0.8679 h 1.1881 v 0.8679 z m 23.5926,-1.7357 h 24.7807 v 0.8678 h -24.7807 z m 27.157,0 h 96.6619 v 0.8678 h -96.6619 z m 103.7057,0.8678 h 7.0439 v 0.8679 h -9.4201 c 0,-0.8679 0,-0.8679 2.3762,-0.8679 z m 7.0439,0.8679 v -0.8679 h 14.1725 c -4.7525,0.248 -9.5049,0.5579 -14.1725,0.8679 z m 28.3451,0 v -0.8679 h 4.6676 v 0.8679 z m 4.6676,0 v -0.8679 h 4.7524 v 0.8679 z m 4.7524,0 v -0.8679 h 2.2914 v 0.8679 z m 2.2914,0 v -0.8679 h 2.3763 v 0.8679 z m 2.3763,0 v -0.8679 h 2.3762 v 0.8679 z m 2.3762,0 v -0.8679 h 2.3762 v 0.8679 z m 2.3762,0 v -0.8679 h 3.4795 v 0.8679 z m 3.4795,0 v -0.8679 h 2.3763 v 0.8679 z m 2.3763,0 v -0.8679 h 3.5643 v 0.8679 z m 3.5643,0 v -0.8679 h 4.6676 v 0.8679 z m 4.6676,0 v -0.8679 c 2.3763,0.248 4.7525,0.5579 7.1287,0.8679 z m -259.2644,-0.8679 c 1.1882,-0.3099 2.3763,-0.6198 3.5644,-0.8678 v 0.8678 z m 3.5644,0 v -0.8678 h 2.2914 v 0.8678 z m 2.2914,0 v -0.8678 h 3.5643 v 0.8678 z m 3.5643,0 v -0.8678 h 2.3763 v 0.8678 z m 2.3763,0 v -0.8678 h 1.1881 v 0.8678 z m 1.1881,0 v -0.8678 h 2.2914 v 0.8678 z m 2.2914,0 v -0.8678 h 2.3762 v 0.8678 z m 2.3762,0 v -0.8678 h 2.3762 v 0.8678 z m 2.3762,0 v -0.8678 h 5.8558 v 0.8678 z m 5.8558,0 v -0.8678 h 9.5049 c -1.1881,0.248 -2.3762,0.5579 -3.5644,0.8678 z m 165.0635,0 v -0.8678 h 4.6676 v 0.8678 z m 4.6676,0 v -0.8678 h 2.3763 v 0.8678 z m 2.3763,0 v -0.8678 h 4.7524 v 0.8678 z m 4.7524,0 v -0.8678 h 4.6676 v 0.8678 z m 4.6676,0 v -0.8678 h 5.9406 v 0.8678 z m 5.9406,0 v -0.8678 h 3.4795 v 0.8678 z m 3.4795,0 v -0.8678 h 4.7525 v 0.8678 z m 4.7525,0 v -0.8678 h 4.7525 v 0.8678 z m 4.7525,0 v -0.8678 c 1.9519,0.248 3.9038,0.5579 5.8557,0.8678 z m -201.5558,-0.8678 v -0.8678 h 4.6676 v 0.8678 z m 4.6676,0 v -0.8678 h 5.9406 v 0.8678 z m 5.9406,0 v -0.8678 h 24.6959 v 0.8678 z m 24.6959,0 v -0.8678 h 33.0127 v 0.8678 z m 33.0127,0 v -0.8678 h 8.232 v 0.8678 z m 8.232,0 v -0.8678 h 21.2164 v 0.8678 z m 21.2164,0 v -0.8678 h 9.42 v 0.8678 z m 9.42,0 v -0.8678 h 9.505 v 0.8678 z m 9.505,0 v -0.8678 h 18.8401 v 0.8678 z m 18.8401,0 v -0.8678 h 7.0439 v 0.8678 z m 7.0439,0 v -0.8678 h 4.7525 v 0.8678 z m 4.7525,0 v -0.8678 h 3.4794 v 0.8678 z m 3.4794,0 v -0.8678 h 3.5644 v 0.8678 z m 3.5644,0 v -0.8678 h 4.7525 v 0.8678 z m 4.7525,0 v -0.8678 h 4.6676 v 0.8678 z m 4.6676,0 v -0.8678 h 4.7525 v 0.8678 z"
     id="path34" />
  <path
     style="fill:#ffffff;fill-rule:evenodd;stroke:#ffffff;stroke-width:1.22140002"
     inkscape:connector-curvature="0"
     d="m 187.5696,377.7111 c -0.9065,1.8131 -1.813,3.6264 -2.7195,5.4395 -1.5112,2.4777 -3.4753,4.3817 -5.893,5.7112 -3.2031,1.813 -7.2825,2.6895 -12.2385,2.6288 -7.7962,-0.0603 -14.2028,-3.4747 -19.2192,-10.2435 -4.7138,-6.3462 -7.0708,-13.8104 -7.0708,-22.3923 0,-8.159 2.4171,-15.2603 7.2525,-21.3041 5.1372,-6.4065 11.4826,-9.5794 19.0375,-9.519 5.6208,0.0607 10.758,1.8131 15.4116,5.258 l 2.901,-3.8072 2.5384,17.7684 c -0.9671,-5.0771 -3.3848,-9.1565 -7.2524,-12.2389 -3.8679,-3.0818 -8.4008,-4.5632 -13.5986,-4.4419 -6.1042,0.1205 -10.9389,3.2335 -14.5049,9.3379 -3.0824,5.3184 -4.593,11.6337 -4.5326,18.9468 0.0601,7.4336 1.5712,13.7497 4.5326,18.9468 3.4452,5.9836 8.28,9.4586 14.5049,10.4255 0.9065,0.1213 1.7829,0.1812 2.6288,0.1812 4.2307,0 8.3103,-1.45 12.2392,-4.3512 2.7195,-2.1152 4.7137,-4.2307 5.983,-6.346 z m 42.7896,-8.7032 c 0,5.923 -1.6923,11.0603 -5.0772,15.412 -3.6257,4.7137 -8.1283,7.0707 -13.5073,7.0707 -5.3788,0 -9.8819,-2.357 -13.5077,-7.0707 -3.3848,-4.3517 -5.0765,-9.489 -5.0765,-15.412 0,-5.4995 1.7827,-10.3042 5.3481,-14.4139 3.566,-4.1099 7.9778,-6.1647 13.2361,-6.1647 5.258,0 9.6698,2.0548 13.2358,6.1647 3.566,4.1097 5.3487,8.9144 5.3487,14.4139 z m -5.4394,0 c 0,-4.8954 -1.0877,-9.1255 -3.2635,-12.6915 -2.4784,-4.0493 -5.772,-6.0741 -9.8816,-6.0741 -4.11,0 -7.4036,2.0248 -9.8819,6.0741 -2.1753,3.566 -3.2635,7.7961 -3.2635,12.6915 0,5.4394 0.9975,10.0633 2.9917,13.8708 2.2966,4.5326 5.6208,6.7992 9.972,6.7992 4.4124,0 7.8267,-2.2666 10.2444,-6.7992 2.0548,-3.8075 3.0824,-8.4314 3.0824,-13.8708 z m 39.6167,-16.1362 c -0.1208,1.5713 -1.239,2.4477 -3.3542,2.6289 -1.4505,0.1207 -2.4931,-0.0757 -3.1278,-0.5894 -0.6347,-0.5136 -1.1633,-1.5258 -1.5865,-3.037 -0.1812,-0.6647 -0.7852,-0.9972 -1.8128,-0.9972 -1.7529,0 -3.4449,0.7857 -5.0768,2.357 -1.9341,1.8737 -2.901,4.2914 -2.901,7.2527 v 23.2985 c 0,1.209 0.3022,2.2666 0.9065,3.1731 0.8464,1.2082 2.0546,1.8131 3.6264,1.8131 v 0.9065 h -14.5049 v -0.9065 c 1.3294,0 2.5381,-0.6049 3.6258,-1.8131 0.6049,-0.6653 0.9065,-1.7223 0.9065,-3.1731 v -29.9165 h -6.3454 l 11.7851,-5.4394 v 6.3459 c 0.3628,-1.2694 1.8734,-2.6595 4.5329,-4.1701 2.9613,-1.6316 5.6809,-2.357 8.1589,-2.1758 3.6868,0.2418 5.4091,1.7223 5.1673,4.4424 z m 47.141,36.8062 h -14.5052 v -0.9065 c 1.3301,0 2.5385,-0.6049 3.6267,-1.8131 0.6041,-0.6653 0.9065,-1.7223 0.9065,-3.1731 v -22.2108 c 0,-3.2032 -0.9972,-5.8173 -2.992,-7.8415 -1.9941,-2.0248 -4.4722,-3.0371 -7.4335,-3.0371 -6.9503,0 -10.4256,3.4147 -10.4256,10.2439 v 22.8455 c 0,1.209 0.3025,2.2666 0.9065,3.1731 0.8465,1.2082 2.0549,1.8131 3.6267,1.8131 v 0.9065 h -14.5052 v -0.9065 c 1.3295,0 2.5385,-0.6049 3.6261,-1.8131 0.6046,-0.6653 0.9065,-1.7223 0.9065,-3.1731 v -29.9165 h -6.3456 l 11.785,-5.4394 v 5.8923 c 2.6595,-3.6258 6.1342,-5.5899 10.4256,-5.8923 4.2913,-0.3022 7.9472,0.6647 10.9695,2.9012 3.2638,2.4171 4.8954,5.832 4.8954,10.2439 v 22.2108 c 0,1.209 0.3019,2.2666 0.9065,3.1731 0.8459,1.2082 2.0549,1.8131 3.6261,1.8131 z m 37.4406,-23.5707 h -26.2899 c -0.1812,1.209 -0.2719,2.6896 -0.2719,4.4419 0,10.2144 3.5654,15.6838 10.6974,16.4092 3.5654,0.3623 6.7385,-0.5142 9.519,-2.6294 1.4502,-1.1483 2.5685,-2.387 3.3543,-3.7165 l 1.5412,1.6316 c -3.0824,6.2249 -8.2503,9.3073 -15.5027,9.2466 -5.7413,-0.0603 -10.0624,-2.9006 -12.9637,-8.5212 -2.3573,-4.6536 -3.3542,-10.0026 -2.9914,-16.0463 0.3019,-5.3788 2.1753,-9.8212 5.6208,-13.3266 3.4447,-3.5053 7.5543,-5.2279 12.329,-5.1672 5.8626,0.0606 10.1231,2.9919 12.7826,8.7936 1.4502,3.2638 2.1753,6.2249 2.1753,8.8843 z m -5.3481,-2.7195 c 0,-1.8133 -0.5143,-3.9889 -1.5412,-6.5276 -1.8131,-4.2302 -4.5633,-6.376 -8.2497,-6.4361 -3.9288,-0.0607 -6.9202,2.0548 -8.9751,6.3454 -1.3297,2.7201 -1.9944,4.926 -1.9944,6.6183 z m 21.6209,-20.8508 c -1.8431,0 -2.7649,-0.8765 -2.7649,-2.6289 0,-1.8737 0.8912,-2.8108 2.6742,-2.8108 1.8437,0 2.7649,0.9065 2.7649,2.7196 0,1.8136 -0.8912,2.7201 -2.6742,2.7201 z m 7.2071,47.141 h -14.5049 v -0.9065 c 1.3295,0 2.5382,-0.6049 3.6264,-1.8131 0.6043,-0.6653 0.9065,-1.7223 0.9065,-3.1731 v -29.9165 h -6.3459 l 11.785,-5.4394 v 35.3559 c 0,1.209 0.3022,2.2666 0.9071,3.1731 0.8459,1.2082 2.0546,1.8131 3.6258,1.8131 z m 23.5707,0 h -14.5052 v -0.9065 c 1.3294,0 2.5384,-0.6049 3.6266,-1.8131 0.6041,-0.6653 0.9066,-1.7223 0.9066,-3.1731 v -50.3138 h -6.346 l 11.7848,-5.4397 v 55.7535 c 0,1.209 0.3025,2.2666 0.9071,3.1731 0.8458,1.2082 2.0548,1.8131 3.6261,1.8131 z m 23.5703,0 h -14.5049 v -0.9065 c 1.3295,0 2.5382,-0.6049 3.6264,-1.8131 0.6044,-0.6653 0.9065,-1.7223 0.9065,-3.1731 v -50.3138 h -6.3459 l 11.785,-5.4397 v 55.7535 c 0,1.209 0.3022,2.2666 0.9068,3.1731 0.8462,1.2082 2.0549,1.8131 3.6261,1.8131 z m 38.3474,-23.5707 h -26.2899 c -0.1814,1.209 -0.2719,2.6896 -0.2719,4.4419 0,10.2144 3.5654,15.6838 10.6971,16.4092 3.5654,0.3623 6.7386,-0.5142 9.5191,-2.6294 1.4502,-1.1483 2.5684,-2.387 3.3542,-3.7165 l 1.5412,1.6316 c -3.0824,6.2249 -8.25,9.3073 -15.5027,9.2466 -5.7413,-0.0603 -10.0624,-2.9006 -12.9637,-8.5212 -2.357,-4.6536 -3.3542,-10.0026 -2.9911,-16.0463 0.3016,-5.3788 2.1753,-9.8212 5.6205,-13.3266 3.445,-3.5053 7.5544,-5.2279 12.3291,-5.1672 5.8626,0.0606 10.1233,2.9919 12.7828,8.7936 1.4499,3.2638 2.1753,6.2249 2.1753,8.8843 z m -5.3484,-2.7195 c 0,-1.8133 -0.5142,-3.9889 -1.5412,-6.5276 -1.8131,-4.2302 -4.5629,-6.376 -8.2497,-6.4361 -3.9288,-0.0607 -6.9202,2.0548 -8.9748,6.3454 -1.33,2.7201 -1.9947,4.926 -1.9947,6.6183 z"
     id="path36" />
  <path
     style="fill:#ffffff;fill-rule:evenodd"
     inkscape:connector-curvature="0"
     d="m 288.125,312.3343 c -3.2394,-0.3186 -5.773,-1.4539 -7.5864,-3.3642 -1.8136,-1.9241 -2.7133,-4.4572 -2.7133,-7.586 0,-5.302 2.7275,-10.1194 8.1956,-14.4386 5.4541,-4.3327 11.6557,-6.4925 18.5774,-6.4925 1.4533,0 2.4505,0.0692 2.9902,0.2075 0.54,0.125 0.8164,0.3603 0.8164,0.6786 0,0.2217 -0.1105,0.3875 -0.318,0.5126 -0.2217,0.1241 -0.5261,0.1794 -0.9414,0.1794 h -1.2184 c -1.9377,0 -3.9866,0.3597 -6.1324,1.0936 -2.1597,0.7336 -4.2639,1.7719 -6.3539,3.1286 -3.6689,2.4641 -6.6863,5.3853 -9.0261,8.7627 -2.3391,3.3778 -3.5022,6.3961 -3.5022,9.0397 0,2.1458 0.6367,3.8072 1.9242,5.0114 1.2872,1.2044 3.2255,1.9239 5.8283,2.173 1.8272,-3.5436 4.1669,-6.9763 6.9905,-10.3269 2.8239,-3.3363 6.1047,-6.5341 9.8289,-9.5797 4.2497,-3.4324 8.1952,-6.063 11.8633,-7.8902 3.6549,-1.8272 6.8249,-2.7411 9.5108,-2.7411 2.1316,0 3.7927,0.5125 4.9694,1.5228 1.1769,1.0108 1.7583,2.4366 1.7583,4.2775 0,2.1322 -0.9828,4.4852 -2.9628,7.0324 -1.9658,2.5608 -4.9697,5.3853 -8.998,8.4997 -3.35,2.5753 -6.8802,4.6378 -10.5624,6.2017 -3.6961,1.578 -7.6133,2.6722 -11.7803,3.2947 -1.4955,2.423 -2.6441,4.7486 -3.4469,6.9497 -0.8169,2.2011 -1.2183,4.0836 -1.2183,5.648 0,2.6025 0.6783,4.5266 2.0211,5.7861 1.3566,1.26 3.433,1.883 6.2152,1.883 2.0217,0 4.1533,-0.4291 6.4097,-1.2736 2.2422,-0.8586 4.3608,-2.0353 6.3678,-3.558 1.7308,-1.2872 3.0733,-2.7822 4.0283,-4.4714 0.9555,-1.6886 1.44,-3.3636 1.44,-5.0108 0,-1.6197 -0.4983,-2.9486 -1.4811,-3.9872 -0.9828,-1.0383 -2.2564,-1.5639 -3.8347,-1.5639 -2.2428,0 -4.1531,0.7475 -5.7311,2.2286 -1.5781,1.4811 -2.8797,3.7514 -3.8764,6.8105 -0.1658,0.5125 -0.3322,1.1631 -0.5261,1.9384 -0.2492,1.135 -0.5953,1.703 -1.0519,1.703 -0.2492,0 -0.4428,-0.0969 -0.5678,-0.305 -0.1381,-0.2075 -0.2075,-0.4841 -0.2075,-0.8308 v -0.6089 c 0,-3.4053 1.0797,-6.2986 3.2394,-8.6936 2.1733,-2.395 4.8036,-3.5852 7.9183,-3.5852 2.2981,0 4.1117,0.6366 5.4542,1.9238 1.3427,1.2881 2.0075,3.032 2.0075,5.247 0,1.6891 -0.5536,3.4611 -1.6614,5.3572 -1.1072,1.8966 -2.6025,3.5716 -4.4578,5.0249 -1.9241,1.4956 -4.0836,2.6581 -6.4925,3.5164 -2.4086,0.8445 -4.7894,1.2736 -7.1427,1.2736 -4.7069,0 -8.5414,-1.2872 -11.5316,-3.848 -2.9897,-2.5753 -4.4853,-5.8283 -4.4853,-9.7736 0,-0.9692 0.125,-2.0353 0.3597,-3.1703 0.2498,-1.1352 0.6095,-2.3949 1.0942,-3.8066 z m 11.9602,-2.1458 c 3.7659,-0.4848 7.4892,-1.7442 11.1714,-3.7514 3.6966,-2.0211 7.2822,-4.7622 10.7705,-8.2233 2.533,-2.5055 4.5822,-4.9972 6.1463,-7.4752 1.5503,-2.4778 2.3256,-4.402 2.3256,-5.7861 0,-0.9973 -0.277,-1.772 -0.817,-2.3261 -0.5397,-0.5536 -1.2872,-0.8306 -2.2699,-0.8306 -2.5331,0 -6.4789,2.6994 -11.8361,8.0847 -5.3433,5.3989 -10.5072,12.1677 -15.4908,20.308 z"
     id="path38" />
</svg>
