<svg xmlns="http://www.w3.org/2000/svg" width="595.2756" height="841.8898">
  <path d="M55.0345 134.4246v480h479.9999v-480H55.0345z" stroke-width=".216" stroke="#9c9e9f" fill-rule="evenodd" fill="#9c9e9f"/>
  <path d="M210.767 442.3065c.3174 0 .4756.1587.4756.4756.1361.1817.1588.4533.0678.8159 0 .2264-.0451.4076-.1355.5434l-.9516 2.1747c-.1361.2265-.2492.4187-.3399.5774-.0904.1588-.2265.4419-.4073.8496l-.612 1.0193 2.5146-2.5143 1.6307-1.427 1.7672-1.3592.6114-.4076c.0904 0 .2265-.0454.4079-.1361l.3399-.2038c.0904-.0454.2265-.0904.4076-.1358.1809-.0456.453-.068.8155-.068v.068c0 .0454.0678.0678.2038.0678.2265.1357.3736.2945.4414.4756.0683.1814.1477.453.2381.8155 0 .3626-.0453.6115-.1361.7475-.0453.0905-.0677.2039-.0677.3399 0 .0904-.0116.1698-.0343.2381-.0224.0678-.034.1242-.034.1698-.0904.1812-.1698.362-.2376.5434-.0683.1812-.2154.4306-.4419.7475l-1.4947 2.5146 1.0871-.9516 1.4953-1.3592 1.6307-1.4269.1358-.0678c.0907-.091.1928-.1814.3062-.2721.1131-.0904.2375-.1587.3736-.2038l1.0871-.4757c.0453 0 .102-.0226.1697-.0677.0681-.0457.2606-.0683.5777-.0683.0454 0 .1358.0226.2719.0683.1361.0451.2492.1131.3399.2038 0 .0451.0453.1131.136.2038l.1358.4757v.4759c0 .1355-.0453.3169-.1358.5434l-.2721.8152c-.0904.091-.1361.2041-.1361.3399-.1355.0907-.2488.2719-.3396.544-.1811.3169-.3055.5434-.3738.6794-.0678.1355-.1698.2943-.3053.4754v-.136l-.0683.3398-.7475 1.2235.068-.0681-.2716.6117-.2043.7475c-.0905.1358-.1245.2492-.1018.3396.0229.0907.034.1812.034.2722 0 .045.0227.1131.0678.2038.0456.0904.1814.136.4079.136.0907 0 .1584.0111.2038.0338.0456.0226.136.0113.2721-.0338.1355-.0456.2716-.0683.4076-.0683.0904 0 .1471-.0227.1698-.0677.0227-.0457.0567-.0683.1018-.0683l.5439-.1355h-.0683c.1361-.091.2832-.1588.442-.2041.1584-.0451.3282-.1358.5096-.2719l.476-.2718-.0684.068.9516-.6117c.1355-.0451.2943-.1361.4754-.2716.1814-.136.3626-.2718.544-.4079l.8152-.7475c.2719-.1814.5891-.4303.9516-.7477.3626-.317.6568-.6112.8833-.8833h.2038c.0453 0 .0683-.0224.0683-.0678.0904 0 .1698.0111.2376.0338.0677.0229.2154.125.4419.3061.045.2718.045.5434 0 .8155 0 .0451-.1134.1809-.3399.4077l-.6795.6794-.6794.5437-.5437.4757.0677-.1361-.6794.5437c-.3172.3169-.7475.6117-1.2915.8833l-.2038.136c-.1361.1361-.2942.2605-.4757.3736-.1811.1134-.3172.1701-.4076.1701l.068-.1358c-.2264.2265-.4983.4076-.8155.5437-.3169.1361-.6117.2492-.8833.3399-.2264.1355-.4529.2035-.6794.2035l-.5437.2038h-.2721c-.3169 0-.6684-.0564-1.0531-.1698-.3852-.1131-.6457-.3058-.7818-.5774-.0904-.2721-.1471-.5213-.1698-.7478-.0227-.2265-.0113-.498.0337-.8152.091-.4983.2155-.9516.3742-1.3592.1585-.4079.3283-.7929.5097-1.1551l.6114-1.2232.2038-.3399c.1814-.2265.3059-.4192.3742-.5774.0677-.1587.1471-.3288.2375-.5097v.0678c0-.0907.0227-.1587.0678-.2038l.1361-.1361.136-.6794c-.3172.1357-.6341.3169-.9516.5434l-.3398.2721h.0683l-.6117.4076-.6798.6117-.5434.3399h.068l-2.9902 2.7181c-.2265.2265-.4644.4643-.7135.7135-.2492.2489-.4419.4643-.5774.6455l-.3399.3396-.2041.2721c-.0907.1358-.2378.2718-.4416.4076-.2039.1358-.351.2718-.4417.4079h-.5437c-.1811-.0907-.2831-.2038-.3058-.3399-.0224-.136-.034-.2491-.034-.3398v-.2719c0-.0904.0456-.1811.136-.2715 0-.1361.0678-.3399.2038-.6118.1361-.136.2038-.2721.2038-.4076.7252-1.3592 1.3819-2.4919 1.971-3.3979l.4076-.8155s.0904-.1361.2718-.4076c.0451-.0907.1134-.2038.2039-.3399.2264-.2265.4076-.487.5436-.7815.1361-.2945.2943-.6231.4757-.9853.0451-.0454.0677-.1358.0677-.2719v-.136l-.1357-.1361h-.2039c-.3171.091-.6567.2495-1.0193.4759-.3623.2265-.6571.453-.8835.6795-.317.2265-.6115.4646-.8833.7135-.2716.2494-.5664.5097-.8833.7818l-1.8351 1.563-1.359 1.5627-1.2912 1.427-1.2911 1.6311-.5437.8158-.2716.3393-.7478.5439c-.4529 0-.7018-.0909-.7472-.2721-.0907-.2718-.0907-.5661 0-.8833.0904-.3169.1809-.5663.2719-.7472 0-.091.0677-.2043.2038-.3398-.0454 0-.0567-.0567-.034-.1698.0224-.1134.079-.2155.17-.3062l.2716-.4079.2718-.7472.4754-.8158c.3626-.5885.6684-1.1548.9179-1.6985.2491-.544.5547-1.1104.9173-1.6988.0453-.2265.1471-.4873.3058-.7818.1582-.2943.3059-.5774.4414-.8493.2721-.6341.5439-1.2231.8155-1.7668.2721-.5437.5437-.8606.8158-.9516zm25.0078.6795c.1355 0 .2715.0343.4076.1023.1361.0677.2718.1471.4076.2375.1814 0 .3175.0905.4079.2722.1361.0904.2038.1808.2038.2715 0 .1361.0338.2265.1021.2719.0677.0456.1017.136.1017.2721v-.0683c.1815.3172.2492.6003.2039.8495-.0451.2492-.1134.487-.2039.7135l-.4759.6117-.6111.8155c-.0457.0451-.1134.1134-.2039.2038-.0909.0908-.1587.1812-.2043.2716-.0451.0456-.0678.091-.0678.1361l-.136.136s-.0451.0454-.1358.1361c-.1812.2716-.3623.6452-.5437 1.1208-.1811.4759-.3172.8496-.4076 1.1217l-.2719.8833c0 .0904-.0113.1471-.034.1698-.0227.0229-.034.0793-.034.17 0 .0905.023.2038.068.3396 0 .0907.0114.1812.0343.2719.0221.0907.0338.1814.0338.2718l.2038.4076v-.0677c0-.0907.0677-.0678.2038.0677h-.0678l.4757.3399h.2715c.0457 0 .0908.0227.1361.068.0451.0451.0907.0678.1361.0678.045-.0904.0904-.1131.1355-.0678.0456.0451.1134.0678.2043.0678.0905-.0904.2039-.1358.3396-.1358h.3399c.0904 0 .1471-.0224.1698-.068.0224-.0454.0791-.0678.1701-.0678l.5434-.136.4076-.1358.6117-.3399 1.2912-.8833.6795-.4076.6457-.6457c.2038-.2038.419-.3736.6457-.5097l.6795-.6117 2.378-2.2425c.091-.1361.1927-.2151.3061-.2378.1131-.0227.2829-.0794.5097-.1698l.3396.2715c.1811.2265.2265.3853.136.4757-.0904.0907-.2038.2494-.3398.4759-.7699.6795-1.2912 1.2005-1.5628 1.5631-.2721.3622-.5663.7021-.8835 1.0193 0 0-.0454.0453-.1358.1358l-.1361.136-1.563 1.2232-.4756.4754c-.4984.3174-1.008.6573-1.5293 1.0193-.5208.3625-1.0304.6117-1.529.7478-.0451 0-.0905.0224-.1355.0677-.0454.0457-.1134.0681-.2039.0681-.2718.0907-.6117.1357-1.0193.1357-.1361.0457-.3625.0683-.6795.0683 0 .0905-.0909.1355-.2721.1355-.136 0-.2491-.0221-.3399-.0677-.0904-.0454-.3169-.0904-.6794-.1361l.0683.0683c-.0456 0-.091-.0226-.1361-.0683h-.0683l-.4754-.2715c-.2718-.1814-.4983-.419-.6794-.7135-.1814-.2945-.2948-.5777-.3399-.8493-.0453-.3625-.091-.714-.1361-1.0539-.0453-.3393.023-.7583.2039-1.2569v-.0677l-.4077.2715-.5434.4757c-.1814.2265-.4192.4076-.714.5437-.2942.136-.5548.2718-.7812.4079l-.1361.0677c-.3623.2265-.6681.3853-.917.476-.2495.0904-.4646.1811-.6457.2715-.0457 0-.0908.0116-.1361.0343-.0451.0224-.0904.0338-.1361.0338-.0904.045-.1698.045-.2375 0-.0678-.0454-.1701-.0681-.3059-.0681l-.3398.0681c-.1361 0-.2943-.0681-.476-.2036-.1808-.0456-.2829-.0683-.3053-.0683-.0227 0-.0567-.1134-.102-.3399 0-.0904-.034-.1471-.1018-.1698-.0683-.0226-.102-.0566-.102-.1017l.1357-.9516.2719-.5434-.1361.0677.2041-.4753.3399-.6117.5434-.8159c.0451-.045.068-.1131.068-.2038l.3396-.4756 1.563-1.9707-.136.0681c.091-.0907.1814-.1701.2721-.2379.0904-.0677.1811-.1471.2718-.2375l.8836-.7478.5434-.4759-.0677.136 1.2231-.8832c.2265-.1812.6231-.3626 1.1894-.5437.5661-.1812 1.0304-.2721 1.393-.2721zm-7.2034 8.0866c-.0905.1817-.0905.2832 0 .3062.0907.0226.2378-.0114.4416-.1018.2041-.091.4306-.2044.6795-.3399.2491-.136.4419-.2491.578-.3398.6794-.4079 1.2568-.7816 1.7328-1.1214.4756-.3399.9626-.7589 1.4607-1.2569l1.0876-1.0877.1355-.1355c.091-.1817.2044-.3398.3399-.4759.1361-.1361.2492-.2948.3399-.4756l.7477-.9514c-.0456-.0453-.0566-.102-.0343-.1698.0227-.0683.0343-.1476.0343-.2381l-.2721-.2715h-.4756c-.2716 0-.521.0904-.7475.2715l-.5437.2719c-.0904.0451-.2035.1134-.3396.2038-.2721.1811-.4533.2945-.5437.3399 0 0-.0227.0453-.068.136l-.8836.7472c-.0904.0908-.2148.2155-.3736.3739-.1587.1588-.2832.2603-.3736.3059-.0907.2718-.2721.453-.5437.5434l-.136.3399-1.1554 1.3592-.5434.8155-.476.6795zm18.8234-9.0377c.1361 0 .3172.0678.5437.2038.0454.0905.0904.1698.1361.2376.0451.0683.0677.1477.0677.2381l-.0677.6114-.2721.6117-.2716.4077-.6117 1.0193-.3399.5437-.6117 1.0193.8155-.6794c.9967-.9513 1.7669-1.6198 2.3108-2.0047.5434-.3852.951-.6684 1.2232-.8493l.5434-.2038c.2267.0905.4643.1355.7135.1355.2494 0 .4643.2722.6457.8156l-.068.9515-.0681.4077c-.0904.0453-.1358.1587-.1358.3398l-.3398.8156-.2716.4076c-.0456.1361-.102.2602-.1701.3736-.068.1134-.1247.2154-.1698.3059l-.4756.6797-.3399.8155-.2721.6112-.2035.7478c0 .3172-.023.5663-.0681.7475 0 .0453-.0113.0793-.0337.102-.0227.0224-.0343.0564-.0343.1018v.4076c0 .1814.0453.3625.1361.544 0 0 .0453.045.1357.1355l.5437.4079c.1361.045.2381.0793.3059.1017.0677.0227.1471.0343.2378.0343h.2718c.0905 0 .1928-.0116.3059-.0343.1134-.0224.2152-.0337.3056-.0337.2718 0 .4306-.023.4756-.068l1.0194-.5434-.0678.0677.8153-.5437-.1355.1361.4753-.2719.4757-.3398.1361-.0678c.0904-.0907.1811-.1587.2718-.2038.0907-.0456.1811-.091.2718-.1361l1.1552-.8155 2.5823-2.0387.2038-.136c0-.0451.0454-.0904.1361-.1355.0904-.0457.2492-.023.4757.0677h.0677s.068.0678.2038.2038c.1361.2265.0683.4079-.2038.5434-.2718.1361-.4303.3172-.4757.5437l-.8832.9516-1.3592 1.1554-.1361.0678c0 .1811-.0904.2718-.2716.2718-.0904.0451-.1814.1134-.2718.2038l-.2038.2038c-.3172.2722-.6004.487-.8496.6458-.2491.1584-.5096.3058-.7812.4416l-.4759.3396-.5434.2721c-.1361.0904-.2948.1698-.476.2376-.1811.0683-.3398.125-.4756.17l-1.1554.3396c-.0904.0457-.2265.0683-.4076.0683h-.6115c-.2265 0-.4306-.0226-.6117-.0683-.0453 0-.0904-.0226-.1361-.0677-.045 0-.0904-.0227-.136-.068-.0451 0-.1015-.0114-.1698-.0341-.0678-.0226-.1245-.034-.1698-.034-.5437-.3169-.9062-.6568-1.0871-1.0193h.0678l-.1358-.5434c0-.0457-.0227-.1134-.0681-.2038-.045-.0907-.0677-.2265-.0677-.4079v-.9513c0-.1812.0451-.3626.1358-.5437.045-.2719.1244-.6001.2378-.9854.1131-.3852.2375-.6908.3736-.9172 0 .045.0116.011.034-.1021.0227-.1134.1247-.3509.3059-.7135l.4079-.9516c.1355-.2264.2715-.4303.4076-.6114.1361-.1814.2038-.3169.2038-.4079l.5437-1.0871v-.2718c-.0907.0907-.1811.1244-.2718.1017-.0905-.0226-.1815.0117-.2719.1021l-.6794.4076.1357-.0677-1.6988 1.4269-1.2231 1.0871-2.2425 2.5146-.2721.2719c-.0451.0907-.0678.1584-.0678.2038 0 .045-.0227.068-.0677.068 0 .0454-.0117.0904-.0343.1358-.0224.0456-.1018.1811-.2379.4076l-.9515 1.6991-.8833 1.2231.136-.068c-.0907.0907-.1698.1928-.2378.3062-.068.1131-.2151.1921-.4419.2375-.2716 0-.453-.1021-.5434-.3059-.0907-.2038-.1361-.3736-.1361-.5096l.2038-.6115v-.136c0-.0905.0227-.1588.0684-.2038.045-.1358.1244-.2946.2375-.4757.1134-.1811.2381-.3852.3736-.6117l.4082-.7475.5434-.8833.2038-.3399.2721-.4756c.0451-.0451.0678-.0907.0678-.1361v-.0677s.0677-.1134.2038-.3399c.2265-.3169.4986-.7702.8155-1.3592l.5437-.951.3396-.7478.7475-1.4947c0-.1361.068-.2721.2041-.4079 0-.0907.0224-.1701.0677-.2379.0457-.0683.0681-.1471.0681-.2381.0907-.2715.2491-.5887.4756-.951.2265-.3625.4303-.5437.6117-.5437zm22.1534 1.9026c.0907.0908.1474.1585.1698.2039.0226.0456.0343.136.0343.2721v.8152l-.3399.3396c-.2719.2721-.4757.5437-.6117.8155l-.4077.3399-1.1554 1.427-.2035.2721c-.0456.0904-.0683.1585-.0683.2035l-.3399.4077c-.045.0909-.0677.1587-.0677.2043-.0905.1355-.2038.2943-.3399.4754-.1358.1814-.2492.3852-.3396.6117l-.2716.4757.1355-.1358-.2038.4073c0 .091-.034.1928-.1017.3062-.0681.1131-.1021.2151-.1021.3058l-.136.2716v.6117c0 .0454.0116.0904.034.1361.0227.045.0343.0904.0343.136h.5434c.3172 0 .7021-.1023 1.1551-.3061.453-.2035.9059-.419 1.3592-.6455l.7478-.3398.2038-.1361c.1808-.0451.4073-.1582.6795-.3399l.5436-.4073c.0454 0 .0794-.0113.1021-.034.0224-.0227.0788-.034.1698-.034l.1355-.0681.2038-.2715 1.2237-.8156.8153-.612c.1814-.2264.3852-.4413.6117-.6451.2265-.2041.453-.4193.6794-.6458l.4077-.2718.5436-.5437c.0908-.0453.1925-.1134.3059-.2038.1131-.0904.2154-.1361.3059-.1361.0904 0 .1587.023.2038.0681.0453.0453.1131.1131.2038.2041.136.0904.2038.2265.2038.4076 0 .1808-.0451.3396-.1358.4756l-.2038.2039-.1358.136-.3398.4076-.2722.1361c-.2265.2265-.4756.4303-.7472.6112l-.5437.4081-.6117.4074-.3399.4759-.951.8155v-.0683c-.1814.1817-.3399.3175-.4759.4082-.1358.0904-.2945.1812-.4757.2716l.0678-.0678-.3399.2038c-.0904.1358-.2259.2492-.4073.3396-.1812.0907-.3399.1812-.476.2722-.3169.3169-.6568.5207-1.0193.6114-.4981.2265-1.1098.4756-1.8346.7478-.7251.2715-1.4046.4073-2.0387.4073h-.3399c-.1357 0-.2491-.0227-.3395-.068-.0457 0-.0794-.0224-.1024-.0678-.0221-.045-.0788-.0907-.1698-.136-.1355-.0905-.2942-.2716-.4753-.5437-.0454 0-.0681-.0451-.0681-.1358v-.1358c-.045-.091-.068-.2945-.068-.6117 0-.3169.0451-.6568.1361-1.0193 0-.0905.034-.2038.1017-.3399.0681-.1361.1471-.3169.2381-.5434l-.6797.6795c-.0907.0904-.1814.1698-.2719.2378-.0904.068-.2491.1471-.4759.2378l-.2715.1358-.2039.2718c-.0907.0907-.2264.1812-.4079.2722-.1811.0904-.3169.1811-.4076.2715-.2718.1814-.4983.2948-.6795.3399-.0907.0453-.1814.0904-.2721.1358-.0904.0456-.1131.0229-.0677-.0678l-.3399.2038c-.0904.0451-.1925.0907-.3059.1361-.1131.0451-.1924.0677-.2375.0677 0 .0454-.1361.0678-.4079.0678h-.4076c-.1361 0-.2945-.0678-.476-.2038-.3625-.1809-.5663-.453-.6114-.8155v-.9511c0-.0907.0113-.1814.034-.2721.0227-.0904.034-.2489.034-.4754.1358-.4986.2832-.9516.4417-1.3592.1584-.4079.3512-.7928.5777-1.1551.0453 0 .0904-.023.1357-.068.0908-.0907.1585-.2041.2039-.3396.136-.2265.3509-.5553.6457-.9856.2942-.4303.5321-.7589.7135-.9853l.8155-1.1554.2716-.2039.2721-.3398.3399-.3396.4756-.3399c.1355 0 .2716.0337.4076.102.1361.0678.2038.1472.2038.2379.0454.0904.0678.2945.0678.6117 0 .1358-.0224.2492-.0678.3396 0 .0907-.034.1927-.102.3061-.0677.1131-.1471.2376-.2378.3736l-.2038.2038-.6118.8156-1.8345 2.2425-.6795.8832c-.0456.0451-.0683.1361-.0683.2716-.0904.0456-.1355.1587-.1355.3399-.0454.091-.091.1477-.1361.1698-.0453.0229-.068.0567-.068.1023-.0451.0453-.068.0904-.068.1358v.068c0 .0454-.0111.0904-.0338.1358-.0226.0456-.034.0907-.034.136v.4077c0 .0453.0224.0904.0678.136.0907.0905.1587.1358.2038.1358.136-.0907.2721-.1358.4082-.1358.1355 0 .2715-.0456.4073-.136l.4076-.2038.7478-.4077c.0451 0 .1358-.068.2716-.2041l.4081-.2038h-.0683l.476-.4076c.0904-.0453.1808-.0904.2718-.1361.0904-.0453.1811-.1131.2716-.2038.2265-.0904.3625-.2038.4076-.3396l.544-.4081-.0681.0683.4079-.3399 1.3592-1.2232c.4981-.4529.9621-.9289 1.393-1.4272.4303-.498.8716-.974 1.3249-1.427l.2719-.4759.3398-.2716z" fill="#fff" fill-rule="evenodd"/>
  <path d="M294.08 425.1818l.2038.2038.3399.4077c.0454.136.0683.3625.0683.6797-.0456.1358-.0683.3852-.0683.7478l-.2038.2715c0 .2719-.0227.4303-.0677.4757l-.3399.8833-.2038.5437c-.0907.136-.1698.2491-.2381.3398-.0678.0905-.1698.2492-.3059.4757l-.5434 1.1554-.1361.3399c-.0904.0904-.1355.1811-.1355.2715-.0456.0454-.0683.091-.0683.1361-.045.0453-.0677.0794-.0677.102 0 .0227-.0227.0567-.0683.1018l-.1355.1358-.8833 1.4269-.4759.7478c-.0905.0907-.1361.1812-.1361.2716-.0454.0456-.0904.0683-.1358.0683-.0451 0-.068.0227-.068.0677 0 .1361-.0454.2722-.1358.4077-.0907.136-.1587.2491-.2038.3398-.0907.0454-.1361.0907-.1361.1358l-.3398.4082-.2719.3396-.2038.4754-.7475.8158-.4756.4756-.476.6795c-.1355.1361-.2942.2832-.4754.4416-.1814.1588-.3174.3512-.4079.578l-1.4269 1.4267-.3399.4076-.8155.8155-2.7182 3.0583-.8152.8156-.4079.3398-.6798.6112-.6794.5437-.4754.3399c-.0907.0907-.2265.1814-.4079.2718-.1811.0907-.2489.1361-.2038.1361-.3172.2264-.6114.4076-.8836.5436-.2718.1358-.5207.2716-.7472.4074-.0456.0907-.102.2038-.1701.3399-.068.136-.102.2264-.102.2721l-.3396.6794c-.0907.0905-.1244.1585-.1018.2039.0224.0453.0338.0904.0338.136l-.4079 1.0871c-.0451.0454-.0678.0794-.0678.1021 0 .0223-.0227.0566-.0677.1017-.0457.0454-.091.1134-.1361.2038-.0904.091-.1698.2155-.2381.3742-.0678.1582-.1244.2829-.1698.3736-.2265.2716-.3739.5321-.4416.7812-.0681.2492-.1472.5324-.2382.8496-.0904.0904-.1354.1814-.1354.2718-.091.1812-.1928.3399-.3059.476-.1134.1355-.2154.3846-.3059.7472-.1811.2265-.2945.4416-.3398.6457-.0451.2038-.0905.3736-.1361.5097-.0451.1811-.1015.3736-.1698.5774-.0677.2038-.1471.3739-.2378.5097l-.2719.5436c-.0904.0905-.1471.1928-.1698.3059-.0224.1134-.034.1928-.034.2378-.045.1358-.0677.2492-.0677.3396l-.2722.476c0 .0453-.011.0677-.0337.0677-.0229 0-.034.0454-.034.1361l-.4079 1.6988v.3398c0 .1361-.0224.2265-.0678.2719 0 .1358-.034.2489-.1023.3399-.0677.0904-.1244.1811-.1698.2715v.5437c0 .2265-.045.4079-.1355.5434-.0456.2268-.0683.4309-.0683.612v1.7666c.0456.0456.0683.1133.0683.2043.0905 0 .1471.0221.1698.0678.0224.0451.0567.0677.1018.0677.0904.0454.2265.0683.4079.0683.0451 0 .1018-.0116.1698-.0343.068-.0223.1925-.034.3739-.034h.0677s.0227-.045.0683-.1355l.5434-.2043.8833-.6112 1.0874-1.1554c.0904-.1361.2038-.2494.3396-.3399.136-.0904.2721-.2038.4082-.3398.045-.0454.0677-.1131.0677-.2039l.2719-.2718.2718-.4076v-.0678c0-.0456.0113-.0683.0337-.0683.0227 0 .0343-.0227.0343-.0677.0905-.0905.1922-.1928.3056-.3059.1131-.1134.1925-.2154.2381-.3058l1.0871-1.4948s.0227-.0456.0677-.136l.408-.7478v.0683c0-.0907.0229-.136.068-.136.0453 0 .068-.0227.068-.0678 0-.091.0224-.1587.0678-.2044.0456-.045.1134-.1131.2038-.2038l.2721-.3396.2038-.4076.3396-.7475-.068.0678.2041-.6118v.0684c0-.0457.0224-.0908.0677-.1361.0457-.0454.068-.0904.068-.1361 0-.0904.0227-.1811.0681-.2715.045-.091.0907-.1814.136-.2719.1355-.3172.2605-.612.3736-.8835.1134-.2719.1928-.5434.2379-.8156l.2038-.5434c0-.1811.0113-.3625.0343-.5436.0221-.1815.0337-.3172.0337-.4079.0451-.0908.0567-.1245.034-.1018-.0226.0227-.034-.0567-.034-.2381v-.1355s.0451-.0457.1361-.1361c.0904-.1811.1355-.3172.1355-.4076 0-.0454-.0111-.1247-.0338-.2381-.0226-.1134-.0566-.1928-.1017-.2378-.091-.0905-.1588-.1358-.2041-.1358h-.068c-.0454 0-.0905-.0227-.1358-.0678-.4533-.2267-.6798-.4759-.6798-.7477-.045 0-.0677-.0908-.0677-.2719-.0904-.0453-.1471-.1358-.1698-.2718-.0227-.1361-.034-.2716-.034-.4077v-.5436c0-.0454.0113-.0907.034-.1358.0227-.0457.0337-.0907.0337-.1361v-.136c0-.0451.068-.1131.2038-.2039.0457 0 .0907-.0226.1361-.0677.0904-.091.2265-.1361.4076-.1361.091 0 .1814.0114.2719.034.0907.0227.2038.1021.3398.2376l.2038.2044s.0227.0224.0684.0677c.1355.0904.2375.2038.3052.3399.0684.1358.1474.2942.2382.4756l.2715.6115c0 .0904.0116.136.034.136.0227 0 .0343.0227.0343.0678v.068h.3399c.0904.0451.2038.0907.3396.1361.1358.0451.2489.0677.3399.0677h.3398c.0905 0 .1698.023.2376.0681.0677.0453.2154.0453.4419 0 .1358 0 .2716-.0451.4076-.1358.0451 0 .1585-.0454.3399-.1361.0904 0 .2038-.0227.3396-.068.1361-.0451.2718-.0907.4076-.1358l.6798-.1358.3396-.136c.136-.0454.2948-.0905.4759-.1361.1811-.0451.2492-.0677.2038-.0677l1.427-.7475c.0453 0 .1247-.0227.2381-.0681.1131-.045.2148-.0907.3058-.136l.9511-.4077.4759-.2718.4076-.2038c.0904-.0451.1588-.0678.2038-.0678h.0681l.136-.136.8153-.5437.4079-.3396.5434-.4759.8835-.5437h.2038c.0454 0 .2039.0907.4757.2721.0456.1355.0456.2832 0 .4414-.0454.1587-.1361.2831-.2718.3739-.2265.2718-.4754.4983-.7475.6794l-.8156.6117c-.2715.2716-.4643.4303-.5774.476-.1134.045-.3509.1808-.7135.4076-.1814.1358-.3852.2718-.6117.4073-.2268.1361-.4303.2495-.6114.3399-.4082.0907-.7024.2038-.8836.3399-.1358.0453-.2608.102-.3739.1698-.1134.0683-.1471.102-.1017.102l-1.6988.6798c-.0907 0-.2722.045-.5437.136-.0904.0451-.1698.0905-.2381.1355-.0678.0454-.1471.0681-.2379.0681l-1.087.3398c-.3626.1361-.7816.2265-1.2575.2716-.4754.0456-.8716.0683-1.1891.0683-.1812.0904-.2832.1131-.3056.0678-.0227-.0451-.0794-.0905-.1698-.1361 0 .3625-.0227.589-.0683.6797v.2382c0 .0221-.0227.1014-.0678.2375 0 .1361-.0226.2942-.0683.4759-.045.1809-.0677.3169-.0677.4074-.0454.0456-.0678.0907-.0678.136v.0678c0 .0456-.0116.091-.0343.136-.0224.0457-.034.1134-.034.2039l-.2038.8155-.2716.8155-.3395.8158-.4082.5434.136-.136-.2038.4759c-.136.1355-.2038.3169-.2038.5434l-.6117.8836-.2719.5434c-.0907.0907-.1357.1817-.1357.2721l-.3396.4756-.3399.4077-.2721.4759h.136l-.8155 1.1548c-.2715.2722-.4303.453-.4759.544l-.6795.9513c-.0904.0904-.2149.2492-.3736.4757-.1585.2264-.2832.3849-.3736.4759l-1.6991 1.5627-1.0193.8153-.4076.3399-.7473.4079h-1.2237c-.2262 0-.3849-.0454-.4753-.1361v-.1361l-.4757-.2035c-.1811-.1811-.2832-.2832-.3059-.3061-.0229-.0227-.034-.0564-.034-.1015h-.0677c-.1361-.1361-.2155-.2381-.2381-.3059-.0227-.0683-.034-.125-.034-.1701 0-.0453-.0111-.068-.0338-.068-.0229 0-.034-.0451-.034-.1358v-.2718c-.091-.453-.1361-.8606-.1361-1.2232-.0453-.3625-.0564-.7134-.0337-1.0533.0221-.3399.0788-.6911.1698-1.0534v-.5777c0-.2038.0224-.4416.0678-.7134v-.4077l.3398-1.1554c.0904-.1811.1361-.4076.1361-.6794 0-.1812.0227-.3172.0677-.4077 0-.0456.0454-.1471.1361-.3058.0904-.1588.1587-.2832.2038-.3739 0-.3169.0227-.4983.068-.5434.1355 0 .2039-.0683.2039-.2038l.2038-.6795c0-.2268.0904-.3855.2715-.4759.0454-.1361.091-.2948.1361-.4757.0453-.1811.1131-.3398.2038-.4759.0454-.0451.068-.1361.068-.2716.1361-.136.2038-.2718.2038-.4079l.2038-.6114c.0908-.1361.1361-.2605.1361-.3736 0-.1134.1811-.4876.5437-1.1217l.6117-1.1551v.068l.2038-.5434.3396-.7477v.068c.0907-.091.1361-.2041.1361-.3399l.8835-1.631c0-.0451.0338-.1131.1015-.2039.0683-.0904.1021-.1587.1021-.2038.0907-.2265.17-.4189.2378-.5777.0683-.1584.2154-.3509.4419-.5777l.2038-.5434c.0454-.0907.0794-.1927.1021-.3058.0226-.1134.0793-.2152.1698-.3059l1.6991-2.9222s.0788-.1355.2375-.4076c.1587-.2719.3509-.5664.5777-.8833.2265-.3172.4416-.6341.6454-.9516.2039-.3169.351-.5207.442-.6114.3622-.453.6454-.8266.8495-1.1214.2038-.2943.4187-.6001.6452-.9173l.3399-.5437c.0909-.0904.1814-.2035.2721-.3396.0904-.1361.1808-.2948.2715-.4759.0907-.2265.2265-.453.4079-.6795.1812-.2265.385-.453.6115-.6795.091-.0907.1587-.2038.2041-.3398.045-.1361.1134-.2265.2038-.2716l.4076-.6117c.3626-.4076.6908-.8379.9853-1.2912.2945-.453.6231-.8609.9856-1.2234l.6795-.9513.7475-.7472.6795-.9516 1.2231-1.3593.9513-1.0193c.0454-.0904.068-.1582.068-.2038l.5437-.5437c.0905-.0904.1925-.1471.3059-.1698.1134-.0227.1698-.0794.1698-.1698.3172-.3172.6004-.5774.8495-.7818.2492-.2038.7586-.5096 1.529-.9173.1358 0 .2489-.0226.3399-.0677.0904 0 .1811-.0227.2716-.068l-.2038-.0681zm-13.0473 16.5133c-.1358.1811-.4076.5547-.8152 1.1211-.4079.5663-.8496 1.178-1.3252 1.8348-.476.6568-.9289 1.2915-1.3592 1.9029-.4303.6117-.7362 1.0761-.9173 1.393l.0677-.0678.4076-.3399 2.1748-1.9026 2.1064-2.0386 1.1554-1.1554.1361-.2716.2038-.2721.3399-.4077c.1808-.2264.3962-.4646.6454-.7137.2489-.2489.4643-.4643.6455-.6452l1.9709-2.1747.8155-1.0194.6795-.8158.4754-.6111.0683-.0683c.0904-.0905.1134-.1355.0677-.1355-.0451 0-.0451-.023 0-.0684 0-.0904.034-.1581.1021-.2038.068-.045.17-.136.3058-.2715l.5437-.8839s.0224-.045.0678-.1355l.2038-.3398.2721-.4079.951-1.4947.2044-.3399.5434-1.1554c.0451-.0454.1358-.2492.2716-.6117v.0683c0-.0907.0226-.1588.0683-.2038.045-.0457.0677-.091.0677-.1361 0-.0454.034-.102.1021-.1698.0677-.0683.1244-.1474.17-.2381l.5434-1.3592v-.1355c-.2718.0904-.4983.2035-.6794.3396-.1814.1358-.3399.2715-.476.4076l-1.2231 1.2231-.3396.408-.612.6791c-.1808.1361-.3169.2611-.4073.3742-.0907.1134-.1812.2378-.2719.3736-.0453.0907-.1131.1701-.2041.2378-.0904.0681-.1581.1472-.2038.2382-.2265.1811-.4076.3619-.5434.5434-.136.1811-.2494.3398-.3399.4753l-.3398.476-.8156 1.0193-.6794 1.0193-1.2912 1.5631-.7478 1.0193c-.2259.2265-.4187.487-.5774.7815-.1582.2945-.3509.5548-.5774.7815v.2038c-.1361.1358-.2038.2265-.2038.2719l-.4757.5437c-.0907.0904-.136.2038-.136.3396l-.6118.8158.0681-.1361zm7.6791 8.6303c0 .0454-.0227.0678-.0678.0678zm10.8728-7.3394c.1355 0 .2716.0343.4077.1023.1357.0677.2718.1471.4073.2375.1817 0 .3175.0905.4082.2722.1358.0904.2038.1808.2038.2715 0 .1361.0337.2265.102.2719.0678.0456.1018.136.1018.2721v-.0683c.1814.3172.2492.6003.2038.8495-.0451.2492-.1134.487-.2038.7135l-.4759.6117-.6115.8155c-.0453.0451-.1131.1134-.2038.2038-.0907.0908-.1587.1812-.2041.2716-.045.0456-.0677.091-.0677.1361-.0904.0904-.1361.136-.1361.136s-.0451.0454-.136.1361c-.1809.2716-.362.6452-.5434 1.1208-.1812.4759-.3172.8496-.4077 1.1217l-.2721.8833c0 .0904-.0111.1471-.0337.1698-.0227.0229-.034.0793-.034.17 0 .0905.0226.2038.0677.3396 0 .0907.0116.1812.0343.2719.0224.0907.034.1814.034.2718l.2038.4076v-.0677c0-.0907.0678-.0678.2038.0677h-.0677l.4756.3399h.2716c.0456 0 .0907.0227.1361.068.045.0451.0904.0678.136.0678.0451-.0904.0905-.1131.1355-.0678.0454.0451.1134.0678.2041.0678.0907-.0904.2038-.1358.3399-.1358h.3399c.0904 0 .1471-.0224.1698-.068.0224-.0454.0791-.0678.1698-.0678l.5436-.136.4077-.1358.6117-.3399 1.2909-.8833.6797-.4076c.2265-.2265.4419-.4419.6458-.6457.2038-.2038.4189-.3736.6454-.5097l.6798-.6117 2.3779-2.2425c.091-.1361.1928-.2151.3059-.2378.1134-.0227.2832-.0794.5097-.1698l.3398.2715c.1812.2265.2265.3853.1361.4757-.0907.0907-.2038.2494-.3399.4759-.7701.6795-1.2911 1.2005-1.563 1.5631-.2718.3622-.5661.7021-.8833 1.0193 0 0-.0453.0453-.136.1358l-.1358.136-1.563 1.2232-.476.4754c-.498.3174-1.0077.6573-1.529 1.0193-.5207.3625-1.0304.6117-1.529.7478-.0451 0-.0904.0224-.1355.0677-.0456.0457-.1134.0681-.2038.0681-.2721.0907-.6117.1357-1.0193.1357-.1361.0457-.3626.0683-.6798.0683 0 .0905-.0907.1355-.2718.1355-.1361 0-.2492-.0221-.3399-.0677-.0904-.0454-.3169-.0904-.6795-.1361l.0681.0683c-.0454 0-.0907-.0226-.1358-.0683h-.0683l-.4754-.2715c-.2721-.1814-.4986-.419-.6795-.7135-.1817-.2945-.2948-.5777-.3398-.8493-.0454-.3625-.091-.714-.1361-1.0539-.0453-.3393.0227-.7583.2038-1.2569v-.0677l-.4076.2715-.5434.4757c-.1817.2265-.4193.4076-.7141.5437-.2942.136-.5547.2718-.7812.4079l-.136.0677c-.3626.2265-.6685.3853-.9173.476-.2492.0904-.4646.1811-.6455.2715-.0456 0-.0907.0116-.136.0343-.0451.0224-.0908.0338-.1361.0338-.0904.045-.1698.045-.2376 0-.068-.0454-.17-.0681-.3061-.0681l-.3396.0681c-.1361 0-.2945-.0681-.4759-.2036-.1809-.0456-.2832-.0683-.3053-.0683-.023 0-.0567-.1134-.1023-.3399 0-.0904-.0338-.1471-.1015-.1698-.0683-.0226-.1021-.0566-.1021-.1017l.1358-.9516.2716-.5434-.1358.0677.2041-.4753.3399-.6117.5434-.8159c.045-.045.0677-.1131.0677-.2038l.3399-.4756 1.563-1.9707-.1361.0681c.091-.0907.1815-.1701.2722-.2379.0904-.0677.1808-.1471.2718-.2375l.8833-.7478.5437-.4759-.0678.136 1.2232-.8832c.2265-.1812.623-.3626 1.1891-.5437.5664-.1812 1.0307-.2721 1.3932-.2721zm-7.2034 8.0866c-.0904.1817-.0904.2832 0 .3062.0905.0226.2376-.0114.4414-.1018.2044-.091.4308-.2044.6797-.3399.2492-.136.442-.2491.5777-.3398.6798-.4079 1.2572-.7816 1.7329-1.1214.4759-.3399.9629-.7589 1.4609-1.2569l1.0877-1.0877.1355-.1355c.091-.1817.2041-.3398.3399-.4759.136-.1361.2491-.2948.3395-.4756l.7478-.9514c-.0453-.0453-.0564-.102-.0343-.1698.023-.0683.0343-.1476.0343-.2381l-.2718-.2715h-.476c-.2715 0-.5207.0904-.7472.2715l-.5437.2719c-.0904.0451-.2038.1134-.3395.2038-.2722.1811-.4533.2945-.5437.3399 0 0-.0227.0453-.0683.136l-.8833.7472c-.0904.0908-.2149.2155-.3736.3739-.1588.1588-.2832.2603-.3739.3059-.0904.2718-.2719.453-.5434.5434l-.1361.3399-1.1554 1.3592-.5434.8155-.4759.6795z" fill="#fff" fill-rule="evenodd"/>
  <path d="M325.4754 423.6191c.1355.0904.2038.1582.2038.2038.0451.0904.0678.2375.0678.4416v.4417c0 .0904-.0111.2154-.034.3736-.0227.1587-.0564.2832-.1021.3739 0 .0453-.0224.102-.0677.1698-.0454.068-.0678.1247-.0678.1698-.0456.091-.0683.2043-.0683.3398l-.2038.6795-1.2909 2.9222-.2041.4757c-.0907.0907-.1358.1587-.1358.2038l-.1357.1361c-.0908.0904-.1361.1811-.1361.2718l-.2038.6798c-.1361.0904-.2038.1811-.2038.2715l-.2722.4757v.2715c-.1808.1817-.2715.3175-.2715.4082l-1.7671 2.7862v-.1361c-.0905.1361-.1809.2602-.2716.3736-.091.1134-.1587.2381-.2041.3742-.0904.0904-.1584.1471-.2038.1698-.0451.0224-.1134.2149-.2038.5774l-.4757.6798c-.0907.0904-.1924.2148-.3055.3736-.1134.1587-.1698.2832-.1698.3736l-.8158.9516c.0907-.0454.0793 0-.0338.136-.1134.1355-.2154.2489-.3058.3399l-.2038.3396-.8836 1.1551-.9513 1.0874-.6798.8152-.0677.2038-.9516 1.1554-.4076.4079h.0677l-1.2909 1.359-1.2911 1.3589-.8159.8155-.3396.4077-.2715.4081.0677-.0683-.2715.7478-.2721.5437-.4757 1.3589c-.0907.1361-.1358.3172-.1358.5437l.0681-.0677c.0453 0 .1131-.0457.2035-.1361.0907-.0904.1817-.1814.2721-.2718.0904-.0908.2038-.1812.3399-.2719.2265-.1814.453-.3963.6794-.6454.2265-.2495.4303-.4644.6115-.6458l1.9026-2.1064c.3172-.2721.6117-.5664.8835-.8836.2719-.3169.544-.6567.8156-1.0193l1.2231-1.2912 1.0194-1.0873.3398-.2719.6118-.5437.2715-.4753.7478-.544-.1361.1361.476-.3399.2715-.2716c.0454 0 .0905-.0227.1358-.0683.0907-.0904.1587-.1358.2038-.1358l.4082-.3399.2716-.2038-.0678.0684.4754-.2722-.068.1361c-.0905.1361-.0338.0904.17-.1361.2038-.2265.3736-.3849.5097-.4756.0904 0 .1587-.0224.2038-.0681.0454-.0453.1131-.0904.2038-.1357h.0681s.0907-.0451.2715-.1361c.0457-.0451.1588-.0677.3399-.0677.091 0 .1477-.0114.1698-.0341.0229-.0226.0567-.0337.1023-.0337h.5434c0 .0451.0227.0678.0678.0678h.136c.0457 0 .0905.0226.1361.0677l.2038.2041c.0454.1358.068.2489.068.3396.0907.1358.1358.2718.1358.4079v.6795c-.0907.136-.1358.3398-.1358.6114l-.2718.6117c-.0904.2265-.2038.5097-.3399.8495-.136.3399-.2942.6231-.4756.8496l-.4754.6795-.2721.3398-.2038.2038-.3396.6115-.1361.068c-.1811.2716-.3399.4303-.4759.4759.0456 0 .034.0338-.0338.1015-.0677.0683-.1244.125-.17.1701-.1358.0904-.2603.1814-.3736.2718-.1132.0908-.2376.2039-.3737.3399l-.7477.6795v.0677c0 .0457.0116.0683.0343.0683.0224 0 .0337.0451.0337.1355.0907.1817.1361.3853.1361.612 0 .0905.0224.1809.0677.2716.0456.0907.068.1814.068.2718.0454.5437.2265 1.1101.544 1.6991.0451.1358.0788.2265.1015.2716.0229.0453.0567.1131.1023.2041l.3396.3399.4754.3398c.2265.0451.4308.0905.6117.1355.1811.0454.3399.0681.4759.0681.2265 0 .4643-.0227.7135-.0681.2492-.045.487-.1134.7135-.2038.2718-.0904.5664-.1811.8833-.2715.3172-.091.6346-.2492.9516-.476l.8152-.3396.544-.4076c.362-.1814.6794-.3625.951-.544.2721-.1811.5664-.4303.8836-.7475.2718-.1811.555-.3736.8492-.5774.2948-.2041.5553-.4192.7818-.6457l.4757-.4757h.2038c.045 0 .1584.1361.3398.4079v.2716c-.136.1361-.2264.2942-.2718.4759-.1361.2716-.2945.4981-.4759.6795-.0905.0904-.2716.2265-.5437.4076-.2716.1814-.453.3399-.5434.4757-.0457 0-.0678.0229-.0678.0677l-.5439.3399-.3396.3399-.4757.2038-.6794.6117-.5437.3399-.476.1358c-.2718.136-.4756.2718-.6117.4076-.0451 0-.0677.0116-.0677.034 0 .0227-.0227.0343-.0678.0343h-.0683l-.8833.4076c-.0904 0-.1698.0227-.2378.0678-.068.0453-.1474.0683-.2378.0683-.4984.1808-1.1778.2715-2.039.2715h-.4413c-.1588 0-.3515-.0229-.578-.068-.0904-.0904-.2376-.1584-.4414-.2035-.2038-.0457-.3509-.1361-.4419-.2721-.1811-.0905-.3623-.2265-.5437-.4077-.1808-.1814-.3169-.3398-.4076-.4756l-.2035-.3399c0-.0904-.0683-.2038-.2044-.3399l-.3399-1.1554c0-.3169-.0451-.6568-.1355-1.0193 0-.0451-.068-.1355-.2041-.2716v-.2718c0-.0907-.0224-.1811-.0677-.2716l-.1361-.2043c-.0451.0909-.0907.136-.136.136-.0451 0-.0678.0116-.0678.034 0 .0227-.0454.0343-.1361.0343 0 .0905-.1131.1355-.3398.1355l.0683-.0677c-.1361.0904-.3399.136-.6117.136l-.0678-.0683c-.0456 0-.1134-.045-.2038-.1355l-.4082-.3398v-.5437c0-.0907.0116-.2041.034-.3396.0227-.1361.1021-.2948.2381-.476 0-.0453.0227-.0904.0678-.136.0456-.0454.0907-.1131.1361-.2035l.3398-.3399.4757-.1361c.0451 0 .1017-.011.1698-.034.068-.0227.1474-.0337.2378-.0337l.4757.2715c.0907 0 .136.0116.136.034 0 .0227.0224.0343.0678.0343.0907-.0456.1927-.0793.3058-.1023.1134-.0227.2152-.0794.3062-.1698.1355-.136.2829-.2718.4413-.4076.1588-.1361.3059-.2948.4419-.4757l.5434-.5436.4077-.4757.4759-.4759.3396-.4077s.023-.0453.068-.1357l.6117-1.0197.3399-.5434-.068.0678.2715-.6114c-.1357 0-.2602.034-.3736.1017-.1131.0683-.2375.1247-.3736.1698-.2265.091-.4646.2265-.7134.4082-.2492.1809-.4873.3626-.7138.5434l-.4076.2038-.1361.1361-.6114.5437c-.0905.0904-.2038.1808-.3399.2718-.1358.0904-.2265.1811-.2718.2716l-.6115.6117-1.0876.9513-.2716.2718c-.1358.1812-.3059.3399-.5097.476-.2038.1355-.3512.3169-.4419.5437-.3169.3169-.589.6111-.8155.8832-.2265.2719-.4754.5434-.7472.8156l-.8156.8152h.0681c-.2265.1814-.4303.3852-.6117.6117-.1812.2265-.3626.4076-.5437.5437v-.068c-.2265.4983-.6341.9966-1.2232 1.495l-1.5627 1.6988c-.4533.4529-.7475.7024-.8836.7477v-.0683c-.2265.1361-.3852.2038-.4756.2038-.0457 0-.0794.0227-.1021.0684-.0224.045-.1244.0677-.3055.0677-.091 0-.1698-.034-.2382-.1018-.0677-.068-.1698-.1474-.3058-.2381-.0451-.045-.0678-.0904-.0678-.1357-.0456-.0451-.0677-.1585-.0677-.3399 0-.0904-.0116-.1585-.0343-.2038-.0224-.0451-.034-.1585-.034-.3399v-.3396c0-.0907.0116-.1358.034-.1358.0227 0 .0343-.0453.0343-.136 0-.1815.0221-.317.0677-.4079 0-.1355.0227-.2832.0678-.4414.0453-.1587.0683-.2832.0683-.3739l.3396-1.0193c0 .045.0227.0229.0677-.0681.0457-.0907.0684-.1584.0684-.2038 0-.3625.0904-.8155.2715-1.3592.1814-.5437.3852-1.0193.6117-1.4269l.6798-1.5631c0-.0904.0677-.2038.2038-.3396.1358-.3625.2375-.6117.3058-.7475.0678-.136.1472-.2948.2376-.4756v.0677l1.4953-3.058 1.6988-2.8539.3398-.5437.4754-.9516c0-.0904.0343-.1581.1021-.2038.0677-.0453.102-.0904.102-.1358l.4754-.6114-.1355.0678.4076-.6118c.0451-.0907.0794-.1922.1018-.3055.0226-.1134.102-.2382.2381-.3736l.4073-.6798c.0907-.1814.2038-.3739.3399-.5777.1361-.2038.3625-.6004.6797-1.1894.3623-.5885.7699-1.1548 1.2232-1.6988.453-.5437.8833-1.1101 1.2912-1.6985l1.2909-1.6991.2038-.3396c.3625-.2721.6117-.612.7478-1.0196l.4759-.4757.6795-.8833.2715-.2721.6117-.7472h.0681c.0453 0 .1357-.068.2718-.2038l.3399-.1361.4076-.2038c.0454 0 .0794.0111.1021.034.0223.0227.0566.0338.1017.0338l.068.0683zm-15.2223 23.2407l.6117-.7478 1.9707-2.2425.5436-.6114c.0454-.0904.1021-.1698.1698-.2378.0684-.0681.1248-.1474.1698-.2382l1.0194-1.2231c.0907-.0904.1927-.2152.3058-.3736.1134-.1588.2155-.3512.3062-.5777l.4073-.4076c0-.0907.1474-.3283.4419-.7135.2946-.3852.5097-.6684.6458-.8496l-.0681.1361.3396-.4759.6798-.8833.0677-.1361c-.0907.0907-.0677.034.0681-.1698.136-.2038.2494-.3736.3398-.5096l.476-.5437c0-.0904.0904-.2038.2715-.3396l.1358-.3399c0-.0907.034-.1587.1023-.2038.0678-.0456.1015-.0904.1015-.1361l.2721-.3398c.1361-.1809.2605-.3847.3737-.6112.1133-.2268.2605-.4986.4416-.8158l.7478-1.0871.1357-.4079c.1358-.2715.2832-.5097.4417-.7135.1587-.2038.2602-.3965.3058-.5774 0-.091.0454-.2044.1361-.3399.0451-.091.1015-.1924.1698-.3058.0677-.1134.1471-.2155.2375-.3059v.0681c0-.0908.0117-.1698.0341-.2382.0226-.0677.0343-.1471.0343-.2375l.4076-.7478.3399-.7475c.0904-.2718.1924-.6001.3058-.9853.1131-.3849.2149-.6908.3053-.9173-.0451.0454-.0677.0678-.0677.0678l-.4757.5439c-.0451.0907-.0907.1701-.1361.2379-.045.0677-.1133.1471-.2038.2375l-.8152 1.0193-1.2912 1.5631c-.2265.2721-.4986.6117-.8155 1.0193-.3172.4079-.7022.9743-1.1551 1.6991l-.4757.7472c-.1361.2265-.2832.4873-.4419.7818-.1585.2942-.4193.6684-.7812 1.1214l-.8836 1.4947c-.0907.0907-.2041.2492-.3396.4759-.1361.2265-.2948.4984-.4759.8156v-.0684l-.5434 1.0194-.2722.5437-.3398.5439.0683-.136-.6795 1.1551-.8158 1.3589-.8155 1.4275v-.0683zm58.102-16.5132h.8839c.2715 0 .5658.0226.8832.0677.3172.0456.6115.0683.8836.0683h.8833c.0904 0 .2265.0788.4076.2376.1814.1587.2718.2831.2718.3738v.408c-.0904.1354-.2381.2831-.4419.4413-.2038.1587-.3963.2381-.5774.2381-.453-.0453-.8949-.0794-1.3252-.102-.4303-.0227-.8719-.034-1.3249-.034-.6795-.0454-1.2458-.0681-1.6988-.0681H364.21c-.5887 0-1.3592.0227-2.3105.0681-.7699.0907-1.5063.17-2.2085.2378-.7024.0683-1.3929.1247-2.0727.1698-.0904 0-.2038.0229-.3398.0677-.2265 0-.4074.023-.5434.0683-.0908 0-.1815.0111-.2722.0341-.0904.0226-.2038.0337-.3396.0337-.2718.0456-.5663.0907-.8835.1361-.3169.0453-.5891.0677-.8155.0677-.2265.091-.5208.1477-.8833.1701-.3623.0227-.7248.0793-1.0871.1698-.1361.0453-.2605.0567-.3739.0343-.1131-.0227-.3512.011-.7135.1017l-1.9709.4757c-.0904 0-.1698.011-.2376.034-.0683.0227-.1471.0337-.2381.0337-.0907.091-.2715.1361-.5436.1361-.0905 0-.1582.0116-.2039.034-.0453.0227-.1131.0343-.2038.0343l-3.058.6795-.7472.8152-1.6991 2.1748c-.2265.4076-.487.7812-.7815 1.1211-.2945.3396-.5777.6911-.8495 1.0536l-1.8346 2.0381c-.3626.4986-.7251.9289-1.0877 1.2915l-1.0187 1.1554-.7478.951-.8156.8155c-.4983.3626-.9286.7365-1.2911 1.1211-.3626.3853-.7249.7592-1.0871 1.1217l-.6795.951-.544.9516c-.0907.0904-.1357.1361-.1357.1361-.0454.0451-.0681.0904-.0681.1358 0 .1357-.0226.2267-.0677.2718-.1361.2265-.2038.3852-.2038.4757-.0457.0904-.0683.2715-.0683.5436 0 .0454-.0111.1021-.0341.1698-.0226.0678-.0337.1472-.0337.2379 0 .0453-.0227.102-.0677.1698-.0457.068-.0684.1698-.0684.3058 0 .0454.0227.1021.0684.1698.045.0683.0677.125.0677.1701l-.0677.068h.0677c0 .0907.0111.1585.0337.2038.023.0451.0567.1134.1024.2038.045.2722.2489.4077.6111.4077.1361.1814.4986.2718 1.0877.2718.2715.0451.6341-.0453 1.0871-.2718l.7475-.2716c.136-.0907.3398-.1814.6117-.2721.2715-.0904.453-.1358.5437-.1358.0453 0 .0904-.0224.1357-.068.0451 0 .0681-.0111.0681-.0338 0-.0226.0226-.034.068-.034l.3399-.136h.2038l.3399-.2719.5434-.4076c.045 0 .0907-.0116.136-.0337.0451-.023.1812-.0794.4076-.1701l.6118-.3399h-.0683l.6797-.4079-.0677.0683.4076-.2721c.0904-.1361.2035-.2492.3396-.3396.136-.0907.2721-.1811.4076-.2718.091 0 .1927-.0454.3058-.1358.1134-.0907.1928-.1588.2382-.2038l.5436-.2722-.2038.0678c.0905-.1355.2149-.2376.3736-.3053.1585-.0683.2832-.1477.3736-.2381.0457 0 .0907-.034.1361-.1018.0451-.0683.0907-.102.1358-.102.3172-.4076.6344-.7248.9513-.9513l.5437-.4757v.1361c.1814-.1814.3398-.2721.4756-.2721.0457 0 .0794-.0227.1024-.0678.0221-.0453.1014-.0683.2375-.0683.3172 0 .4759.1817.4759.5437l-.2721.2721c0 .1358-.0677.2718-.2038.4073l-.9516.8836-.8149.8155-.6798.4079-.4756.4754c-.0908 0-.1928.0456-.3059.1361-.1134.0904-.1928.1811-.2378.2718l-1.0877.9513v-.136c-.1808.1814-.3169.2721-.4073.2721l-.0681.1358c-.0904.0907-.2038.136-.3395.136-.0908.0907-.1928.1585-.3059.2038-.1134.0451-.2154.1134-.3061.2038-.2716.1812-.4303.2722-.4757.2722-.1355.045-.2265.0677-.2716.0677l-.3398.1361h.0677l-.5434.4073c-.0907 0-.1811.0114-.2715.034-.091.0227-.2044.0341-.3399.0341-.091.1814-.2265.2718-.4079.2718-.0907 0-.1471.0113-.1701.034-.0227.0227-.0564.0337-.1015.0337-.136.1361-.3175.2044-.544.2044l-1.0196.2716-.6111.2038c-.0457 0-.0794.0113-.1024.0343-.0221.0221-.0564.0337-.1014.0337-.1815.0907-.4082.0907-.6798 0-.0904 0-.1587.0114-.2038.034-.0454.0227-.1131.0338-.2041.0338l-.5437-.0678c-.5884-.1358-.985-.2602-1.1891-.3736-.2038-.1134-.4187-.2832-.6452-.5097-.3175-.3174-.4759-.6117-.4759-.8832v-.4082c0-.0451-.0116-.0794-.0337-.1015-.023-.023-.0343-.0794-.0343-.1701v-.136c-.0451-.1815-.0224-.4303.068-.7475v-.8153l.2715-1.1554 1.3593-3.3296.5436-1.0876.8156-1.6991.3396-.5434c0-.1811.0907-.3623.2721-.5437l-.1361.1361.3399-.5437c.0904-.0904.1698-.2038.2375-.3396.0684-.1361.1477-.3172.2382-.5437l1.3592-2.3785c.1357-.1361.2715-.2832.4076-.442.1361-.1581.2038-.2831.2038-.3736.0904-.2264.2154-.4756.3736-.7475.1587-.2718.3059-.521.4419-.7477.0905-.0905.1471-.1809.1698-.2716.023-.0904.0794-.1814.1701-.2718h-.0677l-2.5147.5434c-.3625.136-.7818.2381-1.2571.3061-.4757.068-.9176.1021-1.3252.1021-.3626.0904-.7589.1697-1.1892.2375-.4303.0683-.8495.1244-1.2571.1701h-.9516c-.1358-.0457-.3396-.0681-.6114-.0681-.1358-.0904-.2946-.1471-.4757-.1698-.1814-.0226-.3169-.0793-.4079-.1697-.0907 0-.2265-.1361-.4076-.4082l.0677-.5434c0-.1812.2041-.2716.6117-.2716h.6118c.045 0 .068.0111.068.0337 0 .0227.0227.0341.0677.0341h1.495l2.4463-.3399c.9516-.0454 1.8805-.2265 2.7862-.5434l2.6507-.476 1.0871-.2038c.0904-.1811.1924-.3852.3058-.6117.1131-.2265.2376-.3849.3736-.4754l.2722-.4079.6111-.8158.4759-.6111v.0677c0-.1811.0905-.3172.2719-.4076.0451-.0454.068-.1134.068-.2038l.6117-.5437.4754-.6117.8155-.8155c.0454-.0451.0678-.0905.0678-.1355l1.0193-1.0194 1.3592-1.0193.2722-.1361c.1808-.0907.3846-.2154.6111-.3736.2268-.1587.2948-.2381.2044-.2381l.6794-.4076.4077-.2721c.136-.0451.3625-.0678.6794-.0678.0451 0 .1585.0454.3399.1361.1811.0904.2942.1581.3399.2038l.2715.2718c0 .1812.0454.3172.1361.4077v.6794c-.0907.0907-.1361.1928-.1361.3062v.3052c0 .091-.0113.1928-.034.3059-.0227.1134-.0337.2154-.0337.3061l-.2038.6118c-.0907.1808-.1361.3396-.1361.4753l-.8833 1.2912c-.0907.0907-.1927.2378-.3058.4417-.1134.204-.1474.2831-.1018.2381l-.8155 1.0193-.0683.1355.8838-.2038c.2265 0 .4187-.0111.5774-.0337.1585-.023.351-.0567.5775-.1024l1.8348-.4073.9513-.2038 1.0877-.2722c.3625-.0904.7245-.1354 1.0871-.1354.3625-.091.7928-.1588 1.2911-.2044.4984-.0448.9287-.0678 1.2912-.0678.1358-.0904.3169-.1471.5434-.1698.2265-.0226.4082-.034.5437-.034.1361-.0453.2492-.068.3399-.068l2.0387-.2038 2.1064-.2716c.091 0 .1587-.0116.2041-.0343.0451-.0224.1584-.034.3399-.034h1.7668c.4076 0 .7928-.0111 1.1554-.0337.362-.023.7928-.034 1.2909-.034zm-35.0645 15.9695c.0904-.1361.2148-.3059.3736-.5097.1584-.2038.2831-.3512.3736-.4419l1.6991-1.8349.7472-.8152c.136-.1358.2605-.2602.3739-.3736.1131-.1134.2151-.2832.3058-.5097l1.6988-1.8348 1.563-1.7669.8156-1.0876.9513-1.0871c.0907-.1361.1924-.2832.3058-.4419.1131-.1582.2152-.3053.3059-.4414-.6798.1361-1.3592.3169-2.0387.5437l-1.4269.2718v.0678l-1.1555 1.9029-1.0193 1.4269c-.3172.453-.6341.9627-.9513 1.529-.3175.5661-.6117 1.1665-.8836 1.8009l-.2718.4076c-.4079.6798-.7699 1.3139-1.0871 1.9029-.136.0904-.2041.1814-.2041.2719zm7.2711-11.9602l.4757-.2038 1.9706-.4077c.2265-.0453.4419-.091.6457-.136.2036-.0454.419-.1131.6455-.2038l.1358-.1361.8155-1.2231 1.0193-1.5628v.0678l.4076-.6118c0-.045.0227-.0907.0681-.1357.0907-.0905.136-.1358.136-.1358 0-.1361.0678-.3172.2039-.5437l.3398-.5437c.0905-.3175.0794-.5323-.034-.6454-.1131-.1134-.4419-.0117-.9853.3058-.5437.3169-1.0423.7472-1.4953 1.2909l-.2715.2038-.2722.3396-.2718.2722c-.0904.0904-.1922.1927-.3056.3058-.1131.1134-.1474.1245-.102.034-.1361.1809-.2943.3169-.4757.4076l-.7475.7478-.3399.5434-.7472.8153-.5439.6794zm6.6597-2.6501v-.0684l.0678-.0677zm6.5911 12.2317c.091.0908.1474.1585.1698.2039.0227.0456.0343.136.0343.2721v.8152l-.3396.3396c-.2721.2721-.4759.5437-.612.8155l-.4076.3399-1.1551 1.427-.2038.2721c-.0456.0904-.0683.1585-.0683.2035l-.3399.4077c-.0451.0909-.0677.1587-.0677.2043-.0905.1355-.2039.2943-.3396.4754-.1361.1814-.2495.3852-.3399.6117l-.2716.4757.1355-.1358-.2038.4073c0 .091-.0337.1928-.1018.3062-.068.1131-.102.2151-.102.3058l-.1361.2716v.6117c0 .0454.0117.0904.0341.1361.0226.045.0343.0904.0343.136h.5436c.317 0 .7019-.1023 1.1549-.3061.4529-.2035.9062-.419 1.3592-.6455l.7478-.3398.2038-.1361c.1811-.0451.4076-.1582.6794-.3399l.5437-.4073c.0454 0 .0794-.0113.1021-.034.0224-.0227.0791-.034.1698-.034l.1357-.0681.2039-.2715 1.2234-.8156.8152-.612c.1815-.2264.3853-.4413.6118-.6451.2264-.2041.4529-.4193.6794-.6458l.4076-.2718.5437-.5437c.091-.0453.1925-.1134.3059-.2038.1134-.0904.2154-.1361.3058-.1361.0905 0 .1588.023.2039.0681.0453.0453.1133.1131.2038.2041.136.0904.2038.2265.2038.4076 0 .1808-.0451.3396-.1355.4756l-.2038.2039-.1361.136-.3399.4076-.2718.1361c-.2265.2265-.4759.4303-.7475.6112l-.5437.4081-.6117.4074-.3396.4759-.9513.8155v-.0683c-.1814.1817-.3399.3175-.4757.4082-.136.0904-.2948.1812-.4759.2716l.0677-.0678-.3395.2038c-.0907.1358-.2262.2492-.4077.3396-.1811.0907-.3398.1812-.4759.2722-.3169.3169-.6568.5207-1.0193.6114-.4981.2265-1.1098.4756-1.8346.7478-.7248.2715-1.4046.4073-2.0387.4073h-.3396c-.1361 0-.2494-.0227-.3399-.068-.0456 0-.0793-.0224-.102-.0678-.0224-.045-.0791-.0907-.1701-.136-.1355-.0905-.2942-.2716-.4754-.5437-.0453 0-.068-.0451-.068-.1358v-.1358c-.0451-.091-.0677-.2945-.0677-.6117 0-.3169.045-.6568.1357-1.0193 0-.0905.0341-.2038.1018-.3399.0683-.1361.1471-.3169.2381-.5434l-.6794.6795c-.091.0904-.1818.1698-.2722.2378-.0904.068-.2491.1471-.4756.2378l-.2716.1358-.2038.2718c-.091.0907-.2268.1812-.4082.2722-.1808.0904-.3169.1811-.4076.2715-.2719.1814-.4983.2948-.6795.3399-.0904.0453-.1814.0904-.2718.1358-.0907.0456-.1134.0229-.068-.0678l-.3396.2038c-.0907.0451-.1928.0907-.3059.1361-.1134.0451-.1928.0677-.2378.0677 0 .0454-.1361.0678-.4079.0678h-.4077c-.136 0-.2942-.0678-.4759-.2038-.3623-.1809-.5661-.453-.6111-.8155v-.9511c0-.0907.011-.1814.0337-.2721.0227-.0904.034-.2489.034-.4754.1361-.4986.2832-.9516.4419-1.3592.1582-.4079.351-.7928.5774-1.1551.0454 0 .0905-.023.1361-.068.0904-.0907.1582-.2041.2038-.3396.1358-.2265.351-.5553.6455-.9856s.532-.7589.7135-.9853l.8158-1.1554.2715-.2039.2719-.3398.3398-.3396.4757-.3399c.1358 0 .2716.0337.4076.102.1361.0678.2038.1472.2038.2379.0454.0904.0678.2945.0678.6117 0 .1358-.0224.2492-.0678.3396 0 .0907-.034.1927-.102.3061-.0678.1131-.1471.2376-.2378.3736-.1358.1361-.2039.2038-.2039.2038l-.6117.8156-1.8346 2.2425-.6794.8832c-.0454.0451-.0683.1361-.0683.2716-.0905.0456-.1355.1587-.1355.3399-.0454.091-.091.1477-.1361.1698-.0454.0229-.068.0567-.068.1023-.0451.0453-.0678.0904-.0678.1358v.068c0 .0454-.0113.0904-.034.1358-.0227.0456-.034.0907-.034.136v.4077c0 .0453.0224.0904.068.136.0904.0905.1588.1358.2038.1358.1358-.0907.2719-.1358.4079-.1358.1355 0 .2716-.0456.4077-.136l.4076-.2038.7478-.4077c.0447 0 .1355-.068.2715-.2041l.4079-.2038h-.0683l.4759-.4076c.0905-.0453.1812-.0904.2719-.1361.0907-.0453.1811-.1131.2716-.2038.2267-.0904.3625-.2038.4076-.3396l.5439-.4081-.068.0683.4079-.3399 1.3592-1.2232c.4981-.4529.9624-.9289 1.393-1.4272.4303-.498.8719-.974 1.3249-1.427l.2718-.4759.3399-.2716z" fill="#fff" fill-rule="evenodd"/>
  <path d="M363.0546 442.7821c.0454.0908.1021.1701.1698.2382.0683.068.1021.2151.1021.4416 0 .2718-.0794.5207-.2382.7472-.1581.2268-.3052.4533-.4413.6798l-.5437.8838-.3396.4073.1358-.068-.4079.6117-.4076.3399.9513-.3399 1.2912-.5437.6797-.2038c.0451 0 .0794-.0113.1018-.0337.0226-.0227.0564-.0343.102-.0343.0904-.0904.2038-.1245.3396-.1018.1361.0227.3172.034.5437.034.1361 0 .2378.0794.3058.2376.0678.1587.1472.2832.2379.3739v.2718c.0453.1812.0227.3626-.0681.5437-.0904.1814-.1357.3852-.1357.6117l-.1361.1361-.3399.5434-.4753.5437-1.0194 1.0871-1.8348 2.3108c-.0905.0904-.2039.2488-.3399.4753-.1361.2265-.2492.4079-.3399.544l-.2718.8833v.1358c0 .0453.0226.0907.0683.1357.045.0457.0904.0683.1358.0683l.5436.0678h.2376c.0683 0 .2154-.0454.4419-.1361.1361-.0904.2152-.1581.2378-.2038.0227-.0453.1698-.0677.442-.0677.045-.0454.1355-.1131.2715-.2041.1361-.0904.2492-.1355.3399-.1355l.5434-.2038c.1361-.1361.3058-.2722.5097-.4082.2043-.1358.2607-.1582.17-.0678l1.0874-.6794c.4981-.2722.985-.5891 1.461-.9516.4756-.3623.9626-.7246 1.4612-1.0871l2.0382-1.6991c.2267-.1811.3965-.3169.5096-.4076.1134-.0904.2155-.1814.3062-.2719l.1357-.136.4077-.3399c.091-.1355.2043-.2716.3398-.4076.1361-.1358.3175-.2035.544-.2035.4981 0 .6452.2035.4414.6111-.2038.4082-.419.7478-.6455 1.0193l-.5437.4082c-.0904.0451-.1698.1131-.2378.2038-.068.0905-.1247.1809-.1698.2716l-.4079.2718c-.1811.1812-.3623.3739-.5437.5775-.1811.2043-.3846.3515-.6114.4419-.2265.0907-.3852.1927-.4757.3058-.0904.1134-.1587.1925-.2038.2379l-.8155.6794c-.9513.7702-1.7785 1.3366-2.4803 1.6991-.7022.3626-1.2799.6795-1.7328.951-.2719.1815-.544.3626-.8156.544-.2718.1811-.5213.2945-.7477.3399l-.9511.3399-1.0196.1355-.2718-.1355c-.1812 0-.2943-.0227-.3399-.0684-.1355 0-.2942-.0904-.4754-.2715-.136-.091-.2491-.1698-.3396-.2381-.0907-.0678-.136-.1925-.136-.3736l-.1361-.4077.2721-1.1554c0-.136.0678-.2718.2036-.4076.2267-.4983.4983-.9516.8158-1.3592.0904-.1358.2038-.2945.3396-.4756.1811-.2722.4532-.6118.8152-1.0194l.544-.6794c.3172-.2268.521-.4533.6114-.6798l.3399-.4076-.0681.136.4754-.7477-.4754.2038c-.1814.091-.3738.1698-.5777.2381-.2038.0677-.4186.1244-.6454.1698l-.7478.2038c-.1358.0451-.2715.0907-.4073.1361-.1361.045-.2948.0677-.476.0677l-1.087-.1361c-.3626-.2715-.5437-.6111-.5437-1.0193-.0454-.0451-.0681-.0904-.0681-.1355v-.1361c.1358-.7701.3396-1.4045.6118-1.9026l.8832-1.2914 1.6308-1.5631c.0454 0 .2492-.1357.6117-.4073h.3399zm-1.3592 1.4953c-.1811.1812-.4187.4757-.7135.8833-.2942.4076-.487.7024-.5774.8836-.2721.5434-.4079.8832-.4079 1.0193 0 .0453.1131-.1134.3396-.4759.2265-.3626.3852-.6342.4759-.815 0-.0456.0227-.091.0681-.1361l.2038-.2038zm16.8534-1.2914c.1355 0 .2715.0343.4076.1023.1361.0677.2719.1471.4076.2375.1814 0 .3175.0905.4079.2722.1361.0904.2038.1808.2038.2715 0 .1361.0341.2265.1021.2719.0677.0456.1018.136.1018.2721v-.0683c.1814.3172.2491.6003.2038.8495-.0451.2492-.1134.487-.2038.7135l-.476.6117-.6111.8155c-.0457.0451-.1134.1134-.2038.2038-.091.0908-.1588.1812-.2044.2716-.0451.0456-.0678.091-.0678.1361l-.136.136s-.0451.0454-.1358.1361c-.1811.2716-.3623.6452-.5437 1.1208-.1811.4759-.3169.8496-.4076 1.1217l-.2719.8833c0 .0904-.0113.1471-.034.1698-.0226.0229-.034.0793-.034.17 0 .0905.023.2038.068.3396 0 .0907.0114.1812.0343.2719.0222.0907.0338.1814.0338.2718l.2038.4076v-.0677c0-.0907.0677-.0678.2038.0677h-.0678l.4757.3399h.2716c.0456 0 .0907.0227.136.068.0451.0451.0907.0678.1361.0678.0451-.0904.0904-.1131.1355-.0678.0456.0451.1134.0678.2044.0678.0904-.0904.2038-.1358.3396-.1358h.3398c.0905 0 .1471-.0224.1698-.068.0224-.0454.0791-.0678.1701-.0678l.5434-.136.4076-.1358.6117-.3399 1.2912-.8833.6795-.4076.6457-.6457c.2038-.2038.4193-.3736.6458-.5097l.6794-.6117 2.378-2.2425c.091-.1361.1928-.2151.3061-.2378.1131-.0227.2832-.0794.5097-.1698l.3396.2715c.1811.2265.2265.3853.1361.4757-.0905.0907-.2038.2494-.3399.4759-.7699.6795-1.2912 1.2005-1.5628 1.5631-.2721.3622-.5663.7021-.8835 1.0193 0 0-.0454.0453-.1358.1358l-.1361.136-1.563 1.2232-.4756.4754c-.4984.3174-1.008.6573-1.529 1.0193-.521.3625-1.0307.6117-1.5293.7478-.0451 0-.0905.0224-.1355.0677-.0454.0457-.1131.0681-.2038.0681-.2719.0907-.6118.1357-1.0194.1357-.136.0457-.3625.0683-.6794.0683 0 .0905-.091.1355-.2722.1355-.136 0-.2491-.0221-.3398-.0677-.0905-.0454-.317-.0904-.6795-.1361l.0683.0683c-.0456 0-.091-.0226-.1361-.0683h-.0683l-.4753-.2715c-.2719-.1814-.4984-.419-.6795-.7135-.1814-.2945-.2948-.5777-.3399-.8493-.0453-.3625-.091-.714-.136-1.0539-.0454-.3393.0229-.7583.2038-1.2569v-.0677l-.4074.2715-.5437.4757c-.1814.2265-.4192.4076-.714.5437-.2942.136-.5547.2718-.7812.4079l-.1358.0677c-.3626.2265-.6684.3853-.9173.476-.2494.0904-.4646.1811-.6457.2715-.0457 0-.0905.0116-.1361.0343-.0451.0224-.0904.0338-.1361.0338-.0904.045-.1698.045-.2375 0-.0677-.0454-.1701-.0681-.3059-.0681l-.3398.0681c-.1361 0-.2943-.0681-.4757-.2036-.1811-.0456-.2832-.0683-.3056-.0683-.0226 0-.0567-.1134-.102-.3399 0-.0904-.034-.1471-.1018-.1698-.0683-.0226-.102-.0566-.102-.1017l.136-.9516.2716-.5434-.1361.0677.2041-.4753.3399-.6117.5437-.8159c.0451-.045.0677-.1131.0677-.2038l.3396-.4756 1.5631-1.9707-.1361.0681c.091-.0907.1817-.1701.2721-.2379.0904-.0677.1812-.1471.2719-.2375l.8835-.7478.5434-.4759-.0677.136 1.2231-.8832c.2265-.1812.6231-.3626 1.1894-.5437.5661-.1812 1.0304-.2721 1.393-.2721zm-7.2034 8.0866c-.0904.1817-.0904.2832 0 .3062.0907.0226.2378-.0114.4416-.1018.2041-.091.4306-.2044.6795-.3399.2492-.136.4419-.2491.578-.3398.6794-.4079 1.2569-.7816 1.7328-1.1214.4756-.3399.9626-.7589 1.4607-1.2569l1.0876-1.0877c.0905-.0904.1355-.1355.1355-.1355.091-.1817.2044-.3398.3399-.4759.1361-.1361.2492-.2948.3399-.4756l.7478-.9514c-.0457-.0453-.0567-.102-.0343-.1698.0226-.0683.0343-.1476.0343-.2381l-.2722-.2715h-.4756c-.2716 0-.521.0904-.7475.2715l-.5434.2719c-.0907.0451-.2038.1134-.3399.2038-.2721.1811-.453.2945-.5437.3399 0 0-.0227.0453-.068.136l-.8836.7472c-.0904.0908-.2148.2155-.3736.3739-.1587.1588-.2832.2603-.3736.3059-.0907.2718-.2721.453-.5437.5434l-.136.3399-1.1551 1.3592-.5437.8155-.476.6795z" fill="#fff" fill-rule="evenodd"/>
  <path d="M136.1039 417.6473v-1.3017c0-.8678 0-.8678-2.3762-.8678v.8678h-3.5644v-.8678c.5941-.2479.5941-.2479-1.1881-.8678v-1.6736c.8487.1859 1.6973.3719 2.6308.5579.2546-.4959.5941-.9918.9336-1.4257h-2.3763v-.8678h3.5644c.3394.2479.7638.5578 1.1881.8678.7638-.31 1.5276-.6199 2.2914-.8678h2.3762c.9335.4339 1.9519.8678 2.9703 1.3017.5941-.3099 1.1881-.6199 1.7822-.8678-1.1881-.186-2.3763-.31-3.5644-.4339v-.8678h4.7525v.8678c1.5276.1239 3.0552.2479 4.6676.4339.3395-.4339.7638-.8678 1.1881-1.3017h1.1881c.3395-.31.7638-.6199 1.1882-.8678h1.1881c.3394.2479.7638.5578 1.1881.8678h9.4201c0-.8678 0-.8678-2.3763-.8678v-.8678h3.5644c4.2433.2479 8.5714.5578 12.8996.8678 8.9957-.6199 18.0763-1.1778 27.1569-1.7357 1.1882-.3099 2.3763-.6198 3.5644-.8678h24.6959v.8678h24.7807v-.8678h2.3763v.8678h96.6619v-.8678h7.0438v.8678c-2.3762 0-2.3762 0-2.3762.8679h9.4201c4.6676-.31 9.42-.6199 14.1725-.8679h14.1726v.8679c3.4795.4339 7.0438.8678 10.6082 1.3017-.4244.4339-.8487.8678-1.1882 1.3017h-9.42v-.8678h-4.7525v.8678h-4.7525v-.8678h-3.4795v.8678h-34.2008v-.4339c.1697-.186.3395-.31.5941-.4339h5.2616v-.8678c-1.9519.1239-3.9038.2479-5.8557.4339-.2546.1239-.4243.2479-.5941.4339-1.0183.2479-2.0367.5578-2.9703.8678h-11.7963v-.8678H322.299v.8678h-2.3762c.2546-.3719.5092-.7439.8486-1.1158-2.0367-.1859-4.3281.6819-17.3126 1.9836h-24.7807v.8678h7.0438v.8058h-54.1442v-.8058h-28.3451c0 .8058 0 .8058 3.5643.8058v.8678h-5.9405v-.8678c-2.3763-.186-4.7525-.3099-7.0439-.4339 1.1881.4339 2.3762.8678 3.5644 1.3017h-1.1882c-.8486.248-1.6124.5579-2.3762.8678h-5.8557v-.8678h-15.3607v.8678c-.4243.248-.8486.5579-1.1881.8678h-5.8557v-.8678h-10.6082c0 .8678 0 .8678 2.3762.8678v1.3017h-3.5643v-1.3017h-14.1726v1.3017h-3.4795z" fill="#fff" fill-rule="evenodd" stroke="#fff" stroke-width=".1"/>
  <path d="M139.5834 417.6473v-1.3017h14.1726v1.3017h-14.1726zm-11.7963-2.1695h1.1881v.8678c-.4243-.3099-.8487-.6198-1.1881-.8678zm1.1881.8678v-.8678h1.1881v.8678h-1.1881zm4.7525 0v-.8678c2.3762 0 2.3762 0 2.3762.8678h-2.3762zm31.8246 0h-8.232c-2.3762 0-2.3762 0-2.3762-.8678h10.6082v.8678zm5.8557 0c.3395-.3099.7638-.6198 1.1881-.8678h2.3762v.8678h-3.5643zm3.5643 0v-.8678h3.5644v.8678h-3.5644zm3.5644 0v-.8678h2.2914v.8678h-2.2914zm2.2914 0v-.8678h3.5643v.8678h-3.5643zm3.5643 0v-.8678h2.3763v.8678h-2.3763zm2.3763 0v-.8678h1.1881v.8678h-1.1881zm1.1881 0v-.8678h2.2914v.8678h-2.2914zm2.2914 0v-.8678h1.1881c-.4244.248-.8487.5579-1.1881.8678zm-63.6492-1.3017c.3394-.1859.7638-.3099 1.1881-.4339v.8678c-.4243-.1859-.8487-.3099-1.1881-.4339z" fill="#fff" fill-rule="evenodd" stroke="#fff" stroke-width=".1"/>
  <path d="M127.7871 415.4778v-.8678h1.1881v.8678h-1.1881zm1.1881 0v-.8678c1.7822.6199 1.7822.6199 1.1881.8678h-1.1881zm43.6209 0v-.8678h15.3607v.8678h-15.3607zm21.2164 0c.7638-.3099 1.5276-.6198 2.3762-.8678v.8678h-2.3762zm2.3762 0v-.8678h1.1882v.8678h-1.1882zm1.1882 0v-.8678h1.1881v.8678h-1.1881zm1.1881 0v-.8678h1.1881v.8678h-1.1881zm1.1881 0v-.8678h1.1033v.8678h-1.1033zm1.1033 0v-.8678h2.3762v.8678h-2.3762zm2.3762 0v-.8678h2.3762v.8678h-2.3762zm2.3762 0v-.8678h2.3763c-.8487.248-1.6125.5579-2.3763.8678zm-77.8217-.8678v-2.5414h4.7525c-.3395.4339-.679.9298-.9336 1.4257-.9335-.186-1.7821-.372-2.6308-.5579v1.6736h-1.1881zm9.4201 0v-.8678h1.1881v.8678h-1.1881zm60.1697 0c-1.1882-.4339-2.3763-.8678-3.5644-1.3017 2.2914.124 4.6676.2479 7.0439.4339v.8678h-3.4795zm9.42 0v-.8678h3.5644v.8678h-3.5644zm3.5644 0v-.8678h11.7114v.8678h-11.7114zm11.7114 0v-.8678h3.5644v.8678h-3.5644zm3.5644 0v-.8678h2.3762v.8678h-2.3762z" fill="#fff" fill-rule="evenodd" stroke="#fff" stroke-width=".1"/>
  <path d="M228.0133 414.61v-.8678h3.5644v.8678h-3.5644zm3.5644 0v-.8678h37.6803v.8678h-37.6803zm37.6803 0v-.8678h5.8557v.8678h-5.8557zm5.8557 0v-.8678h5.9406c-2.0367.248-3.9887.5579-5.9406.8678zm12.9845-.8678h4.7524v.8678h-4.7524v-.8678zm-154.3705 0v-.8058h2.3762v.8058h-2.3762zm12.9844 0v-.8058h2.2914v.8058h-2.2914zm84.8656-.8058v.8058h-24.7808c-3.5643 0-3.5643 0-3.5643-.8058h28.3451zm54.1442.8058v-.8058h8.3169v.8058h-8.3169zm8.3169 0v-.8058h3.4795v.8058h-3.4795zm3.4795 0v-.8058h3.5643v.8058h-3.5643zm3.5643 0v-.8058h2.3762v.8058h-2.3762zm2.3762 0v-.8058h3.4795v.8058h-3.4795zm3.4795 0v-.8058h2.3763v.8058h-2.3763zm2.3763 0v-.8058h2.3762v.8058h-2.3762zm2.3762 0v-.8058h1.1881v.8058h-1.1881zm1.1881 0v-.8058h1.1881c-.4243.2479-.8486.4959-1.1881.8058zm-173.2955-2.5414h1.1881c1.1881.1239 2.3763.2479 3.5644.4339-.5941.2479-1.1881.5579-1.7822.8678-1.0184-.4339-2.0368-.8678-2.9703-1.3017zm91.9943 1.7356v-.8678h28.2602v.8678h-28.2602zm65.9406-.8678v.8678h-18.8402v-.8678h18.8402zm0 .8678v-.8678h5.9405v.8678h-5.9405zm5.9405 0v-.8678c12.9845-1.3017 15.2759-2.1695 17.3126-1.9836-.3394.3719-.594.7439-.8486 1.1158h-1.1881c-.4244.2479-.8487.5578-1.1882.8678h-5.8557c-1.6124.2479-3.2249.5579-4.7525.8678h-3.4795z" fill="#fff" fill-rule="evenodd" stroke="#fff" stroke-width=".1"/>
  <path d="M306.9383 412.9364c1.5276-.3099 3.1401-.6199 4.7525-.8678v.8678h-4.7525zm4.7525 0v-.8678h1.1881v.8678h-1.1881z" fill="#fff" fill-rule="evenodd" stroke="#fff" stroke-width=".1"/>
  <path d="M312.8789 412.9364v-.8678h1.1881v.8678h-1.1881zm1.1881 0v-.8678h1.1882v.8678h-1.1882zm1.1882 0v-.8678h1.1881v.8678h-1.1881zm1.1881 0v-.8678h1.1032v.8678h-1.1032z" fill="#fff" fill-rule="evenodd" stroke="#fff" stroke-width=".1"/>
  <path d="M317.5465 412.9364v-.8678h1.1882c-.4244.2479-.8487.5579-1.1882.8678zm-189.7594-.8678v-.8678h2.3762v.8678h-2.3762zm5.9406-.8678h1.1881v.8678c-.4243-.31-.8487-.6199-1.1881-.8678zm1.1881.8678v-.8678h2.2914c-.7638.2479-1.5276.5578-2.2914.8678zm10.6082-1.7356h5.8557c-.4243.4339-.8486.8678-1.1881 1.3017-1.6124-.186-3.14-.31-4.6676-.4339v-.8678zm48.2885 1.7356v-.8678h2.3762v.8678h-2.3762zm9.4201 0v-.8678h1.1881v.8678h-1.1881zm18.8401 0v-.8678h4.7525v.8678h-4.7525zm95.4738 0c.3395-.31.7638-.6199 1.1882-.8678v.8678h-1.1882zm1.1882 0v-.8678h7.1287v.8678h-7.1287zm7.1287 0v-.8678h7.0438v.8678h-7.0438zm7.0438 0v-.8678h2.3762v.8678h-2.3762zm2.3762 0v-.8678h2.3763v.8678h-2.3763zm2.3763 0v-.8678h1.1032v.8678h-1.1032zm1.1032 0v-.8678h1.1881v.8678h-1.1881zm1.1881 0v-.8678h1.1882v.8678h-1.1882zm1.1882 0v-.8678h1.1881c-.4243.2479-.8487.5578-1.1881.8678zm3.5643-.8678h2.3763v.8678c-.8487-.31-1.6125-.6199-2.3763-.8678zm2.3763.8678v-.8678h2.2913v.8678h-2.2913zm2.2913 0v-.8678h7.1287v.8678h-7.1287zm7.1287 0v-.8678h1.1882v.8678h-1.1882zm1.1882 0v-.8678h2.2913v.8678h-2.2913zm2.2913 0v-.8678h2.3763c-.8487.2479-1.6125.5578-2.3763.8678zm3.5644-.8678h22.4045v.8678c-7.4682-.31-14.9363-.6199-22.4045-.8678zm22.4045.8678v-.8678h5.8557v.8678h-5.8557zm5.8557 0v-.8678h9.505v.8678h-9.505zm9.505 0v-.8678h17.652v.8678h-17.652zm17.652 0v-.8678h1.1881v.8678h-1.1881zm1.1881 0v-.8678h7.0439v.8678h-7.0439zm7.0439 0v-.8678h8.2319v.8678h-8.2319zm8.2319 0v-.8678h5.9406v.8678h-5.9406zm5.9406 0v-.8678h2.3763v.8678h-2.3763zm2.3763 0v-.8678h2.2913c-.7638.2479-1.5275.5578-2.2913.8678zm-314.7665-.8678v-.8678h1.1881v.8678h-1.1881zm1.1881 0v-.8678h1.1881v.8678h-1.1881zm1.1881 0v-.8678h1.1882v.8678h-1.1882zm1.1882 0v-.8678h2.3762v.8678h-2.3762zm2.3762 0v-.8678h1.1881v.8678h-1.1881zm1.1881 0v-.8678h1.1033v.8678h-1.1033zm1.1033 0v-.8678h3.5643v.8678h-3.5643zm150.891 0v-.8678h1.1881v.8678h-1.1881zm34.2008 0v-.8678h16.4639v.8678H322.299zm28.2602 0c.9336-.31 1.952-.6199 2.9703-.8678.1698.1239.3395.2479.5941.4339v.4339h-3.5644zm37.7652 0v-.8678h3.4795v.8678h-3.4795zm8.232 0v-.8678h4.7525v.8678h-4.7525zm14.1725 0c.3395-.4339.7638-.8678 1.1882-1.3017-3.5644-.4339-7.1287-.8678-10.6082-1.3017h27.0721c1.1881.2479 2.3762.5578 3.5643.8678h11.7964v.8678c-.4244.2479-.8487.5578-1.1882.8678h-12.9844v-.8678h-3.5643v.8678h-5.8558c0-.8678 0-.8678-2.3762-.8678v.8678h-7.0439z" fill="#fff" fill-rule="evenodd" stroke="#fff" stroke-width=".1"/>
  <path d="M417.7728 411.2008v-.8678c2.3762 0 2.3762 0 2.3762.8678h-2.3762zm8.232 0v-.8678h3.5643v.8678h-3.5643zm16.5487 0c.3395-.31.7638-.6199 1.1882-.8678h1.1032v.8678h-2.2914zm2.2914 0v-.8678h1.1881v.8678h-1.1881zm1.1881 0v-.8678h2.3763v.8678h-2.3763z" fill="#fff" fill-rule="evenodd" stroke="#fff" stroke-width=".1"/>
  <path d="M448.4093 411.2008v-.8678h3.5643v.8678h-3.5643zm3.5643 0v-.8678h5.8557v.8678h-5.8557zm5.8557 0v-.8678h3.5644v.8678h-3.5644zm3.5644 0v-.8678h3.5644v.8678h-3.5644zm3.5644 0v-.8678c.7637-.31 1.5275-.6199 2.2913-.8678h4.7525v.8678c-.4243.2479-.8487.5578-1.1881.8678h-5.8557z" fill="#fff" fill-rule="evenodd" stroke="#fff" stroke-width=".1"/>
  <path d="M470.8138 411.2008c.3394-.31.7638-.6199 1.1881-.8678h5.8557v.8678h-7.0438zm11.7963 0v-.8678h1.1881v.8678h-1.1881zm1.1881 0v-.8678h1.1881v.8678h-1.1881zm-129.6746-.4339c-.2546-.186-.4243-.31-.5941-.4339.1698-.186.3395-.31.5941-.4339.1697.1239.3395.2479.5941.4339-.2546.1239-.4244.2479-.5941.4339zm-214.5402-.4339c.7638-.31 1.5276-.6199 2.3762-.8678v.8678h-2.3762z" fill="#fff" fill-rule="evenodd" stroke="#fff" stroke-width=".1"/>
  <path d="M141.9596 410.333v-.8678h1.1882v.8678h-1.1882zm1.1882 0v-.8678h1.1881v.8678h-1.1881zm1.1881 0v-.8678h1.1881v.8678h-1.1881zm1.1881 0v-.8678h1.1881v.8678h-1.1881zm1.1881 0v-.8678h1.1033v.8678h-1.1033zm1.1033 0v-.8678h1.1881v.8678h-1.1881zm1.1881 0v-.8678h1.1881v.8678h-1.1881zm1.1881 0v-.8678h2.3762v.8678h-2.3762zm2.3762 0v-.8678h1.1882c-.4244.2479-.8487.5578-1.1882.8678zm2.3763-.8678h1.1881v.8678c-.4243-.31-.8487-.6199-1.1881-.8678zm1.1881.8678v-.8678h7.0438c2.3763 0 2.3763 0 2.3763.8678h-9.4201zm65.9405 0v-.8678h3.5644v.8678h-3.5644zm120.2546 0v-.8678h7.0438v.8678h-7.0438zm12.3904 0c-.2546-.186-.4244-.31-.5941-.4339 1.9519-.186 3.9038-.31 5.8557-.4339v.8678h-5.2616zm11.2022 0v-.8678h4.6676v.8678h-4.6676zm10.6082 0v-.8678h5.8557v.8678h-5.8557zm67.2136 0v-.8678h14.0876v.8678h-14.0876zm14.0876 0v-.8678h2.3763v.8678h-2.3763zm2.3763 0v-.8678h4.7525v.8678h-4.7525zm4.7525 0v-.8678h2.2913c-.7638.2479-1.5276.5578-2.2913.8678zm7.0438 0v-.8678h2.3762v.8678h-2.3762zm2.3762 0v-.8678h2.2914v.8678h-2.2914zm2.2914 0v-.8678h1.1881v.8678h-1.1881zm1.1881 0v-.8678h1.1881v.8678h-1.1881zm1.1881 0v-.8678h1.1882v.8678h-1.1882zm1.1882 0v-.8678h3.5643v.8678h-3.5643zm3.5643 0v-.8678h1.1881v.8678h-1.1881zm-331.2304-.8678v-.8678h1.1882v.8678h-1.1882zm1.1882 0v-.8678h1.1881v.8678h-1.1881zm1.1881 0v-.8678h1.1881v.8678h-1.1881zm1.1881 0v-.8678h1.1881v.8678h-1.1881zm1.1881 0v-.8678h1.1033v.8678h-1.1033zm1.1033 0v-.8678h1.1881v.8678h-1.1881zm1.1881 0v-.8678h1.1881v.8678h-1.1881zm1.1881 0v-.8678h1.1881v.8678h-1.1881zm1.1881 0v-.8678h1.1881v.8678h-1.1881zm4.7525-.8678H179.64v.8678c-4.3282-.31-8.6563-.6199-12.8996-.8678zm12.8996.8678v-1.7357h27.1569c-9.0806.5579-18.1612 1.1158-27.1569 1.7357zm248.741-.8678h3.5643v.8678c-1.1881-.31-2.3762-.6199-3.5643-.8678zm3.5643.8678v-.8678h2.2914v.8678h-2.2914zm2.2914 0v-.8678h3.5644v.8678h-3.5644zm3.5644 0v-.8678h1.1881v.8678h-1.1881zm1.1881 0v-.8678h1.1881v.8678h-1.1881zm1.1881 0v-.8678h1.1881v.8678h-1.1881zm1.1881 0v-.8678h2.3763v.8678h-2.3763z" fill="#fff" fill-rule="evenodd" stroke="#fff" stroke-width=".1"/>
  <path d="M443.7417 409.4652v-.8678h2.2913v.8678h-2.2913zm2.2913 0v-.8678h2.3763v.8678h-2.3763zm2.3763 0v-.8678h1.1881v.8678h-1.1881zm1.1881 0v-.8678h3.5643v.8678h-3.5643zm3.5643 0v-.8678h1.1882v.8678h-1.1882zm1.1882 0v-.8678h2.2913v.8678h-2.2913zm2.2913 0v-.8678h1.1881v.8678h-1.1881zm1.1881 0v-.8678h3.5644v.8678h-3.5644zm3.5644 0v-.8678c1.1881.2479 2.3762.5578 3.5644.8678h-3.5644zm-300.5939-.8678c.7638-.31 1.5276-.6199 2.3762-.8679v.8679h-2.3762zm2.3762 0v-.8679h2.3763v.8679h-2.3763zm2.3763 0v-.8679h2.3762v.8679h-2.3762zm2.3762 0v-.8679h1.1033v.8679h-1.1033zm1.1033 0v-.8679h1.1881v.8679h-1.1881zm1.1881 0v-.8679h1.1881v.8679h-1.1881zm1.1881 0v-.8679h1.1881v.8679h-1.1881zm1.1881 0v-.8679h2.3762v.8679h-2.3762zm2.3762 0v-.8679h3.5644v.8679h-3.5644zm3.5644 0v-.8679h1.1033v.8679h-1.1033zm32.9279 0v-.8679h1.1881v.8679h-1.1881zm23.5926-1.7357h24.7807v.8678h-24.7807v-.8678zm27.157 0h96.6619v.8678h-96.6619v-.8678zm103.7057.8678h7.0439v.8679h-9.4201c0-.8679 0-.8679 2.3762-.8679zm7.0439.8679v-.8679h14.1725c-4.7525.248-9.5049.5579-14.1725.8679zm28.3451 0v-.8679h4.6676v.8679h-4.6676zm4.6676 0v-.8679h4.7524v.8679h-4.7524zm4.7524 0v-.8679h2.2914v.8679h-2.2914zm2.2914 0v-.8679h2.3763v.8679h-2.3763zm2.3763 0v-.8679h2.3762v.8679h-2.3762zm2.3762 0v-.8679h2.3762v.8679h-2.3762zm2.3762 0v-.8679h3.4795v.8679h-3.4795zm3.4795 0v-.8679h2.3763v.8679h-2.3763zm2.3763 0v-.8679h3.5643v.8679h-3.5643zm3.5643 0v-.8679h4.6676v.8679h-4.6676zm4.6676 0v-.8679c2.3763.248 4.7525.5579 7.1287.8679h-7.1287zm-259.2644-.8679c1.1882-.3099 2.3763-.6198 3.5644-.8678v.8678h-3.5644zm3.5644 0v-.8678h2.2914v.8678h-2.2914zm2.2914 0v-.8678h3.5643v.8678h-3.5643zm3.5643 0v-.8678h2.3763v.8678h-2.3763zm2.3763 0v-.8678h1.1881v.8678h-1.1881zm1.1881 0v-.8678h2.2914v.8678h-2.2914zm2.2914 0v-.8678h2.3762v.8678h-2.3762zm2.3762 0v-.8678h2.3762v.8678h-2.3762zm2.3762 0v-.8678h5.8558v.8678h-5.8558zm5.8558 0v-.8678h9.5049c-1.1881.248-2.3762.5579-3.5644.8678h-5.9405zm165.0635 0v-.8678h4.6676v.8678h-4.6676zm4.6676 0v-.8678h2.3763v.8678h-2.3763zm2.3763 0v-.8678h4.7524v.8678h-4.7524zm4.7524 0v-.8678h4.6676v.8678h-4.6676zm4.6676 0v-.8678h5.9406v.8678h-5.9406zm5.9406 0v-.8678h3.4795v.8678h-3.4795zm3.4795 0v-.8678h4.7525v.8678h-4.7525zm4.7525 0v-.8678h4.7525v.8678h-4.7525zm4.7525 0v-.8678c1.9519.248 3.9038.5579 5.8557.8678h-5.8557zm-201.5558-.8678v-.8678h4.6676v.8678h-4.6676zm4.6676 0v-.8678h5.9406v.8678h-5.9406zm5.9406 0v-.8678h24.6959v.8678h-24.6959zm24.6959 0v-.8678h33.0127v.8678h-33.0127zm33.0127 0v-.8678h8.232v.8678h-8.232zm8.232 0v-.8678h21.2164v.8678h-21.2164zm21.2164 0v-.8678h9.42v.8678h-9.42zm9.42 0v-.8678h9.505v.8678h-9.505zm9.505 0v-.8678h18.8401v.8678h-18.8401zm18.8401 0v-.8678h7.0439v.8678h-7.0439zm7.0439 0v-.8678h4.7525v.8678h-4.7525zm4.7525 0v-.8678h3.4794v.8678h-3.4794zm3.4794 0v-.8678h3.5644v.8678h-3.5644zm3.5644 0v-.8678h4.7525v.8678h-4.7525zm4.7525 0v-.8678h4.6676v.8678h-4.6676zm4.6676 0v-.8678h4.7525v.8678h-4.7525z" fill="#fff" fill-rule="evenodd" stroke="#fff" stroke-width=".1"/>
  <path d="M187.5696 377.7111c-.9065 1.8131-1.813 3.6264-2.7195 5.4395-1.5112 2.4777-3.4753 4.3817-5.893 5.7112-3.2031 1.813-7.2825 2.6895-12.2385 2.6288-7.7962-.0603-14.2028-3.4747-19.2192-10.2435-4.7138-6.3462-7.0708-13.8104-7.0708-22.3923 0-8.159 2.4171-15.2603 7.2525-21.3041 5.1372-6.4065 11.4826-9.5794 19.0375-9.519 5.6208.0607 10.758 1.8131 15.4116 5.258l2.901-3.8072 2.5384 17.7684c-.9671-5.0771-3.3848-9.1565-7.2524-12.2389-3.8679-3.0818-8.4008-4.5632-13.5986-4.4419-6.1042.1205-10.9389 3.2335-14.5049 9.3379-3.0824 5.3184-4.593 11.6337-4.5326 18.9468.0601 7.4336 1.5712 13.7497 4.5326 18.9468 3.4452 5.9836 8.28 9.4586 14.5049 10.4255.9065.1213 1.7829.1812 2.6288.1812 4.2307 0 8.3103-1.45 12.2392-4.3512 2.7195-2.1152 4.7137-4.2307 5.983-6.346zm42.7896-8.7032c0 5.923-1.6923 11.0603-5.0772 15.412-3.6257 4.7137-8.1283 7.0707-13.5073 7.0707-5.3788 0-9.8819-2.357-13.5077-7.0707-3.3848-4.3517-5.0765-9.489-5.0765-15.412 0-5.4995 1.7827-10.3042 5.3481-14.4139 3.566-4.1099 7.9778-6.1647 13.2361-6.1647 5.258 0 9.6698 2.0548 13.2358 6.1647 3.566 4.1097 5.3487 8.9144 5.3487 14.4139zm-5.4394 0c0-4.8954-1.0877-9.1255-3.2635-12.6915-2.4784-4.0493-5.772-6.0741-9.8816-6.0741-4.11 0-7.4036 2.0248-9.8819 6.0741-2.1753 3.566-3.2635 7.7961-3.2635 12.6915 0 5.4394.9975 10.0633 2.9917 13.8708 2.2966 4.5326 5.6208 6.7992 9.972 6.7992 4.4124 0 7.8267-2.2666 10.2444-6.7992 2.0548-3.8075 3.0824-8.4314 3.0824-13.8708zm39.6167-16.1362c-.1208 1.5713-1.239 2.4477-3.3542 2.6289-1.4505.1207-2.4931-.0757-3.1278-.5894-.6347-.5136-1.1633-1.5258-1.5865-3.037-.1812-.6647-.7852-.9972-1.8128-.9972-1.7529 0-3.4449.7857-5.0768 2.357-1.9341 1.8737-2.901 4.2914-2.901 7.2527v23.2985c0 1.209.3022 2.2666.9065 3.1731.8464 1.2082 2.0546 1.8131 3.6264 1.8131v.9065h-14.5049v-.9065c1.3294 0 2.5381-.6049 3.6258-1.8131.6049-.6653.9065-1.7223.9065-3.1731v-29.9165h-6.3454l11.7851-5.4394v6.3459c.3628-1.2694 1.8734-2.6595 4.5329-4.1701 2.9613-1.6316 5.6809-2.357 8.1589-2.1758 3.6868.2418 5.4091 1.7223 5.1673 4.4424zm47.141 36.8062h-14.5052v-.9065c1.3301 0 2.5385-.6049 3.6267-1.8131.6041-.6653.9065-1.7223.9065-3.1731v-22.2108c0-3.2032-.9972-5.8173-2.992-7.8415-1.9941-2.0248-4.4722-3.0371-7.4335-3.0371-6.9503 0-10.4256 3.4147-10.4256 10.2439v22.8455c0 1.209.3025 2.2666.9065 3.1731.8465 1.2082 2.0549 1.8131 3.6267 1.8131v.9065h-14.5052v-.9065c1.3295 0 2.5385-.6049 3.6261-1.8131.6046-.6653.9065-1.7223.9065-3.1731v-29.9165h-6.3456l11.785-5.4394v5.8923c2.6595-3.6258 6.1342-5.5899 10.4256-5.8923 4.2913-.3022 7.9472.6647 10.9695 2.9012 3.2638 2.4171 4.8954 5.832 4.8954 10.2439v22.2108c0 1.209.3019 2.2666.9065 3.1731.8459 1.2082 2.0549 1.8131 3.6261 1.8131zm37.4406-23.5707h-26.2899c-.1812 1.209-.2719 2.6896-.2719 4.4419 0 10.2144 3.5654 15.6838 10.6974 16.4092 3.5654.3623 6.7385-.5142 9.519-2.6294 1.4502-1.1483 2.5685-2.387 3.3543-3.7165l1.5412 1.6316c-3.0824 6.2249-8.2503 9.3073-15.5027 9.2466-5.7413-.0603-10.0624-2.9006-12.9637-8.5212-2.3573-4.6536-3.3542-10.0026-2.9914-16.0463.3019-5.3788 2.1753-9.8212 5.6208-13.3266 3.4447-3.5053 7.5543-5.2279 12.329-5.1672 5.8626.0606 10.1231 2.9919 12.7826 8.7936 1.4502 3.2638 2.1753 6.2249 2.1753 8.8843zm-5.3481-2.7195c0-1.8133-.5143-3.9889-1.5412-6.5276-1.8131-4.2302-4.5633-6.376-8.2497-6.4361-3.9288-.0607-6.9202 2.0548-8.9751 6.3454-1.3297 2.7201-1.9944 4.926-1.9944 6.6183zm21.6209-20.8508c-1.8431 0-2.7649-.8765-2.7649-2.6289 0-1.8737.8912-2.8108 2.6742-2.8108 1.8437 0 2.7649.9065 2.7649 2.7196 0 1.8136-.8912 2.7201-2.6742 2.7201zm7.2071 47.141h-14.5049v-.9065c1.3295 0 2.5382-.6049 3.6264-1.8131.6043-.6653.9065-1.7223.9065-3.1731v-29.9165h-6.3459l11.785-5.4394v35.3559c0 1.209.3022 2.2666.9071 3.1731.8459 1.2082 2.0546 1.8131 3.6258 1.8131zm23.5707 0h-14.5052v-.9065c1.3294 0 2.5384-.6049 3.6266-1.8131.6041-.6653.9066-1.7223.9066-3.1731v-50.3138h-6.346l11.7848-5.4397v55.7535c0 1.209.3025 2.2666.9071 3.1731.8458 1.2082 2.0548 1.8131 3.6261 1.8131zm23.5703 0h-14.5049v-.9065c1.3295 0 2.5382-.6049 3.6264-1.8131.6044-.6653.9065-1.7223.9065-3.1731v-50.3138h-6.3459l11.785-5.4397v55.7535c0 1.209.3022 2.2666.9068 3.1731.8462 1.2082 2.0549 1.8131 3.6261 1.8131zm38.3474-23.5707h-26.2899c-.1814 1.209-.2719 2.6896-.2719 4.4419 0 10.2144 3.5654 15.6838 10.6971 16.4092 3.5654.3623 6.7386-.5142 9.5191-2.6294 1.4502-1.1483 2.5684-2.387 3.3542-3.7165l1.5412 1.6316c-3.0824 6.2249-8.25 9.3073-15.5027 9.2466-5.7413-.0603-10.0624-2.9006-12.9637-8.5212-2.357-4.6536-3.3542-10.0026-2.9911-16.0463.3016-5.3788 2.1753-9.8212 5.6205-13.3266 3.445-3.5053 7.5544-5.2279 12.3291-5.1672 5.8626.0606 10.1233 2.9919 12.7828 8.7936 1.4499 3.2638 2.1753 6.2249 2.1753 8.8843zm-5.3484-2.7195c0-1.8133-.5142-3.9889-1.5412-6.5276-1.8131-4.2302-4.5629-6.376-8.2497-6.4361-3.9288-.0607-6.9202 2.0548-8.9748 6.3454-1.33 2.7201-1.9947 4.926-1.9947 6.6183z" fill="#fff" fill-rule="evenodd" stroke="#fff" stroke-width="1.22140002"/>
  <path d="M288.125 312.3343c-3.2394-.3186-5.773-1.4539-7.5864-3.3642-1.8136-1.9241-2.7133-4.4572-2.7133-7.586 0-5.302 2.7275-10.1194 8.1956-14.4386 5.4541-4.3327 11.6557-6.4925 18.5774-6.4925 1.4533 0 2.4505.0692 2.9902.2075.54.125.8164.3603.8164.6786 0 .2217-.1105.3875-.318.5126-.2217.1241-.5261.1794-.9414.1794h-1.2184c-1.9377 0-3.9866.3597-6.1324 1.0936-2.1597.7336-4.2639 1.7719-6.3539 3.1286-3.6689 2.4641-6.6863 5.3853-9.0261 8.7627-2.3391 3.3778-3.5022 6.3961-3.5022 9.0397 0 2.1458.6367 3.8072 1.9242 5.0114 1.2872 1.2044 3.2255 1.9239 5.8283 2.173 1.8272-3.5436 4.1669-6.9763 6.9905-10.3269 2.8239-3.3363 6.1047-6.5341 9.8289-9.5797 4.2497-3.4324 8.1952-6.063 11.8633-7.8902 3.6549-1.8272 6.8249-2.7411 9.5108-2.7411 2.1316 0 3.7927.5125 4.9694 1.5228 1.1769 1.0108 1.7583 2.4366 1.7583 4.2775 0 2.1322-.9828 4.4852-2.9628 7.0324-1.9658 2.5608-4.9697 5.3853-8.998 8.4997-3.35 2.5753-6.8802 4.6378-10.5624 6.2017-3.6961 1.578-7.6133 2.6722-11.7803 3.2947-1.4955 2.423-2.6441 4.7486-3.4469 6.9497-.8169 2.2011-1.2183 4.0836-1.2183 5.648 0 2.6025.6783 4.5266 2.0211 5.7861 1.3566 1.26 3.433 1.883 6.2152 1.883 2.0217 0 4.1533-.4291 6.4097-1.2736 2.2422-.8586 4.3608-2.0353 6.3678-3.558 1.7308-1.2872 3.0733-2.7822 4.0283-4.4714.9555-1.6886 1.44-3.3636 1.44-5.0108 0-1.6197-.4983-2.9486-1.4811-3.9872-.9828-1.0383-2.2564-1.5639-3.8347-1.5639-2.2428 0-4.1531.7475-5.7311 2.2286-1.5781 1.4811-2.8797 3.7514-3.8764 6.8105-.1658.5125-.3322 1.1631-.5261 1.9384-.2492 1.135-.5953 1.703-1.0519 1.703-.2492 0-.4428-.0969-.5678-.305-.1381-.2075-.2075-.4841-.2075-.8308v-.6089c0-3.4053 1.0797-6.2986 3.2394-8.6936 2.1733-2.395 4.8036-3.5852 7.9183-3.5852 2.2981 0 4.1117.6366 5.4542 1.9238 1.3427 1.2881 2.0075 3.032 2.0075 5.247 0 1.6891-.5536 3.4611-1.6614 5.3572-1.1072 1.8966-2.6025 3.5716-4.4578 5.0249-1.9241 1.4956-4.0836 2.6581-6.4925 3.5164-2.4086.8445-4.7894 1.2736-7.1427 1.2736-4.7069 0-8.5414-1.2872-11.5316-3.848-2.9897-2.5753-4.4853-5.8283-4.4853-9.7736 0-.9692.125-2.0353.3597-3.1703.2498-1.1352.6095-2.3949 1.0942-3.8066zm11.9602-2.1458c3.7659-.4848 7.4892-1.7442 11.1714-3.7514 3.6966-2.0211 7.2822-4.7622 10.7705-8.2233 2.533-2.5055 4.5822-4.9972 6.1463-7.4752 1.5503-2.4778 2.3256-4.402 2.3256-5.7861 0-.9973-.277-1.772-.817-2.3261-.5397-.5536-1.2872-.8306-2.2699-.8306-2.5331 0-6.4789 2.6994-11.8361 8.0847-5.3433 5.3989-10.5072 12.1677-15.4908 20.308z" fill="#fff" fill-rule="evenodd"/>
</svg>
