<?xml version="1.0" encoding="UTF-8" standalone="no"?>
<!-- Generator: Adobe Illustrator 16.0.0, SVG Export Plug-In . SVG Version: 6.00 Build 0)  -->
<svg xmlns:rdf="http://www.w3.org/1999/02/22-rdf-syntax-ns#" xmlns="http://www.w3.org/2000/svg" enable-background="new 0 0 266.893 266.895" xml:space="preserve" height="200" viewBox="0 0 200 200.00001" width="200" version="1.1" y="0px" x="0px" xmlns:cc="http://creativecommons.org/ns#" xmlns:dc="http://purl.org/dc/elements/1.1/"><metadata><rdf:RDF><cc:Work rdf:about=""><dc:format>image/svg+xml</dc:format><dc:type rdf:resource="http://purl.org/dc/dcmitype/StillImage"/><dc:title/></cc:Work></rdf:RDF></metadata><path id="Blue_1_" d="m11.039-0.000095c-6.0973 0-11.039 4.9417-11.039 11.039v177.92c0 6.0958 4.9409 11.039 11.039 11.039h95.791v-77.45h-26.066v-30.185h26.062v-22.26c0-3.229 0.24625-6.274 0.72266-9.1309 0.47641-2.8568 1.1839-5.5263 2.1035-8.002 0.91959-2.4757 2.0514-4.7582 3.3809-6.8438 1.3295-2.0855 2.8563-3.9738 4.5625-5.6602s3.5929-3.1709 5.6426-4.4492 4.2612-2.3498 6.6211-3.2109c2.3599-0.86118 4.867-1.5122 7.5039-1.9473 2.6368-0.43508 5.4046-0.65429 8.2852-0.65429 5.5192 0 10.651 0.20559 14.748 0.45703 4.0973 0.25143 7.1608 0.5485 8.543 0.73242v26.996l-15.984 0.008c-1.5664 0-2.9746 0.0935-4.2402 0.27344-1.2657 0.17991-2.3879 0.44554-3.3828 0.79297-0.99489 0.34743-1.8631 0.77674-2.6172 1.2793-0.75408 0.50256-1.3942 1.0793-1.9375 1.7246-0.54329 0.6453-0.98909 1.3591-1.3516 2.1348-0.36247 0.77565-0.64187 1.6122-0.85351 2.5059-0.42331 1.7872-0.57422 3.7977-0.57422 5.9824v19.271h29.889l-3.8926 30.184h-25.996v77.451h50.965c6.0951 0 11.037-4.9425 11.037-11.039v-177.92c0-6.0973-4.9413-11.039-11.037-11.039z" stroke-width=".77604" fill="#fff"/></svg>
