<?xml version="1.0" encoding="UTF-8" standalone="no"?>
<svg
   xmlns:dc="http://purl.org/dc/elements/1.1/"
   xmlns:cc="http://creativecommons.org/ns#"
   xmlns:rdf="http://www.w3.org/1999/02/22-rdf-syntax-ns#"
   xmlns:svg="http://www.w3.org/2000/svg"
   xmlns="http://www.w3.org/2000/svg"
   xmlns:sodipodi="http://sodipodi.sourceforge.net/DTD/sodipodi-0.dtd"
   xmlns:inkscape="http://www.inkscape.org/namespaces/inkscape"
   height="40"
   id="Layer_1"
   version="1.1"
   viewBox="0 0 40 40"
   width="40"
   xml:space="preserve"
   sodipodi:docname="Hamburger_icon.svg"
   inkscape:version="0.92.2 (5c3e80d, 2017-08-06)"><metadata
     id="metadata9"><rdf:RDF><cc:Work
         rdf:about=""><dc:format>image/svg+xml</dc:format><dc:type
           rdf:resource="http://purl.org/dc/dcmitype/StillImage" /><dc:title></dc:title></cc:Work></rdf:RDF></metadata><defs
     id="defs7" /><sodipodi:namedview
     pagecolor="#ffffff"
     bordercolor="#666666"
     borderopacity="1"
     objecttolerance="10"
     gridtolerance="10"
     guidetolerance="10"
     inkscape:pageopacity="0"
     inkscape:pageshadow="2"
     inkscape:window-width="1920"
     inkscape:window-height="1001"
     id="namedview5"
     showgrid="false"
     inkscape:zoom="7.375"
     inkscape:cx="18.440678"
     inkscape:cy="16"
     inkscape:window-x="-9"
     inkscape:window-y="-9"
     inkscape:window-maximized="1"
     inkscape:current-layer="Layer_1" /><path
     d="M 2.8571431,7.9999999 H 37.142857 c 1.577143,0 2.857143,-1.792 2.857143,-4 C 40,1.7919999 38.72,-9.5000004e-8 37.142857,-9.5000004e-8 H 2.8571431 C 1.2800002,-9.5000004e-8 1.8e-7,1.7919999 1.8e-7,3.9999999 c 0,2.208 1.28000002,4 2.85714292,4 z M 37.142857,16 H 2.8571431 C 1.2800002,16 1.8e-7,17.792 1.8e-7,20 c 0,2.208 1.28000002,4 2.85714292,4 H 37.142857 C 38.72,24 40,22.208 40,20 40,17.792 38.72,16 37.142857,16 Z m 0,16 H 2.8571431 C 1.2800002,32 1.8e-7,33.792 1.8e-7,36 c 0,2.208 1.28000002,4 2.85714292,4 H 37.142857 C 38.72,40 40,38.208 40,36 40,33.792 38.72,32 37.142857,32 Z"
     id="path2"
     inkscape:connector-curvature="0"
     style="stroke-width:1.69030845" /></svg>